<svg width="241" height="241" viewBox="0 0 241 241" fill="none" xmlns="http://www.w3.org/2000/svg">
<path d="M199.858 125.262C199.834 88.547 205.354 78.827 185.458 47.8094C165.562 16.7918 116.79 9.92302 79.9064 32.9294C43.0232 55.9358 33.1064 85.523 33.1064 85.523C33.1064 85.523 19.724 120.083 38.5304 154.883C55.7288 186.717 89.5976 204.803 118.974 219.683H194.089C198.655 215.835 202.537 211.242 205.57 206.099C220.868 180.357 199.887 161.977 199.858 125.262Z" fill="#1C2560"/>
<path opacity="0.7" d="M199.858 125.262C199.834 88.547 205.354 78.827 185.458 47.8094C165.562 16.7918 116.79 9.92302 79.9064 32.9294C43.0232 55.9358 33.1064 85.523 33.1064 85.523C33.1064 85.523 19.724 120.083 38.5304 154.883C55.7288 186.717 89.5976 204.803 118.974 219.683H194.089C198.655 215.835 202.537 211.242 205.57 206.099C220.868 180.357 199.887 161.977 199.858 125.262Z" fill="white"/>
<path d="M110.799 24.8656C111.447 27.4336 111.131 22.7056 112.403 16.9168C113.675 11.128 115.849 13.48 115.849 13.48" stroke="#263238" stroke-width="0.481308" stroke-linecap="round" stroke-linejoin="round"/>
<path d="M110.401 18.9518L114.39 17.3198" stroke="#263238" stroke-width="0.481308" stroke-linecap="round" stroke-linejoin="round"/>
<path d="M117.687 15.3615C117.687 15.3615 115.287 20.2863 118.892 22.3839" stroke="#263238" stroke-width="0.481308" stroke-linecap="round" stroke-linejoin="round"/>
<path d="M121.066 13.9599C121.066 13.9599 124.998 16.1439 122.535 20.8767" stroke="#263238" stroke-width="0.481308" stroke-linecap="round" stroke-linejoin="round"/>
<path d="M118.369 17.027L121.186 19.0862" stroke="#263238" stroke-width="0.481308" stroke-linecap="round" stroke-linejoin="round"/>
<path d="M120.582 16.1247L118.374 19.6335" stroke="#263238" stroke-width="0.481308" stroke-linecap="round" stroke-linejoin="round"/>
<path d="M34.7288 140.882C34.7288 140.882 28.0424 140.785 28.0088 146.555" stroke="#263238" stroke-width="0.481308" stroke-linecap="round" stroke-linejoin="round"/>
<path d="M34.1722 144.52C34.033 143.67 31.1242 142.6 30.6202 144.817C30.1162 147.035 33.7306 145.705 34.849 144.669C34.849 144.669 32.7754 146.685 33.409 147.251" stroke="#263238" stroke-width="0.481308" stroke-linecap="round" stroke-linejoin="round"/>
<path d="M34.5803 147.88C34.5803 147.88 33.7019 148.979 32.7515 148.456" stroke="#263238" stroke-width="0.481308" stroke-linecap="round" stroke-linejoin="round"/>
<path d="M40.4313 144.04L35.4153 149.133C35.4153 149.133 37.9401 146.574 39.4041 147.4C41.2281 148.398 38.8617 151.134 36.9129 149.176" stroke="#263238" stroke-width="0.481308" stroke-linecap="round" stroke-linejoin="round"/>
<path d="M42.9658 145.413C42.9658 145.413 44.2954 151.504 37.4314 151.72" stroke="#263238" stroke-width="0.481308" stroke-linecap="round" stroke-linejoin="round"/>
<path d="M132.515 41.8623L134.934 42.2607L134.967 47.7567L140.267 38.0943L148.628 39.4671" stroke="#263238" stroke-width="0.481308" stroke-linecap="round" stroke-linejoin="round"/>
<path d="M141.183 42.3279L144.86 48.8175" stroke="#263238" stroke-width="0.481308" stroke-linecap="round" stroke-linejoin="round"/>
<path d="M145.806 43.0863L139.225 47.8911" stroke="#263238" stroke-width="0.481308" stroke-linecap="round" stroke-linejoin="round"/>
<path d="M99.4569 51.6446C98.8377 50.8574 95.2713 51.419 95.9961 53.9439C96.7209 56.4687 99.6681 53.1039 100.23 51.419C100.23 51.419 99.2457 54.6399 100.23 54.8559" stroke="#263238" stroke-width="0.481308" stroke-linecap="round" stroke-linejoin="round"/>
<path d="M102.188 49.0479L101.391 51.8799C101.391 51.8799 101.79 50.4399 102.491 50.4399C103.35 50.4399 103.038 51.8799 101.939 51.5823" stroke="#263238" stroke-width="0.481308" stroke-linecap="round" stroke-linejoin="round"/>
<path d="M169.427 83.9536L167.747 90.0256L171.419 94.048" stroke="#263238" stroke-width="0.481308" stroke-linecap="round" stroke-linejoin="round"/>
<path d="M171.529 86.4207L175.734 89.9391" stroke="#263238" stroke-width="0.481308" stroke-linecap="round" stroke-linejoin="round"/>
<path d="M174.423 85.5566L172.604 90.0254" stroke="#263238" stroke-width="0.481308" stroke-linecap="round" stroke-linejoin="round"/>
<path d="M177.38 89.4495C177.38 89.4495 177.419 90.7167 176.871 90.8895" stroke="#263238" stroke-width="0.481308" stroke-linecap="round" stroke-linejoin="round"/>
<path d="M177.913 85.0239L180.452 86.9103" stroke="#263238" stroke-width="0.481308" stroke-linecap="round" stroke-linejoin="round"/>
<path d="M181.393 83.4735L178.887 92.4975" stroke="#263238" stroke-width="0.481308" stroke-linecap="round" stroke-linejoin="round"/>
<path d="M181.518 80.3391L185.588 84.9471L183.855 89.9871" stroke="#263238" stroke-width="0.481308" stroke-linecap="round" stroke-linejoin="round"/>
<path d="M69.4185 199.245L75.3081 181.715L82.4504 189.688L69.4185 199.245Z" stroke="#263238" stroke-width="0.481308" stroke-linecap="round" stroke-linejoin="round"/>
<path d="M80.6986 190.969L79.1914 189.246L80.7994 187.854" stroke="#263238" stroke-width="0.481308" stroke-linecap="round" stroke-linejoin="round"/>
<path d="M34.6061 100.757C37.6651 99.4899 39.1178 95.9829 37.8507 92.9239C36.5836 89.8649 33.0766 88.4123 30.0176 89.6793C26.9586 90.9464 25.5059 94.4534 26.773 97.5124C28.0401 100.571 31.5471 102.024 34.6061 100.757Z" stroke="#263238" stroke-width="0.481308" stroke-linecap="round" stroke-linejoin="round"/>
<path d="M38.9626 96.6207C42.6369 96.6207 45.6154 93.6421 45.6154 89.9679C45.6154 86.2937 42.6369 83.3151 38.9626 83.3151C35.2884 83.3151 32.3098 86.2937 32.3098 89.9679C32.3098 93.6421 35.2884 96.6207 38.9626 96.6207Z" stroke="#263238" stroke-width="0.481308" stroke-linecap="round" stroke-linejoin="round"/>
<path d="M33.4904 89.3391L32.6792 92.1567" stroke="#263238" stroke-width="0.481308" stroke-linecap="round" stroke-linejoin="round"/>
<path d="M34.6377 89.6894L33.4905 93.7502" stroke="#263238" stroke-width="0.481308" stroke-linecap="round" stroke-linejoin="round"/>
<path d="M35.8425 90.3711L34.6377 94.9647" stroke="#263238" stroke-width="0.481308" stroke-linecap="round" stroke-linejoin="round"/>
<path d="M37.1817 91.7198L36.3225 96.0783" stroke="#263238" stroke-width="0.481308" stroke-linecap="round" stroke-linejoin="round"/>
<path d="M37.9352 93.1408L37.1816 96.3808" stroke="#263238" stroke-width="0.481308" stroke-linecap="round" stroke-linejoin="round"/>
<path d="M26.5786 87.5342C26.0554 87.3758 24.6202 88.739 25.7338 89.6558C26.8474 90.5726 27.1306 88.1294 26.857 87.1935C26.857 87.1935 27.4186 88.955 27.9274 88.7438" stroke="#263238" stroke-width="0.481308" stroke-linecap="round" stroke-linejoin="round"/>
<path d="M34.3162 79.8399L36.2362 83.3343C36.2362 83.3343 35.2762 81.5871 35.953 80.9343C36.7786 80.1279 37.873 81.8319 36.4906 82.5471" stroke="#263238" stroke-width="0.481308" stroke-linecap="round" stroke-linejoin="round"/>
<path d="M69.3994 79.4224L72.1114 81.9904" stroke="#263238" stroke-width="0.481308" stroke-linecap="round" stroke-linejoin="round"/>
<path d="M72.1112 78.7551L69.8408 82.1439" stroke="#263238" stroke-width="0.481308" stroke-linecap="round" stroke-linejoin="round"/>
<path d="M74.78 79.7295L77.492 78.7167" stroke="#263238" stroke-width="0.481308" stroke-linecap="round" stroke-linejoin="round"/>
<path d="M78.793 75.8896L80.4442 77.3488" stroke="#263238" stroke-width="0.481308" stroke-linecap="round" stroke-linejoin="round"/>
<path d="M81.7064 74.1327L79.6184 81.3039" stroke="#263238" stroke-width="0.481308" stroke-linecap="round" stroke-linejoin="round"/>
<path d="M200.247 72.6927L200.132 67.2111H204.274C204.274 67.2111 201.98 68.4783 203.036 71.4255C204.092 74.3727 205.791 72.6927 205.791 72.6927" stroke="#263238" stroke-width="0.481308" stroke-linecap="round" stroke-linejoin="round"/>
<path d="M193.23 166.202L197.943 162.957L204.183 163.394L204.572 171.304L199.993 174.582L194.339 174.17L193.23 166.202Z" stroke="#263238" stroke-width="0.481308" stroke-linecap="round" stroke-linejoin="round"/>
<path d="M194.338 174.17L198.898 170.886L204.572 171.304" stroke="#263238" stroke-width="0.481308" stroke-linecap="round" stroke-linejoin="round"/>
<path d="M198.903 170.886L197.943 162.957" stroke="#263238" stroke-width="0.481308" stroke-linecap="round" stroke-linejoin="round"/>
<path d="M193.23 166.201L199.455 166.921L204.183 163.393" stroke="#263238" stroke-width="0.481308" stroke-linecap="round" stroke-linejoin="round"/>
<path d="M199.455 166.922L199.993 174.582" stroke="#263238" stroke-width="0.481308" stroke-linecap="round" stroke-linejoin="round"/>
<path d="M194.089 106.787L193.887 117.333L203.127 113.138L194.089 106.787Z" stroke="#263238" stroke-width="0.481308" stroke-linecap="round" stroke-linejoin="round"/>
<path d="M194.089 106.787L198.49 115.182" stroke="#263238" stroke-width="0.481308" stroke-linecap="round" stroke-linejoin="round"/>
<path d="M197.785 113.834L198.855 113.315L199.575 114.75" stroke="#263238" stroke-width="0.481308" stroke-linecap="round" stroke-linejoin="round"/>
<path d="M113.526 105.789L117.346 109.883" stroke="#263238" stroke-width="0.481308" stroke-linecap="round" stroke-linejoin="round"/>
<path d="M117.375 105.237L114.164 109.634" stroke="#263238" stroke-width="0.481308" stroke-linecap="round" stroke-linejoin="round"/>
<path d="M118.94 103.091C119.123 103.006 119.333 102.997 119.523 103.066C119.713 103.136 119.867 103.277 119.953 103.461C119.983 103.526 120.004 103.596 120.015 103.667C120.202 104.589 118.69 105.789 118.69 105.789H120.846" stroke="#263238" stroke-width="0.481308" stroke-linecap="round" stroke-linejoin="round"/>
<path d="M54.0393 44.4399C54.2222 42.1141 54.9884 39.872 56.2669 37.9206C57.5455 35.9692 59.2952 34.3715 61.3545 33.2751" stroke="#263238" stroke-width="0.481308" stroke-linecap="round" stroke-linejoin="round"/>
<path d="M64.6522 59.08C61.1514 58.2403 58.1137 56.0735 56.1802 53.0368" stroke="#263238" stroke-width="0.481308" stroke-linecap="round" stroke-linejoin="round"/>
<path d="M81.7642 46.6527C81.4679 50.3287 79.7249 53.737 76.9179 56.129C74.111 58.5211 70.4695 59.7015 66.793 59.4111" stroke="#263238" stroke-width="0.481308" stroke-linecap="round" stroke-linejoin="round"/>
<path d="M69.0056 31.6864C72.1661 31.9397 75.1453 33.2644 77.4505 35.4413C79.7557 37.6182 81.2487 40.5168 81.6824 43.6576" stroke="#263238" stroke-width="0.481308" stroke-linecap="round" stroke-linejoin="round"/>
<path d="M73.9017 56.2526C71.9614 57.3412 69.7617 57.882 67.5379 57.817C65.314 57.7521 63.1496 57.0839 61.2762 55.8839C59.4027 54.6839 57.8907 52.9973 56.9018 51.0043C55.9128 49.0114 55.4842 46.7871 55.6617 44.5694" stroke="#263238" stroke-width="0.481308" stroke-linecap="round" stroke-linejoin="round"/>
<path d="M56.449 41.1328C57.0948 39.4537 58.1019 37.9371 59.399 36.6904C60.696 35.4437 62.2512 34.4974 63.9545 33.9185C65.6578 33.3395 67.4676 33.1421 69.2557 33.3402C71.0437 33.5382 72.7664 34.127 74.3017 35.0647C75.837 36.0024 77.1474 37.2661 78.1401 38.7665C79.1329 40.2668 79.7836 41.967 80.0463 43.7468C80.3091 45.5265 80.1773 47.3422 79.6605 49.0654C79.1436 50.7886 78.2543 52.377 77.0554 53.7184" stroke="#263238" stroke-width="0.481308" stroke-linecap="round" stroke-linejoin="round"/>
<path d="M66.697 36.7167L67.9018 45.5487L74.689 43.4367" stroke="#263238" stroke-width="0.481308" stroke-linecap="round" stroke-linejoin="round"/>
<path d="M173.732 62.7135C171.781 62.7324 169.87 62.158 168.253 61.0665C166.635 59.975 165.388 58.4178 164.675 56.6014C163.963 54.7849 163.819 52.7948 164.263 50.8947C164.707 48.9947 165.717 47.2743 167.161 45.9615" stroke="#263238" stroke-width="0.481308" stroke-linecap="round" stroke-linejoin="round"/>
<path d="M182.751 56.1999C182.284 57.5794 181.508 58.8343 180.483 59.8697C179.459 60.905 178.212 61.6937 176.838 62.1759" stroke="#263238" stroke-width="0.481308" stroke-linecap="round" stroke-linejoin="round"/>
<path d="M170.444 44.0031C172.853 43.1556 175.499 43.2994 177.802 44.403C180.104 45.5065 181.874 47.4795 182.723 49.8879" stroke="#263238" stroke-width="0.481308" stroke-linecap="round" stroke-linejoin="round"/>
<path d="M178.393 46.0432C179.388 46.7156 180.229 47.5913 180.861 48.6125C181.492 49.6337 181.901 50.7773 182.058 51.9677C182.216 53.1582 182.119 54.3685 181.775 55.5189C181.43 56.6693 180.846 57.7337 180.06 58.6418C179.274 59.5498 178.305 60.281 177.216 60.7871C176.127 61.2932 174.943 61.5627 173.742 61.5778C172.542 61.5929 171.351 61.3533 170.25 60.8747C169.149 60.3962 168.161 59.6896 167.353 58.8016" stroke="#263238" stroke-width="0.481308" stroke-linecap="round" stroke-linejoin="round"/>
<path d="M165.62 55.9023C165.109 54.4486 165.003 52.8834 165.313 51.3742C165.624 49.865 166.339 48.4686 167.382 47.3344C168.425 46.2002 169.756 45.371 171.234 44.9356C172.712 44.5001 174.281 44.4748 175.772 44.8623" stroke="#263238" stroke-width="0.481308" stroke-linecap="round" stroke-linejoin="round"/>
<path d="M170.396 47.8383L173.641 53.0847L170.684 56.9199" stroke="#263238" stroke-width="0.481308" stroke-linecap="round" stroke-linejoin="round"/>
<path d="M105.62 196.566C105.616 195.307 105.919 194.066 106.505 192.952C107.091 191.837 107.941 190.883 108.98 190.173" stroke="#263238" stroke-width="0.481308" stroke-linecap="round" stroke-linejoin="round"/>
<path d="M118.921 201.885C118.005 202.848 116.857 203.558 115.586 203.947C114.316 204.336 112.967 204.391 111.669 204.106C110.371 203.821 109.169 203.207 108.178 202.322C107.188 201.436 106.442 200.31 106.014 199.053" stroke="#263238" stroke-width="0.481308" stroke-linecap="round" stroke-linejoin="round"/>
<path d="M113.324 188.843C115.373 188.843 117.337 189.657 118.785 191.105C120.234 192.554 121.047 194.518 121.047 196.566" stroke="#263238" stroke-width="0.481308" stroke-linecap="round" stroke-linejoin="round"/>
<path d="M113.324 203.378C111.518 203.378 109.785 202.66 108.508 201.383C107.231 200.105 106.513 198.373 106.513 196.566V196.566" stroke="#263238" stroke-width="0.481308" stroke-linecap="round" stroke-linejoin="round"/>
<path d="M108.02 192.289C108.651 191.509 109.447 190.878 110.351 190.442C111.254 190.005 112.243 189.773 113.247 189.762C114.25 189.752 115.244 189.963 116.156 190.381C117.068 190.799 117.877 191.413 118.525 192.18C119.172 192.946 119.643 193.847 119.902 194.816C120.162 195.785 120.204 196.8 120.026 197.788C119.847 198.776 119.453 199.712 118.872 200.529C118.29 201.347 117.535 202.026 116.66 202.518" stroke="#263238" stroke-width="0.481308" stroke-linecap="round" stroke-linejoin="round"/>
<path d="M112.268 201.193L113.324 196.566L111.851 192.784" stroke="#263238" stroke-width="0.481308" stroke-linecap="round" stroke-linejoin="round"/>
<path d="M23.4009 219.856H217.599" stroke="#263238" stroke-width="0.481308" stroke-linecap="round" stroke-linejoin="round"/>
<path d="M121.935 118.638L118.772 178.864L78.6968 176.761L79.0328 170.377L81.86 116.531L107.094 117.856L121.935 118.638Z" fill="white"/>
<path opacity="0.2" d="M109.426 153.923L100.398 154.667L103.033 166.038L79.0327 170.377L81.8599 116.531L107.094 117.856L109.426 153.923Z" fill="black" fill-opacity="0.7"/>
<path d="M121.935 118.638L118.772 178.864L78.6968 176.761L79.0328 170.377L81.86 116.531L107.094 117.856L121.935 118.638Z" stroke="#263238" stroke-width="0.481308" stroke-linecap="round" stroke-linejoin="round"/>
<path d="M84.6873 120.649L95.1177 121.197" stroke="#263238" stroke-width="0.962615" stroke-linecap="round" stroke-linejoin="round"/>
<path d="M84.5815 122.651L91.6759 123.025" stroke="#263238" stroke-width="0.962615" stroke-linecap="round" stroke-linejoin="round"/>
<path d="M86.876 127.513L116.876 129.088" stroke="#263238" stroke-width="0.962615" stroke-linecap="round" stroke-linejoin="round"/>
<path d="M86.7705 129.515L116.771 131.089" stroke="#263238" stroke-width="0.962615" stroke-linecap="round" stroke-linejoin="round"/>
<path d="M86.6504 131.853L112.234 133.192" stroke="#263238" stroke-width="0.962615" stroke-linecap="round" stroke-linejoin="round"/>
<path d="M86.6608 133.985L86.5325 136.425L88.9723 136.553L89.1006 134.113L86.6608 133.985Z" stroke="#263238" stroke-width="0.481308" stroke-linecap="round" stroke-linejoin="round"/>
<path d="M91.0834 134.219L90.9551 136.659L93.3949 136.787L93.5232 134.347L91.0834 134.219Z" stroke="#263238" stroke-width="0.481308" stroke-linecap="round" stroke-linejoin="round"/>
<path d="M95.5006 134.454L95.3723 136.893L97.8121 137.022L97.9404 134.582L95.5006 134.454Z" stroke="#263238" stroke-width="0.481308" stroke-linecap="round" stroke-linejoin="round"/>
<path d="M99.9227 134.688L99.7944 137.128L102.234 137.256L102.363 134.816L99.9227 134.688Z" stroke="#263238" stroke-width="0.481308" stroke-linecap="round" stroke-linejoin="round"/>
<path d="M85.2776 127.427C85.2745 127.506 85.2558 127.585 85.2225 127.657C85.1892 127.729 85.142 127.794 85.0836 127.848C85.0252 127.902 84.9567 127.944 84.8821 127.971C84.8075 127.999 84.7282 128.011 84.6488 128.008C84.4871 128 84.3353 127.927 84.2269 127.807C84.1184 127.687 84.0621 127.529 84.0704 127.367C84.0787 127.205 84.1508 127.054 84.271 126.945C84.3912 126.837 84.5495 126.78 84.7112 126.789C84.7906 126.792 84.8686 126.812 84.9406 126.846C85.0125 126.879 85.0771 126.927 85.1306 126.986C85.1841 127.045 85.2255 127.114 85.2524 127.189C85.2792 127.263 85.2911 127.343 85.2872 127.422L85.2776 127.427Z" fill="#263238"/>
<path d="M86.2615 139.192L116.261 140.766" stroke="#263238" stroke-width="0.962615" stroke-linecap="round" stroke-linejoin="round"/>
<path d="M86.156 141.193L116.156 142.768" stroke="#263238" stroke-width="0.962615" stroke-linecap="round" stroke-linejoin="round"/>
<path d="M86.0361 143.531L111.62 144.87" stroke="#263238" stroke-width="0.962615" stroke-linecap="round" stroke-linejoin="round"/>
<path d="M86.0411 145.671L85.9128 148.111L88.3527 148.239L88.481 145.799L86.0411 145.671Z" stroke="#263238" stroke-width="0.481308" stroke-linecap="round" stroke-linejoin="round"/>
<path d="M90.4684 145.9L90.3401 148.34L92.7799 148.468L92.9082 146.029L90.4684 145.9Z" stroke="#263238" stroke-width="0.481308" stroke-linecap="round" stroke-linejoin="round"/>
<path d="M94.8856 146.13L94.7573 148.57L97.1972 148.698L97.3254 146.258L94.8856 146.13Z" stroke="#263238" stroke-width="0.481308" stroke-linecap="round" stroke-linejoin="round"/>
<path d="M99.3031 146.364L99.1748 148.804L101.615 148.932L101.743 146.492L99.3031 146.364Z" stroke="#263238" stroke-width="0.481308" stroke-linecap="round" stroke-linejoin="round"/>
<path d="M84.6679 139.106C84.6643 139.186 84.6448 139.264 84.6107 139.337C84.5766 139.409 84.5285 139.474 84.4692 139.528C84.4099 139.582 84.3406 139.624 84.2651 139.651C84.1897 139.678 84.1096 139.69 84.0295 139.686C83.9082 139.68 83.7914 139.639 83.6937 139.567C83.596 139.494 83.522 139.395 83.4808 139.281C83.4397 139.166 83.4334 139.042 83.4627 138.924C83.492 138.807 83.5555 138.7 83.6454 138.618C83.7352 138.537 83.8472 138.483 83.9673 138.465C84.0874 138.447 84.2102 138.465 84.3201 138.516C84.4301 138.568 84.5222 138.651 84.585 138.755C84.6478 138.859 84.6783 138.979 84.6727 139.101L84.6679 139.106Z" fill="#263238"/>
<path d="M85.6521 150.87L115.647 152.445" stroke="#263238" stroke-width="0.962615" stroke-linecap="round" stroke-linejoin="round"/>
<path d="M85.5464 152.872L115.542 154.446" stroke="#263238" stroke-width="0.962615" stroke-linecap="round" stroke-linejoin="round"/>
<path d="M85.4216 155.205L111.006 156.549" stroke="#263238" stroke-width="0.962615" stroke-linecap="round" stroke-linejoin="round"/>
<path d="M85.4315 157.342L85.3032 159.782L87.7431 159.91L87.8713 157.471L85.4315 157.342Z" stroke="#263238" stroke-width="0.481308" stroke-linecap="round" stroke-linejoin="round"/>
<path d="M90.3714 157.562L90.2493 160.007L92.6942 160.129L92.8164 157.684L90.3714 157.562Z" stroke="#263238" stroke-width="0.481909" stroke-linecap="round" stroke-linejoin="round"/>
<path d="M94.2709 157.811L94.1426 160.251L96.5824 160.379L96.7107 157.939L94.2709 157.811Z" stroke="#263238" stroke-width="0.481308" stroke-linecap="round" stroke-linejoin="round"/>
<path d="M98.6981 158.04L98.5698 160.48L101.01 160.608L101.138 158.169L98.6981 158.04Z" stroke="#263238" stroke-width="0.481308" stroke-linecap="round" stroke-linejoin="round"/>
<path d="M84.0536 150.784C84.0499 150.864 84.0304 150.943 83.9963 151.015C83.9622 151.088 83.9141 151.153 83.8548 151.207C83.7955 151.261 83.7262 151.302 83.6507 151.329C83.5753 151.357 83.4953 151.369 83.4152 151.365V151.365C83.2522 151.365 83.096 151.3 82.9807 151.185C82.8655 151.07 82.8008 150.913 82.8008 150.75C82.8008 150.587 82.8655 150.431 82.9807 150.316C83.096 150.201 83.2522 150.136 83.4152 150.136H83.5016C83.5817 150.14 83.6602 150.159 83.7328 150.193C83.8053 150.227 83.8704 150.275 83.9244 150.335C83.9783 150.394 84.0201 150.463 84.0472 150.539C84.0743 150.614 84.0862 150.694 84.0824 150.774L84.0536 150.784Z" fill="#263238"/>
<path d="M85.0186 162.88L115.014 164.459" stroke="#263238" stroke-width="0.962615" stroke-linecap="round" stroke-linejoin="round"/>
<path d="M84.9128 164.881L114.913 166.461" stroke="#263238" stroke-width="0.962615" stroke-linecap="round" stroke-linejoin="round"/>
<path d="M84.793 167.219L110.377 168.563" stroke="#263238" stroke-width="0.962615" stroke-linecap="round" stroke-linejoin="round"/>
<path d="M84.7955 169.358L84.6672 171.798L87.1071 171.926L87.2354 169.486L84.7955 169.358Z" stroke="#263238" stroke-width="0.481308" stroke-linecap="round" stroke-linejoin="round"/>
<path d="M89.2233 169.587L89.095 172.027L91.5348 172.155L91.6631 169.716L89.2233 169.587Z" stroke="#263238" stroke-width="0.481308" stroke-linecap="round" stroke-linejoin="round"/>
<path d="M93.6505 169.817L93.5222 172.257L95.962 172.385L96.0903 169.945L93.6505 169.817Z" stroke="#263238" stroke-width="0.481308" stroke-linecap="round" stroke-linejoin="round"/>
<path d="M98.0677 170.056L97.9395 172.496L100.379 172.624L100.508 170.185L98.0677 170.056Z" stroke="#263238" stroke-width="0.481308" stroke-linecap="round" stroke-linejoin="round"/>
<path d="M83.4201 162.798C83.4133 162.919 83.371 163.034 83.2985 163.13C83.2261 163.227 83.1267 163.299 83.013 163.339C82.8993 163.379 82.7763 163.384 82.6596 163.354C82.5429 163.324 82.4378 163.26 82.3574 163.17C82.277 163.081 82.225 162.969 82.208 162.85C82.191 162.731 82.2097 162.609 82.2618 162.5C82.3139 162.392 82.397 162.301 82.5006 162.239C82.6043 162.178 82.7238 162.149 82.8441 162.155C82.9242 162.159 83.0027 162.179 83.075 162.214C83.1473 162.249 83.2121 162.297 83.2656 162.357C83.3191 162.417 83.3603 162.487 83.3868 162.562C83.4133 162.638 83.4247 162.718 83.4201 162.798V162.798Z" fill="#263238"/>
<path d="M87.4905 135.001L87.8073 135.549L89.1081 134.113" stroke="#263238" stroke-width="0.962615" stroke-linecap="round" stroke-linejoin="round"/>
<path d="M95.7273 146.997L96.0441 147.544L97.3449 146.109" stroke="#263238" stroke-width="0.962615" stroke-linecap="round" stroke-linejoin="round"/>
<path d="M99.8601 159.323L100.177 159.87L101.478 158.43" stroke="#263238" stroke-width="0.962615" stroke-linecap="round" stroke-linejoin="round"/>
<path d="M90.0681 170.325L90.3849 170.867L91.6857 169.432" stroke="#263238" stroke-width="0.962615" stroke-linecap="round" stroke-linejoin="round"/>
<path d="M95.3048 161.819L56.6409 172.566L40.4937 114.453L56.5017 110.003L79.1576 103.71L93.8072 156.433L95.3048 161.819Z" fill="white"/>
<path opacity="0.2" d="M93.8073 156.433L63.9129 158.368L56.5017 110.003L79.1577 103.71L93.8073 156.433Z" fill="black" fill-opacity="0.7"/>
<path d="M95.3048 161.819L56.6409 172.566L40.4937 114.453L56.5017 110.003L79.1576 103.71L93.8072 156.433L95.3048 161.819Z" stroke="#263238" stroke-width="0.481308" stroke-linecap="round" stroke-linejoin="round"/>
<path d="M44.4873 117.457L54.5481 114.664" stroke="#263238" stroke-width="0.962615" stroke-linecap="round" stroke-linejoin="round"/>
<path d="M45.02 119.392L51.8648 117.491" stroke="#263238" stroke-width="0.962615" stroke-linecap="round" stroke-linejoin="round"/>
<path d="M48.74 123.27L77.684 115.23" stroke="#263238" stroke-width="0.962615" stroke-linecap="round" stroke-linejoin="round"/>
<path d="M49.2776 125.2L78.2216 117.16" stroke="#263238" stroke-width="0.962615" stroke-linecap="round" stroke-linejoin="round"/>
<path d="M49.9016 127.456L74.588 120.597" stroke="#263238" stroke-width="0.962615" stroke-linecap="round" stroke-linejoin="round"/>
<path d="M52.9521 128.821L50.5981 129.476L51.2523 131.829L53.6063 131.175L52.9521 128.821Z" stroke="#263238" stroke-width="0.481308" stroke-linecap="round" stroke-linejoin="round"/>
<path d="M57.22 127.631L54.866 128.285L55.5201 130.639L57.8741 129.985L57.22 127.631Z" stroke="#263238" stroke-width="0.481308" stroke-linecap="round" stroke-linejoin="round"/>
<path d="M61.489 126.444L59.135 127.098L59.7892 129.452L62.1432 128.798L61.489 126.444Z" stroke="#263238" stroke-width="0.481308" stroke-linecap="round" stroke-linejoin="round"/>
<path d="M65.7502 125.261L63.3962 125.915L64.0504 128.269L66.4044 127.615L65.7502 125.261Z" stroke="#263238" stroke-width="0.481308" stroke-linecap="round" stroke-linejoin="round"/>
<path d="M47.1992 123.697C47.2425 123.853 47.2221 124.02 47.1424 124.161C47.0627 124.302 46.9304 124.405 46.7744 124.449C46.6185 124.492 46.4517 124.471 46.3108 124.392C46.1699 124.312 46.0665 124.18 46.0232 124.024C45.9799 123.868 46.0004 123.701 46.08 123.56C46.1597 123.419 46.2921 123.316 46.448 123.273C46.604 123.229 46.7707 123.25 46.9116 123.329C47.0525 123.409 47.1559 123.541 47.1992 123.697V123.697Z" fill="#263238"/>
<path d="M51.8696 134.536L80.8136 126.496" stroke="#263238" stroke-width="0.962615" stroke-linecap="round" stroke-linejoin="round"/>
<path d="M52.4072 136.47L81.3512 128.426" stroke="#263238" stroke-width="0.962615" stroke-linecap="round" stroke-linejoin="round"/>
<path d="M53.0361 138.721L77.7177 131.862" stroke="#263238" stroke-width="0.962615" stroke-linecap="round" stroke-linejoin="round"/>
<path d="M56.0842 140.084L53.7302 140.738L54.3844 143.092L56.7384 142.438L56.0842 140.084Z" stroke="#263238" stroke-width="0.481308" stroke-linecap="round" stroke-linejoin="round"/>
<path d="M60.3489 138.9L57.9949 139.554L58.649 141.908L61.003 141.254L60.3489 138.9Z" stroke="#263238" stroke-width="0.481308" stroke-linecap="round" stroke-linejoin="round"/>
<path d="M64.6182 137.714L62.2642 138.369L62.9183 140.723L65.2723 140.068L64.6182 137.714Z" stroke="#263238" stroke-width="0.481308" stroke-linecap="round" stroke-linejoin="round"/>
<path d="M68.8906 136.523L66.5366 137.177L67.1908 139.531L69.5448 138.877L68.8906 136.523Z" stroke="#263238" stroke-width="0.481308" stroke-linecap="round" stroke-linejoin="round"/>
<path d="M50.3336 134.968C50.3661 135.085 50.3632 135.209 50.3252 135.324C50.2872 135.439 50.216 135.541 50.1203 135.616C50.0247 135.691 49.9091 135.736 49.788 135.745C49.6669 135.754 49.5459 135.727 49.4401 135.667C49.3343 135.608 49.2485 135.518 49.1936 135.41C49.1387 135.302 49.1171 135.179 49.1316 135.059C49.146 134.938 49.1959 134.825 49.2749 134.732C49.3538 134.64 49.4583 134.573 49.5752 134.541C49.6525 134.519 49.7332 134.512 49.813 134.522C49.8927 134.531 49.9698 134.556 50.0398 134.595C50.1098 134.635 50.1714 134.687 50.221 134.75C50.2706 134.813 50.3072 134.886 50.3288 134.963L50.3336 134.968Z" fill="#263238"/>
<path d="M55.0042 145.806L83.9434 137.761" stroke="#263238" stroke-width="0.962615" stroke-linecap="round" stroke-linejoin="round"/>
<path d="M55.5417 147.736L84.4809 139.696" stroke="#263238" stroke-width="0.962615" stroke-linecap="round" stroke-linejoin="round"/>
<path d="M56.1655 149.992L80.8519 143.133" stroke="#263238" stroke-width="0.962615" stroke-linecap="round" stroke-linejoin="round"/>
<path d="M59.2122 151.35L56.8582 152.004L57.5123 154.358L59.8663 153.704L59.2122 151.35Z" stroke="#263238" stroke-width="0.481308" stroke-linecap="round" stroke-linejoin="round"/>
<path d="M63.4858 150.163L61.1318 150.817L61.786 153.171L64.14 152.517L63.4858 150.163Z" stroke="#263238" stroke-width="0.481308" stroke-linecap="round" stroke-linejoin="round"/>
<path d="M67.7456 148.979L65.3916 149.633L66.0458 151.987L68.3997 151.333L67.7456 148.979Z" stroke="#263238" stroke-width="0.481308" stroke-linecap="round" stroke-linejoin="round"/>
<path d="M72.0149 147.793L69.6609 148.447L70.315 150.801L72.669 150.147L72.0149 147.793Z" stroke="#263238" stroke-width="0.481308" stroke-linecap="round" stroke-linejoin="round"/>
<path d="M53.4633 146.233C53.4957 146.35 53.4928 146.474 53.4548 146.59C53.4169 146.705 53.3456 146.807 53.25 146.882C53.1544 146.956 53.0387 147.001 52.9176 147.01C52.7966 147.02 52.6755 146.993 52.5697 146.933C52.4639 146.873 52.3781 146.784 52.3232 146.676C52.2683 146.567 52.2467 146.445 52.2612 146.325C52.2757 146.204 52.3255 146.09 52.4045 145.998C52.4835 145.906 52.588 145.839 52.7049 145.806V145.806C52.7821 145.784 52.8629 145.778 52.9426 145.787C53.0223 145.797 53.0994 145.822 53.1694 145.861C53.2394 145.9 53.301 145.953 53.3506 146.016C53.4002 146.079 53.4369 146.151 53.4585 146.229L53.4633 146.233Z" fill="#263238"/>
<path d="M58.2249 157.393L87.164 149.353" stroke="#263238" stroke-width="0.962615" stroke-linecap="round" stroke-linejoin="round"/>
<path d="M58.7576 159.328L87.7016 151.283" stroke="#263238" stroke-width="0.962615" stroke-linecap="round" stroke-linejoin="round"/>
<path d="M59.3865 161.579L84.0729 154.72" stroke="#263238" stroke-width="0.962615" stroke-linecap="round" stroke-linejoin="round"/>
<path d="M62.4333 162.943L60.0793 163.597L60.7335 165.951L63.0875 165.297L62.4333 162.943Z" stroke="#263238" stroke-width="0.481308" stroke-linecap="round" stroke-linejoin="round"/>
<path d="M66.7024 161.756L64.3484 162.41L65.0025 164.764L67.3565 164.11L66.7024 161.756Z" stroke="#263238" stroke-width="0.481308" stroke-linecap="round" stroke-linejoin="round"/>
<path d="M70.9717 160.57L68.6177 161.224L69.2718 163.578L71.6258 162.924L70.9717 160.57Z" stroke="#263238" stroke-width="0.481308" stroke-linecap="round" stroke-linejoin="round"/>
<path d="M75.2361 159.386L72.8821 160.04L73.5362 162.394L75.8902 161.74L75.2361 159.386Z" stroke="#263238" stroke-width="0.481308" stroke-linecap="round" stroke-linejoin="round"/>
<path d="M56.684 157.821C56.7292 157.977 56.7103 158.145 56.6315 158.288C56.5528 158.431 56.4206 158.536 56.264 158.581C56.1074 158.627 55.9393 158.608 55.7966 158.529C55.6539 158.45 55.5484 158.318 55.5032 158.161C55.4586 158.004 55.4781 157.836 55.5572 157.693C55.6363 157.55 55.7687 157.444 55.9256 157.398V157.398C56.0809 157.355 56.2469 157.375 56.3878 157.453C56.5288 157.531 56.6334 157.661 56.6792 157.816L56.684 157.821Z" fill="#263238"/>
<path d="M55.7192 129.054L56.1944 129.472L56.972 127.696" stroke="#263238" stroke-width="0.962615" stroke-linecap="round" stroke-linejoin="round"/>
<path d="M54.5625 141.625L55.0377 142.043L55.8105 140.267" stroke="#263238" stroke-width="0.962615" stroke-linecap="round" stroke-linejoin="round"/>
<path d="M57.6921 152.776L58.1673 153.193L58.9401 151.417" stroke="#263238" stroke-width="0.962615" stroke-linecap="round" stroke-linejoin="round"/>
<path d="M69.4375 161.91L69.9127 162.328L70.6903 160.552" stroke="#263238" stroke-width="0.962615" stroke-linecap="round" stroke-linejoin="round"/>
<path d="M99.0804 90.2859L59.1365 94.1251L64.9066 154.16L104.851 150.321L99.0804 90.2859Z" fill="white" stroke="#263238" stroke-width="0.481308" stroke-linecap="round" stroke-linejoin="round"/>
<path d="M62.54 97.7871L72.9368 96.7887" stroke="#263238" stroke-width="0.962615" stroke-linecap="round" stroke-linejoin="round"/>
<path d="M62.7319 99.7838L69.8023 99.1022" stroke="#263238" stroke-width="0.962615" stroke-linecap="round" stroke-linejoin="round"/>
<path d="M65.7175 104.253L95.6167 101.377" stroke="#263238" stroke-width="0.962615" stroke-linecap="round" stroke-linejoin="round"/>
<path d="M65.9097 106.245L95.8089 103.374" stroke="#263238" stroke-width="0.962615" stroke-linecap="round" stroke-linejoin="round"/>
<path d="M66.1353 108.573L91.6376 106.125" stroke="#263238" stroke-width="0.962615" stroke-linecap="round" stroke-linejoin="round"/>
<path d="M68.9034 110.445L66.4714 110.679L66.7052 113.111L69.1372 112.877L68.9034 110.445Z" stroke="#263238" stroke-width="0.481308" stroke-linecap="round" stroke-linejoin="round"/>
<path d="M73.3116 110.02L70.8796 110.254L71.1134 112.686L73.5454 112.452L73.3116 110.02Z" stroke="#263238" stroke-width="0.481308" stroke-linecap="round" stroke-linejoin="round"/>
<path d="M77.7196 109.6L75.2876 109.834L75.5213 112.266L77.9533 112.032L77.7196 109.6Z" stroke="#263238" stroke-width="0.481308" stroke-linecap="round" stroke-linejoin="round"/>
<path d="M82.1273 109.171L79.6953 109.405L79.9291 111.837L82.361 111.603L82.1273 109.171Z" stroke="#263238" stroke-width="0.481308" stroke-linecap="round" stroke-linejoin="round"/>
<path d="M64.1287 104.406C64.1405 104.527 64.1161 104.649 64.0588 104.756C64.0014 104.863 63.9136 104.951 63.8064 105.008C63.6992 105.065 63.5775 105.089 63.4566 105.077C63.3357 105.065 63.2211 105.018 63.1272 104.94C63.0334 104.863 62.9645 104.76 62.9292 104.644C62.894 104.528 62.894 104.404 62.9293 104.287C62.9646 104.171 63.0335 104.068 63.1274 103.991C63.2212 103.914 63.3359 103.866 63.4568 103.854C63.5365 103.846 63.617 103.854 63.6938 103.877C63.7705 103.901 63.8418 103.939 63.9038 103.99C63.9658 104.04 64.0171 104.103 64.0549 104.174C64.0927 104.244 64.1161 104.322 64.1239 104.402L64.1287 104.406Z" fill="#263238"/>
<path d="M66.8362 115.893L96.7354 113.022" stroke="#263238" stroke-width="0.962615" stroke-linecap="round" stroke-linejoin="round"/>
<path d="M67.0281 117.889L96.9273 115.014" stroke="#263238" stroke-width="0.962615" stroke-linecap="round" stroke-linejoin="round"/>
<path d="M67.2537 120.217L92.7561 117.765" stroke="#263238" stroke-width="0.962615" stroke-linecap="round" stroke-linejoin="round"/>
<path d="M70.0216 122.083L67.5896 122.317L67.8233 124.749L70.2553 124.515L70.0216 122.083Z" stroke="#263238" stroke-width="0.481308" stroke-linecap="round" stroke-linejoin="round"/>
<path d="M74.4295 121.663L71.9976 121.896L72.2313 124.329L74.6633 124.095L74.4295 121.663Z" stroke="#263238" stroke-width="0.481308" stroke-linecap="round" stroke-linejoin="round"/>
<path d="M78.8378 121.238L76.4058 121.472L76.6395 123.904L79.0715 123.67L78.8378 121.238Z" stroke="#263238" stroke-width="0.481308" stroke-linecap="round" stroke-linejoin="round"/>
<path d="M83.2464 120.823L80.8145 121.057L81.0482 123.489L83.4802 123.255L83.2464 120.823Z" stroke="#263238" stroke-width="0.481308" stroke-linecap="round" stroke-linejoin="round"/>
<path d="M65.2472 116.046C65.2589 116.167 65.2346 116.289 65.1772 116.396C65.1198 116.503 65.032 116.59 64.9248 116.648C64.8176 116.705 64.6959 116.729 64.575 116.717C64.4541 116.705 64.3395 116.657 64.2457 116.58C64.1518 116.503 64.0829 116.4 64.0477 116.284C64.0124 116.167 64.0124 116.043 64.0477 115.927C64.083 115.811 64.1519 115.708 64.2458 115.631C64.3397 115.554 64.4543 115.506 64.5752 115.494C64.6555 115.486 64.7367 115.494 64.814 115.518C64.8913 115.541 64.9632 115.579 65.0256 115.631C65.088 115.682 65.1397 115.745 65.1777 115.816C65.2158 115.888 65.2394 115.966 65.2472 116.046Z" fill="#263238"/>
<path d="M67.9543 127.533L97.8536 124.662" stroke="#263238" stroke-width="0.962615" stroke-linecap="round" stroke-linejoin="round"/>
<path d="M68.1465 129.529L98.0457 126.654" stroke="#263238" stroke-width="0.962615" stroke-linecap="round" stroke-linejoin="round"/>
<path d="M68.3721 131.857L93.8745 129.405" stroke="#263238" stroke-width="0.962615" stroke-linecap="round" stroke-linejoin="round"/>
<path d="M71.1395 133.726L68.7075 133.959L68.9413 136.391L71.3733 136.158L71.1395 133.726Z" stroke="#263238" stroke-width="0.481308" stroke-linecap="round" stroke-linejoin="round"/>
<path d="M75.5477 133.301L73.1157 133.535L73.3495 135.967L75.7815 135.733L75.5477 133.301Z" stroke="#263238" stroke-width="0.481308" stroke-linecap="round" stroke-linejoin="round"/>
<path d="M79.9559 132.881L77.5239 133.115L77.7577 135.547L80.1897 135.313L79.9559 132.881Z" stroke="#263238" stroke-width="0.481308" stroke-linecap="round" stroke-linejoin="round"/>
<path d="M84.3641 132.457L81.9321 132.69L82.1659 135.122L84.5979 134.889L84.3641 132.457Z" stroke="#263238" stroke-width="0.481308" stroke-linecap="round" stroke-linejoin="round"/>
<path d="M66.3608 127.686C66.3717 127.806 66.3467 127.927 66.2891 128.033C66.2314 128.139 66.1437 128.225 66.0369 128.281C65.9302 128.337 65.8092 128.36 65.6893 128.347C65.5694 128.335 65.456 128.287 65.3634 128.21C65.2708 128.132 65.2031 128.029 65.169 127.914C65.1349 127.798 65.1358 127.675 65.1716 127.56C65.2075 127.445 65.2767 127.343 65.3704 127.267C65.4642 127.191 65.5783 127.145 65.6984 127.134C65.7781 127.127 65.8585 127.135 65.9349 127.159C66.0114 127.183 66.0824 127.222 66.1439 127.273C66.2054 127.324 66.2562 127.387 66.2934 127.458C66.3306 127.529 66.3535 127.606 66.3608 127.686V127.686Z" fill="#263238"/>
<path d="M69.1064 139.509L99.0056 136.633" stroke="#263238" stroke-width="0.962615" stroke-linecap="round" stroke-linejoin="round"/>
<path d="M69.2983 141.501L99.1975 138.63" stroke="#263238" stroke-width="0.962615" stroke-linecap="round" stroke-linejoin="round"/>
<path d="M69.5193 143.829L95.0217 141.381" stroke="#263238" stroke-width="0.962615" stroke-linecap="round" stroke-linejoin="round"/>
<path d="M72.2897 145.7L69.8577 145.933L70.0914 148.365L72.5234 148.132L72.2897 145.7Z" stroke="#263238" stroke-width="0.481308" stroke-linecap="round" stroke-linejoin="round"/>
<path d="M76.7025 145.28L74.2705 145.513L74.5043 147.945L76.9363 147.712L76.7025 145.28Z" stroke="#263238" stroke-width="0.481308" stroke-linecap="round" stroke-linejoin="round"/>
<path d="M81.1056 144.851L78.6736 145.085L78.9073 147.517L81.3393 147.283L81.1056 144.851Z" stroke="#263238" stroke-width="0.481308" stroke-linecap="round" stroke-linejoin="round"/>
<path d="M85.5138 144.426L83.0818 144.66L83.3155 147.092L85.7475 146.858L85.5138 144.426Z" stroke="#263238" stroke-width="0.481308" stroke-linecap="round" stroke-linejoin="round"/>
<path d="M67.5127 139.657C67.5256 139.779 67.502 139.901 67.4452 140.009C67.3883 140.117 67.3007 140.205 67.1934 140.263C67.0861 140.321 66.9641 140.345 66.8428 140.334C66.7215 140.322 66.6064 140.274 66.5121 140.197C66.4179 140.12 66.3488 140.016 66.3136 139.9C66.2783 139.783 66.2786 139.658 66.3144 139.542C66.3501 139.425 66.4197 139.322 66.5143 139.245C66.6089 139.168 66.7242 139.121 66.8455 139.11C66.9253 139.102 67.0058 139.11 67.0825 139.133C67.1593 139.157 67.2307 139.195 67.2926 139.246C67.3546 139.296 67.4059 139.359 67.4437 139.43C67.4815 139.5 67.5049 139.578 67.5127 139.657V139.657Z" fill="#263238"/>
<path d="M67.4312 111.568L67.8247 112.062L68.8999 110.449" stroke="#263238" stroke-width="0.962615" stroke-linecap="round" stroke-linejoin="round"/>
<path d="M77.3528 122.214L77.7464 122.709L78.8168 121.096" stroke="#263238" stroke-width="0.962615" stroke-linecap="round" stroke-linejoin="round"/>
<path d="M74.084 134.521L74.4776 135.016L75.5528 133.403" stroke="#263238" stroke-width="0.962615" stroke-linecap="round" stroke-linejoin="round"/>
<path d="M83.9863 145.557L84.3799 146.051L85.4551 144.438" stroke="#263238" stroke-width="0.962615" stroke-linecap="round" stroke-linejoin="round"/>
<path d="M147.932 66.6207H123.13C122.254 66.6207 121.414 66.9687 120.795 67.588C120.176 68.2073 119.828 69.0473 119.828 69.9231V69.9231V91.2399C119.828 92.1158 120.176 92.9558 120.795 93.5751C121.414 94.1944 122.254 94.5423 123.13 94.5423H134.122L140.42 102.131L138.841 94.5423H147.932C148.805 94.5385 149.642 94.1889 150.258 93.57C150.874 92.9511 151.22 92.1133 151.22 91.2399V69.9231C151.22 69.0498 150.874 68.212 150.258 67.5931C149.642 66.9741 148.805 66.6245 147.932 66.6207Z" fill="white" stroke="#263238" stroke-width="0.481308" stroke-linecap="round" stroke-linejoin="round"/>
<path d="M137.516 78.3134V76.0574L135.826 75.9134C135.725 75.5613 135.585 75.2215 135.409 74.9006L136.498 73.6046L134.9 72.011L133.604 73.1006C133.284 72.9211 132.944 72.7809 132.591 72.683L132.447 70.9934H130.191L130.047 72.683C129.694 72.7809 129.354 72.9211 129.034 73.1006L127.738 72.011L126.14 73.6046L127.22 74.9198C127.041 75.2402 126.899 75.58 126.798 75.9326L125.108 76.0766V78.3326L126.798 78.4814C126.899 78.8341 127.041 79.1739 127.22 79.4942L126.126 80.7902L127.724 82.3838L129.02 81.2942C129.339 81.4737 129.68 81.6139 130.033 81.7118L130.177 83.4014H132.433L132.577 81.7118C132.93 81.6139 133.27 81.4737 133.59 81.2942L134.886 82.3838L136.484 80.7902L135.394 79.4942C135.571 79.1733 135.711 78.8336 135.812 78.4814L137.516 78.3134ZM131.319 79.811C130.8 79.812 130.292 79.6589 129.86 79.3712C129.427 79.0835 129.09 78.674 128.89 78.1946C128.691 77.7152 128.638 77.1874 128.738 76.6779C128.839 76.1684 129.088 75.7001 129.454 75.3322C129.821 74.9644 130.288 74.7135 130.797 74.6112C131.307 74.509 131.835 74.56 132.315 74.7579C132.795 74.9557 133.205 75.2915 133.495 75.7227C133.784 76.154 133.939 76.6613 133.94 77.1806V77.1806C133.941 77.525 133.874 77.8662 133.744 78.1847C133.613 78.5032 133.42 78.7927 133.177 79.0366C132.934 79.2806 132.645 79.4741 132.327 79.6062C132.009 79.7382 131.668 79.8062 131.324 79.8062L131.319 79.811Z" fill="#1C2560"/>
<path d="M144.98 83.3486V81.7454L143.775 81.6398C143.705 81.3888 143.605 81.147 143.478 80.9198L144.255 79.9982L143.122 78.8654L142.196 79.6382C141.968 79.5125 141.726 79.4127 141.476 79.3406L141.375 78.1406H139.767L139.666 79.3406C139.414 79.4127 139.171 79.5125 138.942 79.6382L138.02 78.8654L136.887 79.9982L137.66 80.9198C137.534 81.1472 137.436 81.3889 137.367 81.6398L136.162 81.7454V83.3486L137.367 83.4542C137.436 83.7051 137.534 83.9468 137.66 84.1742L136.887 85.0958L138.02 86.2334L138.942 85.4558C139.169 85.5856 139.413 85.6856 139.666 85.7534L139.767 86.9582H141.375L141.476 85.7534C141.728 85.6855 141.97 85.5855 142.196 85.4558L143.122 86.2334L144.255 85.0958L143.478 84.1742C143.607 83.948 143.707 83.706 143.775 83.4542L144.98 83.3486ZM140.569 84.4142C140.199 84.4142 139.838 84.3047 139.531 84.0995C139.224 83.8944 138.985 83.6028 138.844 83.2616C138.702 82.9204 138.665 82.545 138.737 82.1828C138.809 81.8206 138.987 81.4878 139.248 81.2267C139.51 80.9656 139.842 80.7878 140.204 80.7157C140.567 80.6437 140.942 80.6806 141.283 80.822C141.624 80.9633 141.916 81.2026 142.121 81.5097C142.326 81.8167 142.436 82.1777 142.436 82.547C142.436 83.0422 142.239 83.5172 141.889 83.8673C141.539 84.2175 141.064 84.4142 140.569 84.4142V84.4142Z" fill="#1C2560"/>
<path d="M137.127 87.0878V85.9598L136.268 85.883C136.219 85.7038 136.148 85.5313 136.057 85.3694L136.609 84.7166L135.802 83.9054L135.145 84.4574C134.983 84.3703 134.812 84.2996 134.636 84.2462L134.559 83.3918H133.417L133.345 84.2462C133.166 84.2974 132.994 84.3683 132.831 84.4574L132.174 83.9054L131.367 84.7166L131.919 85.3694C131.83 85.5323 131.759 85.7045 131.708 85.883L130.854 85.9598V87.0974L131.708 87.1742C131.759 87.3527 131.83 87.5249 131.919 87.6878L131.367 88.3598L132.174 89.171L132.831 88.619C132.995 88.7061 133.167 88.7769 133.345 88.8302L133.417 89.6846H134.559L134.636 88.8302C134.812 88.7769 134.983 88.7061 135.145 88.619L135.802 89.171L136.609 88.3598L136.057 87.707C136.148 87.5451 136.219 87.3726 136.268 87.1934L137.127 87.0878ZM133.988 87.8462C133.725 87.8462 133.468 87.7682 133.249 87.6221C133.031 87.476 132.86 87.2684 132.76 87.0254C132.659 86.7825 132.633 86.5151 132.684 86.2572C132.735 85.9993 132.862 85.7624 133.048 85.5764C133.234 85.3905 133.471 85.2639 133.729 85.2126C133.986 85.1613 134.254 85.1876 134.497 85.2882C134.74 85.3889 134.947 85.5593 135.093 85.7779C135.24 85.9966 135.318 86.2536 135.318 86.5166V86.5166C135.316 86.8684 135.176 87.2054 134.926 87.4537C134.677 87.702 134.34 87.8414 133.988 87.8414V87.8462Z" fill="#1C2560"/>
<path d="M134.866 148.538L154.201 219.856H157.09L137.761 148.538H134.866Z" fill="#757575" stroke="#263238" stroke-width="0.481308" stroke-linecap="round" stroke-linejoin="round"/>
<path d="M178.412 199.638H141.764V202.624H178.412V199.638Z" fill="#999999" stroke="#263238" stroke-width="0.481308" stroke-linecap="round" stroke-linejoin="round"/>
<path d="M197.963 132.52L174.284 219.88H171.404L195.078 132.52C195.951 129.299 193.95 126.678 190.614 126.678H170.214C166.883 126.678 163.455 129.299 162.582 132.52L138.899 219.88H136.019L159.697 132.52C160.988 127.753 166.038 123.88 170.972 123.88H191.377C196.297 123.88 199.254 127.749 197.963 132.52Z" fill="#757575" stroke="#263238" stroke-width="0.481308" stroke-linecap="round" stroke-linejoin="round"/>
<path d="M198.337 132.544L192.462 154.23C192.179 155.143 191.619 155.946 190.861 156.528C190.103 157.11 189.183 157.442 188.228 157.48H154.705C154.301 157.512 153.895 157.442 153.525 157.276C153.154 157.111 152.831 156.856 152.585 156.534C152.339 156.211 152.177 155.833 152.115 155.432C152.052 155.031 152.091 154.622 152.228 154.24L158.108 132.553C158.393 131.643 158.953 130.843 159.711 130.262C160.469 129.682 161.388 129.351 162.342 129.313H195.86C196.18 129.291 196.501 129.331 196.805 129.432C197.109 129.533 197.39 129.694 197.632 129.904C197.874 130.114 198.072 130.369 198.215 130.656C198.359 130.943 198.444 131.255 198.466 131.574C198.488 131.903 198.444 132.233 198.337 132.544V132.544Z" fill="#1C2560"/>
<path opacity="0.2" d="M198.337 132.544L192.462 154.23C192.179 155.143 191.619 155.946 190.861 156.528C190.103 157.11 189.183 157.442 188.228 157.48H154.705C154.301 157.512 153.895 157.442 153.525 157.276C153.154 157.111 152.831 156.856 152.585 156.534C152.339 156.211 152.177 155.833 152.115 155.432C152.052 155.032 152.091 154.622 152.228 154.24L158.108 132.554C158.393 131.643 158.953 130.843 159.711 130.263C160.469 129.683 161.388 129.351 162.342 129.314H179.674C187.167 136.994 186.212 151.149 185.722 155.421C186.504 155.232 187.225 154.845 187.813 154.297C188.402 153.749 188.839 153.058 189.082 152.291L194.948 130.6C195.068 130.18 195.092 129.739 195.02 129.309H195.86C196.263 129.28 196.667 129.351 197.035 129.517C197.404 129.683 197.725 129.938 197.971 130.259C198.216 130.579 198.378 130.956 198.442 131.355C198.506 131.754 198.47 132.162 198.337 132.544V132.544Z" fill="black" fill-opacity="0.7"/>
<path d="M198.337 132.544L192.462 154.23C192.179 155.143 191.619 155.946 190.861 156.528C190.103 157.11 189.183 157.442 188.228 157.48H154.705C154.301 157.512 153.895 157.442 153.525 157.276C153.154 157.111 152.831 156.856 152.585 156.534C152.339 156.211 152.177 155.833 152.115 155.432C152.052 155.031 152.091 154.622 152.228 154.24L158.108 132.553C158.393 131.643 158.953 130.843 159.711 130.262C160.469 129.682 161.388 129.351 162.342 129.313H195.86C196.18 129.291 196.501 129.331 196.805 129.432C197.109 129.533 197.39 129.694 197.632 129.904C197.874 130.114 198.072 130.369 198.215 130.656C198.359 130.943 198.444 131.255 198.466 131.574C198.488 131.903 198.444 132.233 198.337 132.544V132.544Z" stroke="#263238" stroke-width="0.481308" stroke-linecap="round" stroke-linejoin="round"/>
<path d="M178.628 179.421L189.591 219.856H192.481L181.523 179.421H178.628Z" fill="#757575" stroke="#263238" stroke-width="0.481308" stroke-linecap="round" stroke-linejoin="round"/>
<path d="M181.532 174.76V178.715H138.37V174.76C138.37 173.988 138.677 173.249 139.222 172.703C139.768 172.158 140.508 171.851 141.279 171.851H178.618C179.001 171.85 179.38 171.924 179.734 172.07C180.087 172.216 180.409 172.43 180.68 172.7C180.95 172.97 181.165 173.291 181.311 173.645C181.458 173.998 181.533 174.377 181.532 174.76V174.76Z" fill="#1C2560"/>
<path opacity="0.2" d="M181.431 174.016C180.034 175.658 177.529 177.328 173.218 178.734H138.37V174.76C138.37 173.988 138.677 173.249 139.222 172.703C139.768 172.158 140.508 171.851 141.279 171.851H178.618C179.26 171.852 179.884 172.064 180.392 172.456C180.901 172.847 181.266 173.396 181.431 174.016V174.016Z" fill="black" fill-opacity="0.7"/>
<path d="M181.532 174.76V178.715H138.37V174.76C138.37 173.988 138.677 173.249 139.222 172.703C139.768 172.158 140.508 171.851 141.279 171.851H178.618C179.001 171.85 179.38 171.924 179.734 172.07C180.087 172.216 180.409 172.43 180.68 172.7C180.95 172.97 181.165 173.291 181.311 173.645C181.458 173.998 181.533 174.377 181.532 174.76V174.76Z" stroke="#263238" stroke-width="0.481308" stroke-linecap="round" stroke-linejoin="round"/>
<path d="M182.996 177.52H137.281C136.827 177.52 136.46 177.887 136.46 178.341V180.41C136.46 180.863 136.827 181.23 137.281 181.23H182.996C183.449 181.23 183.817 180.863 183.817 180.41V178.341C183.817 177.887 183.449 177.52 182.996 177.52Z" fill="#999999" stroke="#263238" stroke-width="0.481308" stroke-linecap="round" stroke-linejoin="round"/>
<path d="M136.969 177.64C134.9 179.747 144.927 212.857 144.927 212.857C143.833 213.817 142.22 214.259 140.694 214.461C139.29 214.635 137.873 214.656 136.465 214.523C136.465 214.523 122.094 179.665 126.049 171.016C130.004 162.366 154.546 158.44 154.546 158.44L155.593 155.848L168.289 154.062L170.386 169.609C170.386 169.609 168.303 169.811 165.169 170.214C156.764 171.28 140.77 173.8 136.969 177.64Z" fill="#263238"/>
<path opacity="0.3" d="M144.927 212.877C143.833 213.837 142.22 214.278 140.694 214.48C137.905 204.112 130.806 176.445 133.494 173.061C136.811 168.885 153.227 165.088 153.227 165.088C153.294 162.957 159.049 161.037 159.049 161.037L165.164 170.2C156.759 171.28 140.766 173.8 136.964 177.64C134.9 179.766 144.927 212.877 144.927 212.877Z" fill="black"/>
<path d="M136.969 177.64C134.9 179.747 144.927 212.857 144.927 212.857C143.833 213.817 142.22 214.259 140.694 214.461C139.29 214.635 137.873 214.656 136.465 214.523C136.465 214.523 122.094 179.665 126.049 171.016C130.004 162.366 154.546 158.44 154.546 158.44L155.593 155.848L168.289 154.062L170.386 169.609C170.386 169.609 168.303 169.811 165.169 170.214C156.764 171.28 140.77 173.8 136.969 177.64Z" stroke="#263238" stroke-width="0.481308" stroke-linecap="round" stroke-linejoin="round"/>
<path d="M129.865 146.301C127.758 145.941 142.758 132.789 142.758 132.789L149.991 137.656C149.991 137.656 137.684 146.325 135.75 146.56C133.815 146.795 129.865 146.301 129.865 146.301Z" fill="white"/>
<path opacity="0.2" d="M129.865 146.301C127.758 145.941 142.758 132.789 142.758 132.789L149.991 137.656C149.991 137.656 137.684 146.325 135.75 146.56C133.815 146.795 129.865 146.301 129.865 146.301Z" fill="black" fill-opacity="0.7"/>
<path d="M129.865 146.301C127.758 145.941 142.758 132.789 142.758 132.789L149.991 137.656C149.991 137.656 137.684 146.325 135.75 146.56C133.815 146.795 129.865 146.301 129.865 146.301Z" stroke="#263238" stroke-width="0.481308" stroke-linecap="round" stroke-linejoin="round"/>
<path d="M132.5 140.771C132.5 140.771 135.644 141.553 136.609 142.211C137.574 142.869 137.295 145.245 137.295 145.245C137.295 145.245 133.105 144.064 132.5 140.771Z" fill="white" stroke="#263238" stroke-width="0.481308" stroke-linecap="round" stroke-linejoin="round"/>
<path d="M130.494 134.747L136.34 145.96H137.031L131.478 134.195L130.494 134.747Z" fill="#263238"/>
<path d="M135.764 142.854C135.764 142.854 132.078 140.234 131.175 140.234C130.273 140.234 127.571 143.426 127.571 145.034C127.571 146.642 133.465 147.52 134.617 146.162C135.193 145.485 134.051 143.853 134.051 143.853C134.737 144.583 135.473 145.265 136.254 145.893C136.734 146.162 137.651 145.811 137.651 145.811C137.651 145.811 136.422 143.843 135.764 142.854Z" fill="white" stroke="#263238" stroke-width="0.481308" stroke-linecap="round" stroke-linejoin="round"/>
<path d="M134.05 146.531C133.2 145.452 132.157 144.54 130.974 143.843" stroke="#263238" stroke-width="0.481308" stroke-linecap="round" stroke-linejoin="round"/>
<path d="M134.05 143.843C134.05 143.843 132.774 142.729 131.914 142.485" stroke="#263238" stroke-width="0.481308" stroke-linecap="round" stroke-linejoin="round"/>
<path d="M130.033 145.259C130.925 145.717 131.786 146.233 132.61 146.805" stroke="#263238" stroke-width="0.481308" stroke-linecap="round" stroke-linejoin="round"/>
<path d="M147.457 127.038C145.57 128.353 137.098 137.065 137.098 137.065C137.098 137.065 141.068 141.582 144.548 142.235L153.98 137.656L147.457 127.038Z" fill="#1C2560" stroke="#263238" stroke-width="0.481308" stroke-linecap="round" stroke-linejoin="round"/>
<path opacity="0.4" d="M147.457 127.038C145.57 128.353 137.098 137.065 137.098 137.065C137.098 137.065 141.068 141.582 144.548 142.235L153.98 137.656L147.457 127.038Z" fill="white" stroke="#263238" stroke-width="0.481308" stroke-linecap="round" stroke-linejoin="round"/>
<path d="M142.902 209.363L146.9 219.88C146.9 219.88 147.562 222.582 135.505 221.728L128.862 221.162L142.902 209.363Z" fill="#1C2560"/>
<path opacity="0.3" d="M142.902 209.363L146.9 219.88C146.9 219.88 147.562 222.582 135.505 221.728L128.862 221.162L142.902 209.363Z" fill="black"/>
<path d="M142.902 209.363L146.9 219.88C146.9 219.88 147.562 222.582 135.505 221.728L128.862 221.162L142.902 209.363Z" stroke="#263238" stroke-width="0.481308" stroke-linecap="round" stroke-linejoin="round"/>
<path d="M141.385 214.393C141.385 214.393 142.239 218.478 141.385 221.517C141.385 221.517 128.66 223.509 125.814 222.75C122.967 221.992 121.239 220.571 121.153 219.87C121.153 219.87 121.254 217.921 124.105 217.35C126.956 216.779 132.625 216.39 134.866 213.174C137.108 209.958 141.385 214.393 141.385 214.393Z" fill="#1C2560" stroke="#263238" stroke-width="0.481308" stroke-linecap="round" stroke-linejoin="round"/>
<path d="M158.175 155.425C162.241 149.627 180.932 156.606 180.932 156.606C180.932 156.606 182.713 170.565 175.268 174.289C167.823 178.014 157.09 177.813 154.191 180.832L142.393 215.67C142.393 215.67 138.154 217.441 131.991 214.653C131.991 214.653 139.484 188.344 141.682 179.003C143.857 169.758 157.935 163.485 157.935 163.485C157.21 162.628 156.66 161.636 156.318 160.566" fill="#263238"/>
<path d="M158.175 155.425C162.241 149.627 180.932 156.606 180.932 156.606C180.932 156.606 182.713 170.565 175.268 174.289C167.823 178.014 157.09 177.813 154.191 180.832L142.393 215.67C142.393 215.67 138.154 217.441 131.991 214.653C131.991 214.653 139.484 188.344 141.682 179.003C143.857 169.758 157.935 163.485 157.935 163.485C157.21 162.628 156.66 161.636 156.318 160.566" stroke="#263238" stroke-width="0.481308" stroke-linecap="round" stroke-linejoin="round"/>
<path d="M177.097 168.77C176.5 169.298 175.874 169.792 175.22 170.248" stroke="white" stroke-width="0.481308" stroke-linecap="round" stroke-linejoin="round"/>
<path d="M178.628 156.947C180.154 160.259 180.274 164.464 178.148 167.531" stroke="white" stroke-width="0.481308" stroke-linecap="round" stroke-linejoin="round"/>
<path d="M174.37 157.48C174.37 157.48 173.982 160.034 175.119 161.046C176.257 162.059 179.746 162.573 179.746 162.573" stroke="white" stroke-width="0.481308" stroke-linecap="round" stroke-linejoin="round"/>
<path d="M159.049 157.595C159.049 157.595 159.207 160.139 158.175 160.019C157.143 159.899 157.091 161.037 157.091 161.037" stroke="white" stroke-width="0.481308" stroke-linecap="round" stroke-linejoin="round"/>
<path d="M147.706 128.997C147.549 128.355 147.465 127.698 147.457 127.038C147.457 127.038 153.217 122.181 160.633 122.209C169.465 122.238 174.865 125.017 177.025 128.877C180.452 134.982 180.932 156.606 180.932 156.606C180.932 156.606 158.77 160.024 155.593 155.833C155.041 155.104 155.463 149.953 155.463 149.953C155.463 149.953 152.982 143.445 152.458 138.395C151.729 137.39 151.052 136.349 150.428 135.275C149.639 133.953 148.955 132.571 148.383 131.142" fill="#1C2560"/>
<path d="M147.706 128.997C147.549 128.355 147.465 127.698 147.457 127.038C147.457 127.038 153.217 122.181 160.633 122.209C169.465 122.238 174.865 125.017 177.025 128.877C180.452 134.982 180.932 156.606 180.932 156.606C180.932 156.606 158.77 160.024 155.593 155.833C155.041 155.104 155.463 149.953 155.463 149.953C155.463 149.953 152.982 143.445 152.458 138.395C151.729 137.39 151.052 136.349 150.428 135.275C149.639 133.953 148.955 132.571 148.383 131.142" stroke="#263238" stroke-width="0.481308" stroke-linecap="round" stroke-linejoin="round"/>
<g opacity="0.6">
<path d="M147.706 128.997C147.549 128.355 147.465 127.698 147.457 127.038C147.457 127.038 153.217 122.181 160.633 122.209C169.465 122.238 174.865 125.017 177.025 128.877C180.452 134.982 180.932 156.606 180.932 156.606C180.932 156.606 158.77 160.024 155.593 155.833C155.041 155.104 155.463 149.953 155.463 149.953C155.463 149.953 152.982 143.445 152.458 138.395C151.729 137.39 151.052 136.349 150.428 135.275C149.639 133.953 148.955 132.571 148.383 131.142" fill="white"/>
<path d="M147.706 128.997C147.549 128.355 147.465 127.698 147.457 127.038C147.457 127.038 153.217 122.181 160.633 122.209C169.465 122.238 174.865 125.017 177.025 128.877C180.452 134.982 180.932 156.606 180.932 156.606C180.932 156.606 158.77 160.024 155.593 155.833C155.041 155.104 155.463 149.953 155.463 149.953C155.463 149.953 152.982 143.445 152.458 138.395C151.729 137.39 151.052 136.349 150.428 135.275C149.639 133.953 148.955 132.571 148.383 131.142" stroke="#263238" stroke-width="0.481308" stroke-linecap="round" stroke-linejoin="round"/>
</g>
<path d="M156.193 134.195C156.193 134.195 159.577 147.323 159.073 150.213C158.953 151.21 159.119 152.221 159.553 153.126C159.111 153.591 158.826 154.184 158.74 154.82C158.654 155.456 158.77 156.103 159.073 156.669" stroke="#263238" stroke-width="0.481308" stroke-linecap="round" stroke-linejoin="round"/>
<path d="M165.169 145.058C164.564 145.035 163.977 144.849 163.47 144.52L162.467 140.123C164.457 140.304 166.463 140.163 168.409 139.706L169.484 144.506C168.88 144.674 168.266 144.807 167.646 144.904" stroke="#263238" stroke-width="0.481308" stroke-linecap="round" stroke-linejoin="round"/>
<path d="M153.788 135.904C153.788 135.904 150.908 123.635 158.175 122.209C165.442 120.784 166.935 124.177 166.508 126.477C165.937 129.544 159.913 137.065 159.913 137.065L156.193 134.185L153.788 135.904Z" fill="#1C2560" stroke="#263238" stroke-width="0.481308" stroke-linecap="round" stroke-linejoin="round"/>
<path opacity="0.4" d="M153.788 135.904C153.788 135.904 150.908 123.635 158.175 122.209C165.442 120.784 166.935 124.177 166.508 126.477C165.937 129.544 159.913 137.065 159.913 137.065L156.193 134.185L153.788 135.904Z" fill="white" stroke="#263238" stroke-width="0.481308" stroke-linecap="round" stroke-linejoin="round"/>
<path d="M144.255 173.8C144.255 173.8 148.95 168.381 159.548 164.286C159.548 164.286 156.802 163.446 156.188 162.304" stroke="white" stroke-width="0.481308" stroke-linecap="round" stroke-linejoin="round"/>
<path d="M138.735 190.384L134.444 205.965" stroke="white" stroke-width="0.481308" stroke-linecap="round" stroke-linejoin="round"/>
<path d="M171.894 145.48C171.894 145.48 173.814 148.72 181.719 148.422C180.248 146.847 178.387 145.688 176.324 145.062C173.094 144.198 171.894 145.48 171.894 145.48Z" fill="#1C2560" stroke="#263238" stroke-width="0.481308" stroke-linecap="round" stroke-linejoin="round"/>
<path d="M141.222 146.781C141.222 146.781 143.055 143.939 144.735 143.368C146.415 142.797 151.35 142.749 152.113 142.729C152.876 142.71 166.436 146.157 172.801 148.278L172.244 137.656L180.798 138.333C180.798 138.333 180.452 151.293 179.122 154.725C177.793 158.157 175.887 157.321 172.638 155.92C159.855 150.414 152.367 146.579 151.671 146.8C150.975 147.021 141.222 146.781 141.222 146.781Z" fill="white" stroke="#263238" stroke-width="0.481308" stroke-linecap="round" stroke-linejoin="round"/>
<path d="M170.108 131.483C169.884 132.364 169.813 133.276 169.897 134.181C170.276 137.502 171.894 145.48 171.894 145.48C171.894 145.48 179.866 146.617 181.719 148.422C181.719 148.422 183.034 137.862 180.356 132.501C177.678 127.139 174.908 126.549 174.908 126.549C173.156 126.117 171.548 127.749 170.66 129.846" fill="#1C2560"/>
<path d="M170.108 131.483C169.884 132.364 169.813 133.276 169.897 134.181C170.276 137.502 171.894 145.48 171.894 145.48C171.894 145.48 179.866 146.617 181.719 148.422C181.719 148.422 183.034 137.862 180.356 132.501C177.678 127.139 174.908 126.549 174.908 126.549C173.156 126.117 171.548 127.749 170.66 129.846" stroke="#263238" stroke-width="0.481308" stroke-linecap="round" stroke-linejoin="round"/>
<g opacity="0.4">
<g opacity="0.4">
<path d="M170.108 131.483C169.884 132.364 169.813 133.276 169.897 134.181C170.276 137.502 171.894 145.48 171.894 145.48C171.894 145.48 179.866 146.617 181.719 148.422C181.719 148.422 183.034 137.862 180.356 132.501C177.678 127.139 174.908 126.549 174.908 126.549C173.156 126.117 171.548 127.749 170.66 129.846" fill="white"/>
<path d="M170.108 131.483C169.884 132.364 169.813 133.276 169.897 134.181C170.276 137.502 171.894 145.48 171.894 145.48C171.894 145.48 179.866 146.617 181.719 148.422C181.719 148.422 183.034 137.862 180.356 132.501C177.678 127.139 174.908 126.549 174.908 126.549C173.156 126.117 171.548 127.749 170.66 129.846" stroke="#263238" stroke-width="0.481308" stroke-linecap="round" stroke-linejoin="round"/>
</g>
</g>
<path d="M146.684 135.592C147.878 136.569 149.27 137.273 150.764 137.656" stroke="#263238" stroke-width="0.481308" stroke-linecap="round" stroke-linejoin="round"/>
<path d="M171.894 135.592C171.894 135.592 174.774 141.035 178.412 142.235" stroke="#263238" stroke-width="0.481308" stroke-linecap="round" stroke-linejoin="round"/>
<path d="M153.231 177.52C153.231 177.52 153.764 177.923 153.98 179.378" stroke="white" stroke-width="0.481308" stroke-linecap="round" stroke-linejoin="round"/>
<path d="M151.259 179.377C151.722 179.428 152.171 179.574 152.575 179.807C152.979 180.04 153.33 180.355 153.606 180.731" stroke="white" stroke-width="0.481308" stroke-linecap="round" stroke-linejoin="round"/>
<path d="M135.38 173.8C135.38 173.8 136.916 174.577 136.585 176.781" stroke="white" stroke-width="0.481308" stroke-linecap="round" stroke-linejoin="round"/>
<path d="M133.762 175.672C133.762 175.672 135.86 176.915 136.009 178.029" stroke="white" stroke-width="0.481308" stroke-linecap="round" stroke-linejoin="round"/>
<path d="M158.074 162.242C158.074 162.242 162.745 162.894 163.791 162.242" stroke="white" stroke-width="0.481308" stroke-linecap="round" stroke-linejoin="round"/>
<path d="M156.193 133.667C155.79 132.524 155.626 131.31 155.713 130.101C155.732 129.69 155.775 129.282 155.843 128.877L155.031 127.59L153.99 125.934L155.195 121.134C155.195 121.134 162.875 122.613 163.451 124.753C164.027 126.894 156.193 133.667 156.193 133.667Z" fill="white"/>
<path opacity="0.2" d="M155.703 130.12C155.723 129.71 155.766 129.301 155.833 128.896L155.022 127.61C156.484 127.383 157.815 126.637 158.771 125.507C158.811 126.501 158.536 127.483 157.985 128.311C157.434 129.139 156.636 129.773 155.703 130.12V130.12Z" fill="black" fill-opacity="0.7"/>
<path d="M156.193 133.667C155.79 132.524 155.626 131.31 155.713 130.101C155.732 129.69 155.775 129.282 155.843 128.877L155.031 127.59L153.99 125.934L155.195 121.134C155.195 121.134 162.875 122.613 163.451 124.753C164.027 126.894 156.193 133.667 156.193 133.667Z" stroke="#263238" stroke-width="0.481308" stroke-linecap="round" stroke-linejoin="round"/>
<path d="M161.012 121.537C163.412 115.297 161.818 104.675 150.298 106.71C143.54 107.91 142.724 116.08 144.98 119.709C147.236 123.337 144.841 123.453 148.234 126.141C149.612 127.23 150.721 129.078 152.362 129.198C154.316 129.333 156.817 127.485 158.684 125.488" fill="white"/>
<path d="M161.012 121.537C163.412 115.297 161.818 104.675 150.298 106.71C143.54 107.91 142.724 116.08 144.98 119.709C147.236 123.337 144.841 123.453 148.234 126.141C149.612 127.23 150.721 129.078 152.362 129.198C154.316 129.333 156.817 127.485 158.684 125.488" stroke="#263238" stroke-width="0.481308" stroke-linecap="round" stroke-linejoin="round"/>
<path d="M149.66 119.709C149.66 119.709 151.359 118.163 153.38 118.802" stroke="#263238" stroke-width="0.481308" stroke-linecap="round" stroke-linejoin="round"/>
<path d="M146.478 119.709C146.25 119.308 145.932 118.965 145.55 118.707C145.168 118.449 144.731 118.282 144.274 118.221" stroke="#263238" stroke-width="0.481308" stroke-linecap="round" stroke-linejoin="round"/>
<path d="M147.601 121.96C147.601 121.96 147.356 123.203 147.035 124.461C146.713 125.718 149.051 125.032 148.955 124.84" fill="white"/>
<path d="M147.601 121.96C147.601 121.96 147.356 123.203 147.035 124.461C146.713 125.718 149.051 125.032 148.955 124.84" stroke="#263238" stroke-width="0.481308" stroke-linecap="round" stroke-linejoin="round"/>
<path d="M150.159 126.409C151.15 126.126 152.032 125.548 152.689 124.753" stroke="#263238" stroke-width="0.481308" stroke-linecap="round" stroke-linejoin="round"/>
<path d="M152.026 121.288C152.061 121.348 152.082 121.415 152.091 121.484C152.099 121.553 152.094 121.623 152.075 121.69C152.056 121.757 152.025 121.819 151.982 121.874C151.939 121.928 151.885 121.974 151.825 122.008C151.702 122.075 151.557 122.091 151.422 122.052C151.288 122.014 151.174 121.924 151.105 121.801C151.061 121.727 151.038 121.643 151.038 121.557C151.004 121.496 150.982 121.43 150.973 121.361C150.965 121.292 150.97 121.222 150.989 121.155C151.008 121.088 151.04 121.025 151.082 120.971C151.125 120.916 151.179 120.871 151.239 120.837C151.362 120.769 151.507 120.753 151.642 120.792C151.776 120.831 151.891 120.921 151.959 121.043C152.003 121.117 152.026 121.202 152.026 121.288Z" fill="#263238"/>
<path d="M146.9 121.182C146.996 121.528 146.929 121.854 146.746 121.902C146.564 121.95 146.338 121.71 146.266 121.36C146.194 121.009 146.242 120.688 146.425 120.64C146.607 120.592 146.794 120.832 146.9 121.182Z" fill="#263238"/>
<path d="M153.908 113.281C153.908 113.281 152.123 117.952 147.707 117.846C147.707 117.846 149.238 116.68 149.66 115.566C149.66 115.566 146.262 118.926 142.868 117.217C139.475 115.509 141.14 107.56 146.348 104.421C151.556 101.281 156.884 102.121 158.689 105.121C158.689 105.121 162.337 104.785 163.945 110.147C165.385 114.947 163.081 122.224 160.83 122.305C157.34 122.435 156.639 118.648 156.639 118.648C155.199 117.183 154.245 115.309 153.908 113.281Z" fill="#263238" stroke="#263238" stroke-width="0.481308" stroke-linecap="round" stroke-linejoin="round"/>
<path d="M157.734 121.561C157.734 121.561 157.623 117.155 160.134 117.688C162.644 118.221 160.825 123.313 158.938 123.261" fill="white"/>
<path d="M157.734 121.561C157.734 121.561 157.623 117.155 160.134 117.688C162.644 118.221 160.825 123.313 158.938 123.261" stroke="#263238" stroke-width="0.481308" stroke-linecap="round" stroke-linejoin="round"/>
<path d="M149.982 146.301H111.279C110.847 146.301 110.497 146.651 110.497 147.083V148.432C110.497 148.864 110.847 149.214 111.279 149.214H149.982C150.414 149.214 150.764 148.864 150.764 148.432V147.083C150.764 146.651 150.414 146.301 149.982 146.301Z" fill="#1C2560" stroke="#263238" stroke-width="0.481308" stroke-linecap="round" stroke-linejoin="round"/>
<path d="M54.159 204.933H37.8342L39.543 219.856H52.4502L54.159 204.933Z" fill="#263238" stroke="#263238" stroke-width="0.481308" stroke-linecap="round" stroke-linejoin="round"/>
<path d="M56.0936 194.545C56.0936 194.545 48.9656 195.107 48.668 200.368C48.668 200.368 55.8872 203.689 56.0936 194.545Z" fill="#1C2560" stroke="#263238" stroke-width="0.481308" stroke-linecap="round" stroke-linejoin="round"/>
<path d="M41.9911 195.851C41.9911 195.851 38.0071 190.465 31.5703 193.225C31.5703 193.225 35.5015 199.72 41.9911 195.851Z" fill="#1C2560" stroke="#263238" stroke-width="0.481308" stroke-linecap="round" stroke-linejoin="round"/>
<path d="M32.1174 178.85C32.1174 178.85 30.9702 189.208 40.4022 186.357C40.4022 186.357 37.407 178.739 32.1174 178.85Z" fill="#1C2560" stroke="#263238" stroke-width="0.481308" stroke-linecap="round" stroke-linejoin="round"/>
<path d="M43.6999 173.08C43.6999 173.08 36.2407 177.102 41.7271 183.208C41.7223 183.208 46.9495 178.845 43.6999 173.08Z" fill="#1C2560" stroke="#263238" stroke-width="0.481308" stroke-linecap="round" stroke-linejoin="round"/>
<path d="M52.8727 182.339C52.8727 182.339 44.7607 181.518 44.7607 189.025C44.7607 189.025 52.8727 189.347 52.8727 182.339Z" fill="#1C2560" stroke="#263238" stroke-width="0.481308" stroke-linecap="round" stroke-linejoin="round"/>
<path d="M45.2262 211.081C45.2262 211.081 48.9222 203.325 45.375 195.424C41.8278 187.523 40.623 180.865 42.495 176.176" stroke="#263238" stroke-width="0.481308" stroke-linecap="round" stroke-linejoin="round"/>
<path d="M50.2087 184.36C50.2087 184.36 45.3464 186.28 43.7 191.296" stroke="#263238" stroke-width="0.481308" stroke-linecap="round" stroke-linejoin="round"/>
<path d="M34.6807 182.992C34.6807 182.992 37.4887 186.832 42.2455 186.405" stroke="#263238" stroke-width="0.481308" stroke-linecap="round" stroke-linejoin="round"/>
<path d="M34.6807 194.329C34.6807 194.329 42.4567 196.566 45.5479 195.837" stroke="#263238" stroke-width="0.481308" stroke-linecap="round" stroke-linejoin="round"/>
<path d="M53.7798 196.912C53.7798 196.912 50.2998 200.752 46.8054 200.67" stroke="#263238" stroke-width="0.481308" stroke-linecap="round" stroke-linejoin="round"/>
<path d="M54.8599 204.602H37.1335V206.709H54.8599V204.602Z" fill="#263238" stroke="#263238" stroke-width="0.481308" stroke-linecap="round" stroke-linejoin="round"/>
<path d="M183.495 191.08C179.351 193.787 175.874 197.397 173.324 201.64C169.095 208.696 165.745 218.622 170.948 219.88L175.897 219.693L185.42 216.424L184.422 214.504C184.422 214.504 176.084 218.92 174.658 218.92C173.233 218.92 171.375 219.275 170.593 218.704C169.81 218.133 173.334 205.302 180.874 201.025C188.415 196.749 183.495 191.08 183.495 191.08Z" fill="#1C2560"/>
<path opacity="0.5" d="M183.495 191.08C179.351 193.787 175.874 197.397 173.324 201.64C169.095 208.696 165.745 218.622 170.948 219.88L175.897 219.693L185.42 216.424L184.422 214.504C184.422 214.504 176.084 218.92 174.658 218.92C173.233 218.92 171.375 219.275 170.593 218.704C169.81 218.133 173.334 205.302 180.874 201.025C188.415 196.749 183.495 191.08 183.495 191.08Z" fill="black" fill-opacity="0.7"/>
<path d="M183.495 191.08C179.351 193.787 175.874 197.397 173.324 201.64C169.095 208.696 165.745 218.622 170.948 219.88L175.897 219.693L185.42 216.424L184.422 214.504C184.422 214.504 176.084 218.92 174.658 218.92C173.233 218.92 171.375 219.275 170.593 218.704C169.81 218.133 173.334 205.302 180.874 201.025C188.415 196.749 183.495 191.08 183.495 191.08Z" stroke="#263238" stroke-width="0.481308" stroke-linecap="round" stroke-linejoin="round"/>
<path d="M188.914 186.453C188.914 186.453 188.914 184.384 192.049 184.101C195.183 183.817 195.63 186.837 195.63 186.837H194.55C194.55 186.837 194.574 185.027 192.27 184.888C189.966 184.749 190.052 186.837 190.052 186.837L188.914 186.453Z" fill="#1C2560" stroke="#263238" stroke-width="0.481308" stroke-linecap="round" stroke-linejoin="round"/>
<path d="M184.277 219.88C177.649 219.88 178.906 190.153 179.669 188.68C180.433 187.206 199.666 186.472 201.562 187.096C203.458 187.72 211.061 217.336 206.866 219.702L184.277 219.88Z" fill="#1C2560"/>
<path opacity="0.2" d="M184.277 219.88C177.649 219.88 178.906 190.153 179.669 188.68C180.433 187.206 199.666 186.472 201.562 187.096C203.458 187.72 211.061 217.336 206.866 219.702L184.277 219.88Z" fill="black" fill-opacity="0.7"/>
<path d="M184.277 219.88C177.649 219.88 178.906 190.153 179.669 188.68C180.433 187.206 199.666 186.472 201.562 187.096C203.458 187.72 211.061 217.336 206.866 219.702L184.277 219.88Z" stroke="#263238" stroke-width="0.481308" stroke-linecap="round" stroke-linejoin="round"/>
<path d="M179.67 188.646C182.07 189.16 183.452 198.89 186.682 201.366C189.913 203.843 205.143 203.31 206.866 201.366C208.59 199.422 205.22 188.507 202.772 186.837C200.324 185.166 198.582 186.789 191.694 186.026C181.484 184.888 179.67 188.646 179.67 188.646Z" fill="#1C2560" stroke="#263238" stroke-width="0.481308" stroke-linecap="round" stroke-linejoin="round"/>
<path d="M197.151 194.238L199.974 196.542C200.012 196.575 200.044 196.615 200.067 196.66C200.09 196.705 200.104 196.754 200.108 196.804C200.112 196.855 200.106 196.906 200.09 196.954C200.075 197.002 200.05 197.046 200.017 197.085V197.085L197.818 199.456C197.748 199.526 197.653 199.565 197.554 199.565C197.456 199.565 197.361 199.526 197.29 199.456V199.456L194.482 196.84C194.414 196.769 194.375 196.674 194.375 196.576C194.375 196.477 194.414 196.383 194.482 196.312V196.312L196.657 194.291C196.719 194.223 196.803 194.18 196.894 194.171C196.985 194.161 197.077 194.185 197.151 194.238V194.238Z" fill="#1C2560"/>
<path opacity="0.2" d="M197.151 194.238L199.974 196.542C200.012 196.575 200.044 196.615 200.067 196.66C200.09 196.705 200.104 196.754 200.108 196.804C200.112 196.855 200.106 196.906 200.09 196.954C200.075 197.002 200.05 197.046 200.017 197.085V197.085L197.818 199.456C197.748 199.526 197.653 199.565 197.554 199.565C197.456 199.565 197.361 199.526 197.29 199.456V199.456L194.482 196.84C194.414 196.769 194.375 196.674 194.375 196.576C194.375 196.477 194.414 196.383 194.482 196.312V196.312L196.657 194.291C196.719 194.223 196.803 194.18 196.894 194.171C196.985 194.161 197.077 194.185 197.151 194.238V194.238Z" fill="black" fill-opacity="0.7"/>
<path d="M197.151 194.238L199.974 196.542C200.012 196.575 200.044 196.615 200.067 196.66C200.09 196.705 200.104 196.754 200.108 196.804C200.112 196.855 200.106 196.906 200.09 196.954C200.075 197.002 200.05 197.046 200.017 197.085V197.085L197.818 199.456C197.748 199.526 197.653 199.565 197.554 199.565C197.456 199.565 197.361 199.526 197.29 199.456V199.456L194.482 196.84C194.414 196.769 194.375 196.674 194.375 196.576C194.375 196.477 194.414 196.383 194.482 196.312V196.312L196.657 194.291C196.719 194.223 196.803 194.18 196.894 194.171C196.985 194.161 197.077 194.185 197.151 194.238V194.238Z" stroke="#263238" stroke-width="0.481308" stroke-linecap="round" stroke-linejoin="round"/>
<path d="M187.844 206.339C187.844 206.339 200.602 207.39 206.866 205.768C207.705 206.427 208.328 207.321 208.657 208.336C209.228 210.045 210.418 215.891 206.866 217.389C203.314 218.886 190.546 218.598 188.842 216.909C187.138 215.219 187.844 206.339 187.844 206.339Z" fill="#1C2560"/>
<path opacity="0.4" d="M187.844 206.339C187.844 206.339 200.602 207.39 206.866 205.768C207.705 206.427 208.328 207.321 208.657 208.336C209.228 210.045 210.418 215.891 206.866 217.389C203.314 218.886 190.546 218.598 188.842 216.909C187.138 215.219 187.844 206.339 187.844 206.339Z" fill="black" fill-opacity="0.7"/>
<path d="M187.844 206.339C187.844 206.339 200.602 207.39 206.866 205.768C207.705 206.427 208.328 207.321 208.657 208.336C209.228 210.045 210.418 215.891 206.866 217.389C203.314 218.886 190.546 218.598 188.842 216.909C187.138 215.219 187.844 206.339 187.844 206.339Z" stroke="#263238" stroke-width="0.481308" stroke-linecap="round" stroke-linejoin="round"/>
<path d="M187.844 206.339C187.844 206.339 189.342 210.376 190.124 210.995C190.906 211.614 207.481 211.614 209.324 210.117C211.167 208.619 208.642 205.912 206.871 205.768C206.866 205.768 195.255 207.121 187.844 206.339Z" fill="#1C2560" stroke="#263238" stroke-width="0.481308" stroke-linecap="round" stroke-linejoin="round"/>
<path d="M182.497 205.48C182.497 205.48 182.924 213.961 183.778 215.886C183.144 216.217 182.439 216.39 181.724 216.39C181.009 216.39 180.304 216.217 179.67 215.886C177.51 214.744 177.865 207.438 178.292 207.457C178.719 207.477 182.497 205.48 182.497 205.48Z" fill="#1C2560"/>
<path opacity="0.4" d="M182.497 205.48C182.497 205.48 182.924 213.961 183.778 215.886C183.144 216.217 182.439 216.39 181.724 216.39C181.009 216.39 180.304 216.217 179.67 215.886C177.51 214.744 177.865 207.438 178.292 207.457C178.719 207.477 182.497 205.48 182.497 205.48Z" fill="black" fill-opacity="0.7"/>
<path d="M182.497 205.48C182.497 205.48 182.924 213.961 183.778 215.886C183.144 216.217 182.439 216.39 181.724 216.39C181.009 216.39 180.304 216.217 179.67 215.886C177.51 214.744 177.865 207.438 178.292 207.457C178.719 207.477 182.497 205.48 182.497 205.48Z" stroke="#263238" stroke-width="0.481308" stroke-linecap="round" stroke-linejoin="round"/>
<path d="M182.497 205.48L179.286 206.123C179.286 206.123 176.223 208.475 177.577 209.257C178.93 210.04 182.42 208.12 182.497 205.48Z" fill="#1C2560" stroke="#263238" stroke-width="0.481308" stroke-linecap="round" stroke-linejoin="round"/>
</svg>
