<svg width="241" height="240" viewBox="0 0 241 240" fill="none" xmlns="http://www.w3.org/2000/svg">
<g clip-path="url(#clip0_171_2748)">
<path opacity="0.5" d="M226.065 97.0944C224.852 85.1406 220.687 73.6755 213.946 63.7295C207.205 53.7836 198.098 45.6685 187.444 40.1136C168.578 30.3042 147.994 24.2329 126.825 22.2336C69.2729 16.8336 53.0729 46.3344 43.3529 72.9552C33.6329 99.576 1.9817 144.547 5.2169 188.798C5.2169 188.798 7.73692 213.278 17.0921 224.414H226.478C226.478 224.414 238.713 207.864 225.753 176.568C212.793 145.272 230.073 143.827 226.833 105.336C226.588 102.398 226.329 99.6576 226.065 97.0944Z" fill="#E9E9E9"/>
<path fill-rule="evenodd" clip-rule="evenodd" d="M130.136 66.6313C126.467 68.8427 122.861 69.9112 121.169 69.475C116.925 68.3813 116.535 52.8584 119.819 46.7388C123.102 40.6191 139.983 37.9518 140.834 50.0767C141.13 54.2849 139.362 58.0404 136.751 61.1049L141.433 82.9235H127.833L130.136 66.6313Z" fill="#B28B67"/>
<path fill-rule="evenodd" clip-rule="evenodd" d="M146.764 46.0406C147.203 45.6054 147.442 44.9842 147.65 44.3943C147.865 43.7815 148.074 43.1625 148.217 42.5247C148.503 41.2503 148.505 39.7848 147.596 38.7953C146.867 38.0018 145.773 37.6459 144.763 37.5685C144.09 37.5169 143.399 37.6111 142.754 37.8231C142.114 38.0334 141.563 38.4525 140.942 38.7126C140.919 37.3393 140.684 35.9024 139.987 34.7298C139.316 33.6016 138.247 32.9685 137.03 32.801C135.78 32.6291 134.546 32.9214 133.427 33.5263C133.147 33.6778 132.87 33.8365 132.604 34.0161C132.382 34.1665 132.151 34.3477 131.89 34.4088C131.599 34.4771 131.455 34.3092 131.266 34.097C131.044 33.8483 130.794 33.6292 130.53 33.435C129.362 32.5764 127.829 32.2233 126.476 32.738C125.852 32.9751 125.245 33.3778 124.822 33.9327C124.445 34.4274 124.176 35.2121 123.656 35.5567C123.435 35.703 123.279 35.5092 123.078 35.3659C122.776 35.1507 122.487 34.9131 122.182 34.7038C121.752 34.4096 121.287 34.1895 120.789 34.0744C120.06 33.9057 119.053 33.9453 118.845 34.8998C118.766 35.2584 118.826 35.6419 118.852 36.0031C118.886 36.4992 118.922 36.9951 118.966 37.4904C118.998 37.8665 119.04 38.2298 119.111 38.5991C119.148 38.7959 119.267 39.163 119.183 39.3601C119.077 39.6065 118.59 39.4664 118.382 39.475C117.971 39.492 117.558 39.564 117.178 39.7396C116.884 39.8757 116.574 40.0758 116.45 40.4133C116.374 40.6206 116.394 40.8335 116.43 41.0468C116.473 41.3028 116.424 41.4385 116.391 41.6968C115.839 41.425 113.927 40.8213 113.686 41.8103C113.606 42.1396 113.788 42.5117 113.928 42.7894C114.172 43.2765 114.492 43.7217 114.819 44.1463C115.502 45.032 116.317 45.796 117.193 46.4493C116.166 46.9059 115.898 48.2527 116.787 49.0551C117.18 49.4094 117.708 49.4883 118.203 49.4656C118.385 49.4573 118.646 49.3876 118.789 49.4192C118.865 49.4362 118.948 49.5012 119.054 49.5085C119.753 49.5564 120.542 49.388 121.226 49.2329C122.443 48.9565 123.596 48.3797 124.537 47.5013C124.779 47.2759 124.978 47.1462 125.303 47.1495C125.588 47.1524 125.868 47.2305 126.152 47.2377C126.905 47.2569 127.584 46.8889 128.283 46.6439C128.326 47.5883 128.595 48.6284 128.981 49.478C129.297 50.1708 129.954 50.2715 130.601 50.3323C132.669 50.5268 134.743 50.3097 136.813 50.3126C134.81 50.7655 132.739 50.9522 130.753 51.4851C129.855 51.7259 130.54 52.3309 130.924 52.7503C131.556 53.4409 132.026 54.2966 132.352 55.1981C133.333 53.9205 135.065 53.0786 136.6 53.4711C138.297 53.9047 139.491 56.1981 138.406 57.8469C137.777 58.804 136.64 59.1735 135.693 59.5847C136.431 60.352 136.61 61.4852 137.054 62.4398C137.273 62.9105 137.581 63.4428 138.071 63.6069C138.252 63.6676 138.465 63.6728 138.608 63.8205C138.785 64.0035 138.827 64.208 139.054 64.3652C139.956 64.9928 141.367 64.9445 142.167 64.1255C142.891 63.3848 142.702 62.2127 142.098 61.4618C143.06 61.0608 144.813 60.5451 144.43 59.0465C146.515 58.9081 151.577 55.5276 148.779 53.0574C150.314 52.1897 151.725 50.0691 150.739 48.1998C149.979 46.7604 148.213 46.117 146.764 46.0406Z" fill="#191847"/>
<path fill-rule="evenodd" clip-rule="evenodd" d="M166.014 153.745H122.237L116.5 224H181.667L166.014 153.745Z" fill="#C5CFD6"/>
<path fill-rule="evenodd" clip-rule="evenodd" d="M166.014 153.745H152.55L144.492 224H181.667L166.014 153.745Z" fill="black" fill-opacity="0.1"/>
<path fill-rule="evenodd" clip-rule="evenodd" d="M98.1835 167.664C103.103 178.095 110.79 203.418 110.79 203.418L104.264 206.399C104.264 206.399 87.7053 179.78 77.5857 161.584C78.0573 165.681 78.5374 170.292 78.9825 175.14C80.0369 186.625 78.983 211.437 78.4158 218.605C78.0593 223.109 71.9376 222.166 71.3661 218.593C71.2693 217.988 70.8748 215.864 70.2863 212.694C67.4002 197.152 59.8468 156.475 59.8334 146.515C59.828 142.507 67.659 138.907 72.3266 141.709C75.5327 138.288 81.6004 136.317 85.0863 141.967C87.3024 145.559 92.5679 155.756 98.1835 167.664Z" fill="#B28B67"/>
<path fill-rule="evenodd" clip-rule="evenodd" d="M110.323 194.043L87.9245 140.99C82.5586 132.36 67.5139 142.746 69.3438 147.752C73.4983 159.116 94.6269 195.906 95.8646 199.292L110.323 194.043Z" fill="#2F3676"/>
<path fill-rule="evenodd" clip-rule="evenodd" d="M109.318 201.058C110.049 200.144 111.39 199.912 112.264 200.691C113.063 201.403 113.924 202.251 114.29 202.886C115.057 204.213 116.085 207.015 116.085 207.015C114.545 207.904 88.4058 222.993 88.4058 222.993C88.4058 222.993 85.2675 220.049 87.4279 218.423C89.5882 216.797 90.9935 215.68 90.9935 215.68L100.285 202.88C100.616 202.424 101.258 202.332 101.705 202.675L103.337 203.932C103.337 203.932 106.068 203.693 107.414 202.917C108.02 202.567 108.725 201.798 109.318 201.058Z" fill="#E4E4E4"/>
<path fill-rule="evenodd" clip-rule="evenodd" d="M77.4075 215.458C78.4982 215.032 79.7755 215.502 80.1426 216.613C80.4782 217.63 80.7998 218.795 80.7998 219.527C80.7998 221.06 80.2891 224 80.2891 224C78.511 224 48.3281 224 48.3281 224C48.3281 224 47.0822 219.882 49.7664 219.554C52.4506 219.225 54.226 218.961 54.226 218.961L68.6741 212.521C69.1886 212.291 69.7909 212.532 70.0057 213.053L70.7907 214.957C70.7907 214.957 73.2755 216.116 74.829 216.116C75.5289 216.116 76.5246 215.802 77.4075 215.458Z" fill="#E4E4E4"/>
<path fill-rule="evenodd" clip-rule="evenodd" d="M58.2633 150.591C58.2633 165.643 65.4128 200.754 65.4174 204.068L80.7999 204.08C80.7999 204.08 77.4226 157.087 78.4047 156.58C79.3869 156.074 118.667 160.501 130.448 160.501C147.435 160.501 154.463 149.791 155.033 129.949H121.381C114.529 130.682 78.7889 137.89 65.5157 140.367C59.8332 141.428 58.2633 146.444 58.2633 150.591Z" fill="#5C63AB"/>
<path fill-rule="evenodd" clip-rule="evenodd" d="M96.4693 83.8809L116.138 94.6517L108.875 102.446L94.583 89.3627C87.0541 87.2882 83.611 85.7705 84.2538 84.8098C84.7958 83.9998 85.6699 84.0279 86.4751 84.0539C87.1023 84.074 87.6876 84.0929 88.0416 83.7131C88.8498 82.8458 87.3077 79.8133 85.7213 76.998C84.1349 74.1828 85.8313 74.4279 86.8013 74.8328C89.9758 76.9814 93.1985 79.9975 96.4693 83.8809ZM76.6934 98.9939L85.3331 103.739L84.8411 112.408C84.8411 112.408 79.2454 108.37 74.4313 107.028C68.2931 105.317 65.8096 104.01 62.8101 100.189C61.2053 98.1442 59.8432 94.0341 61.3708 92.6955C61.9567 92.1821 64.1401 93.3951 66.3678 94.6328C68.0656 95.5761 69.7892 96.5337 70.8511 96.7523C72.2806 97.0465 72.1132 95.194 71.9795 93.7136C71.8835 92.6514 71.8049 91.7807 72.346 92.0324C74.875 92.0758 76.6934 98.9939 76.6934 98.9939Z" fill="#997659"/>
<path fill-rule="evenodd" clip-rule="evenodd" d="M125.717 92.2523C118.828 92.1796 109.641 90.7248 99.8384 84.5035L95.9888 93.0871C102.75 99.7962 112.258 105.309 120.571 105.075C127.122 104.891 130.47 96.9684 125.717 92.2523Z" fill="#161E4D"/>
<path fill-rule="evenodd" clip-rule="evenodd" d="M144.298 151.059C150.847 150.205 156.866 149.42 160.432 150.122C164.433 137.129 161.111 128.948 158.043 121.396C156.195 116.845 154.439 112.522 154.435 107.511C154.424 92.9191 142.706 70.4589 140.982 70.4589H140.487H126.823H125.258C124.555 79.4886 121.555 89.2652 118.536 99.1046C117.831 101.402 117.124 103.704 116.446 106C105.019 108.593 79.6461 99.5657 79.6461 99.5657C79.6461 99.5657 73.2407 112.815 73.724 118.457C88.4927 126.171 101.151 129.61 111.579 129.837C111.248 136.023 112.001 141.91 114.531 147.289C117.921 154.497 132.04 152.657 144.298 151.059Z" fill="#161E4D"/>
</g>
<defs>
<clipPath id="clip0_171_2748">
<rect width="240" height="240" fill="white" transform="translate(0.5)"/>
</clipPath>
</defs>
</svg>
