<svg width="241" height="240" viewBox="0 0 241 240" fill="none" xmlns="http://www.w3.org/2000/svg">
<path d="M13.6279 100.094C14.8411 88.1406 19.0054 76.6755 25.7466 66.7296C32.4879 56.7836 41.5947 48.6685 52.2487 43.1136C71.1147 33.3042 91.6984 27.2329 112.868 25.2336C170.42 19.8336 186.62 49.3344 196.34 75.9552C206.06 102.576 237.711 147.547 234.476 191.798C234.476 191.798 231.956 216.278 222.601 227.414H13.2151C13.2151 227.414 0.979949 210.864 13.9399 179.568C26.9 148.272 9.61995 146.827 12.8599 108.336C13.1047 105.398 13.3639 102.658 13.6279 100.094Z" fill="#1C2560"/>
<path opacity="0.7" d="M13.6279 100.094C14.8411 88.1406 19.0054 76.6755 25.7466 66.7296C32.4879 56.7836 41.5947 48.6685 52.2487 43.1136C71.1147 33.3042 91.6984 27.2329 112.868 25.2336C170.42 19.8336 186.62 49.3344 196.34 75.9552C206.06 102.576 237.711 147.547 234.476 191.798C234.476 191.798 231.956 216.278 222.601 227.414H13.2151C13.2151 227.414 0.979949 210.864 13.9399 179.568C26.9 148.272 9.61995 146.827 12.8599 108.336C13.1047 105.398 13.3639 102.658 13.6279 100.094Z" fill="white"/>
<g opacity="0.3">
<path opacity="0.3" d="M51.3082 13.8288H19.3306V59.6016H51.3082V13.8288Z" stroke="black" stroke-linecap="round" stroke-linejoin="round"/>
<path opacity="0.3" d="M85.484 13.8288H53.5063V59.6016H85.484V13.8288Z" stroke="black" stroke-linecap="round" stroke-linejoin="round"/>
<path opacity="0.3" d="M119.655 13.8288H87.6777V59.6016H119.655V13.8288Z" stroke="black" stroke-linecap="round" stroke-linejoin="round"/>
<path opacity="0.3" d="M51.3082 61.7952H19.3306V107.568H51.3082V61.7952Z" stroke="black" stroke-linecap="round" stroke-linejoin="round"/>
<path opacity="0.3" d="M85.484 61.7952H53.5063V107.568H85.484V61.7952Z" stroke="black" stroke-linecap="round" stroke-linejoin="round"/>
<path opacity="0.3" d="M119.655 61.7952H87.6777V107.568H119.655V61.7952Z" stroke="black" stroke-linecap="round" stroke-linejoin="round"/>
<path opacity="0.3" d="M51.3082 109.766H19.3306V155.539H51.3082V109.766Z" stroke="black" stroke-linecap="round" stroke-linejoin="round"/>
<path opacity="0.3" d="M85.484 109.766H53.5063V155.539H85.484V109.766Z" stroke="black" stroke-linecap="round" stroke-linejoin="round"/>
<path opacity="0.3" d="M119.655 109.766H87.6777V155.539H119.655V109.766Z" stroke="black" stroke-linecap="round" stroke-linejoin="round"/>
</g>
<path d="M214.829 20.7264V166.382C214.829 168.303 214.067 170.144 212.71 171.502C211.352 172.861 209.511 173.624 207.591 173.626H144.653C142.733 173.624 140.892 172.861 139.535 171.502C138.178 170.144 137.415 168.303 137.415 166.382V20.7216C137.415 18.8031 138.177 16.9632 139.534 15.6067C140.89 14.2501 142.73 13.488 144.649 13.488H171.663L171.687 13.5696C172.359 15.9936 173.909 17.568 175.628 17.568H176.588C178.311 17.568 179.857 15.9936 180.533 13.5696L180.557 13.488H207.567C208.52 13.4848 209.463 13.6697 210.344 14.0321C211.225 14.3944 212.026 14.9271 212.701 15.5996C213.376 16.272 213.911 17.0711 214.276 17.9508C214.641 18.8306 214.829 19.7738 214.829 20.7264Z" fill="white"/>
<path d="M214.829 125.17V20.7264C214.829 18.8066 214.067 16.9655 212.709 15.6081C211.352 14.2506 209.511 13.488 207.591 13.488H180.581L180.557 13.5696C179.881 15.9936 178.335 17.568 176.612 17.568H175.652C173.933 17.568 172.383 15.9936 171.711 13.5696L171.687 13.488H144.649C142.73 13.488 140.89 14.2501 139.534 15.6067C138.177 16.9632 137.415 18.8031 137.415 20.7216V125.17H214.829Z" fill="#1C2560"/>
<path d="M180.558 13.5696C179.881 15.9936 178.335 17.568 176.612 17.568H175.652C173.934 17.568 172.383 15.9936 171.711 13.5696L171.688 13.488H148.897C146.165 13.4879 143.523 14.4616 141.444 16.2342C139.365 18.0069 137.986 20.4624 137.555 23.16H214.686C214.254 20.4632 212.876 18.0083 210.799 16.2358C208.721 14.4633 206.079 13.4891 203.348 13.488H180.582L180.558 13.5696Z" fill="#D4D4D4"/>
<path d="M219.75 55.5168V40.968H218.42V22.344C218.42 19.2989 217.21 16.3785 215.057 14.2253C212.904 12.0721 209.984 10.8624 206.938 10.8624H145.287C143.779 10.8624 142.286 11.1594 140.893 11.7364C139.5 12.3134 138.235 13.1591 137.169 14.2253C136.102 15.2914 135.257 16.5572 134.68 17.9502C134.103 19.3432 133.806 20.8362 133.806 22.344V170.342C133.806 171.85 134.103 173.343 134.68 174.736C135.257 176.129 136.102 177.395 137.169 178.461C138.235 179.527 139.5 180.373 140.893 180.95C142.286 181.527 143.779 181.824 145.287 181.824H206.953C209.995 181.82 212.912 180.609 215.062 178.456C217.212 176.303 218.42 173.385 218.42 170.342V67.9152H219.735V59.3184H218.42V55.5168H219.75ZM214.83 162.144C214.828 165.189 213.618 168.108 211.465 170.261C209.312 172.414 206.393 173.624 203.348 173.626H148.897C147.389 173.626 145.896 173.329 144.503 172.752C143.11 172.175 141.844 171.329 140.778 170.263C139.712 169.197 138.866 167.931 138.289 166.538C137.712 165.145 137.415 163.652 137.415 162.144V24.96C137.418 21.9166 138.629 18.9986 140.782 16.8475C142.934 14.6963 145.853 13.488 148.897 13.488H171.663L171.687 13.5696C172.359 15.9936 173.91 17.568 175.628 17.568H176.588C178.311 17.568 179.857 15.9936 180.534 13.5696L180.558 13.488H203.348C206.391 13.4893 209.309 14.698 211.462 16.8489C213.615 18.9998 214.826 21.9169 214.83 24.96V162.144Z" fill="#707070" stroke="#263238" stroke-linejoin="round"/>
<path d="M206.036 12.4464H146.209C144.754 12.4458 143.314 12.7318 141.97 13.288C140.627 13.8443 139.406 14.66 138.377 15.6884C137.349 16.7168 136.533 17.9378 135.977 19.2816C135.421 20.6254 135.135 22.0656 135.135 23.52V169.171C135.135 170.625 135.422 172.065 135.978 173.408C136.535 174.751 137.351 175.972 138.379 177C139.407 178.028 140.628 178.843 141.972 179.399C143.315 179.955 144.755 180.241 146.209 180.24H206.036C207.49 180.24 208.929 179.954 210.272 179.397C211.615 178.841 212.835 178.026 213.863 176.998C214.891 175.97 215.706 174.75 216.262 173.407C216.819 172.064 217.105 170.625 217.105 169.171V23.52C217.105 22.066 216.82 20.6262 216.264 19.2827C215.708 17.9392 214.892 16.7184 213.865 15.6901C212.837 14.6617 211.616 13.846 210.273 13.2894C208.93 12.7329 207.49 12.4464 206.036 12.4464ZM214.83 162.552C214.83 165.489 213.663 168.305 211.586 170.382C209.51 172.459 206.693 173.626 203.756 173.626H148.489C145.552 173.626 142.735 172.459 140.659 170.382C138.582 168.305 137.415 165.489 137.415 162.552V24.5568C137.415 21.6212 138.581 18.8058 140.657 16.73C142.733 14.6542 145.548 13.488 148.484 13.488H171.663L171.687 13.5696C172.359 15.9936 173.91 17.568 175.628 17.568H176.588C178.311 17.568 179.857 15.9936 180.534 13.5696L180.558 13.488H203.732C206.669 13.488 209.486 14.6547 211.562 16.7314C213.639 18.8081 214.806 21.6247 214.806 24.5616L214.83 162.552Z" fill="#263238" stroke="#263238" stroke-linejoin="round"/>
<path d="M176.962 14.0352C176.962 13.8216 176.899 13.6128 176.78 13.4352C176.662 13.2576 176.493 13.1192 176.296 13.0374C176.098 12.9557 175.881 12.9343 175.672 12.976C175.462 13.0176 175.27 13.1205 175.119 13.2715C174.968 13.4226 174.865 13.615 174.823 13.8245C174.781 14.034 174.803 14.2512 174.884 14.4485C174.966 14.6458 175.105 14.8145 175.282 14.9332C175.46 15.0519 175.669 15.1152 175.882 15.1152C176.024 15.1158 176.165 15.0883 176.296 15.0343C176.428 14.9802 176.547 14.9007 176.647 14.8003C176.748 14.6999 176.827 14.5806 176.881 14.4492C176.935 14.3179 176.963 14.1772 176.962 14.0352Z" fill="white"/>
<path d="M144.294 18.168C144.294 19.2576 143.07 19.6512 143.065 20.4816V20.5392H144.255V20.904H142.667V20.5968C142.667 19.4304 143.891 19.2 143.891 18.1968C143.891 17.8272 143.766 17.6304 143.468 17.6304C143.171 17.6304 143.046 17.8416 143.046 18.1632V18.48H142.667V18.1872C142.667 17.6352 142.921 17.2656 143.478 17.2656C144.034 17.2656 144.294 17.616 144.294 18.168Z" fill="#263238"/>
<path d="M146.276 18.1632V18.24C146.293 18.3951 146.259 18.5515 146.18 18.6857C146.1 18.8199 145.979 18.9246 145.835 18.984C145.98 19.0436 146.101 19.1491 146.181 19.2842C146.261 19.4194 146.294 19.5769 146.276 19.7328V20.0112C146.276 20.568 146.017 20.928 145.46 20.928C144.903 20.928 144.649 20.568 144.649 20.0112V19.7664H145.023V20.04C145.023 20.3664 145.158 20.5632 145.446 20.5632C145.734 20.5632 145.873 20.3712 145.873 20.0016V19.7232C145.873 19.368 145.719 19.1952 145.417 19.1856H145.201V18.8256H145.46C145.521 18.8259 145.582 18.8133 145.638 18.7887C145.694 18.7641 145.744 18.728 145.785 18.6828C145.827 18.6375 145.858 18.5841 145.877 18.526C145.896 18.468 145.903 18.4065 145.897 18.3456V18.1776C145.897 17.808 145.767 17.616 145.47 17.616C145.172 17.616 145.047 17.8176 145.047 18.144V18.3264H144.673V18.1632C144.673 17.6112 144.927 17.2512 145.484 17.2512C146.041 17.2512 146.276 17.6112 146.276 18.1632Z" fill="#263238"/>
<path d="M147.053 18.4368V18.9168H146.669V18.4368H147.053ZM147.053 20.4048V20.8848H146.669V20.4048H147.053Z" fill="#263238"/>
<path d="M147.86 18.7632C147.913 18.6681 147.991 18.5896 148.086 18.5362C148.181 18.4828 148.289 18.4567 148.398 18.4608C148.878 18.4608 149.07 18.8016 149.07 19.32V20.0256C149.07 20.5824 148.81 20.9424 148.254 20.9424C147.697 20.9424 147.442 20.5824 147.442 20.0256V19.7856H147.822V20.0544C147.822 20.3808 147.956 20.5776 148.244 20.5776C148.532 20.5776 148.666 20.3808 148.666 20.0544V19.3488C148.666 19.0272 148.532 18.8304 148.244 18.8304C148.192 18.8285 148.14 18.8369 148.091 18.8552C148.042 18.8736 147.998 18.9014 147.96 18.9371C147.922 18.9728 147.891 19.0157 147.87 19.0633C147.849 19.1109 147.837 19.1623 147.836 19.2144V19.3008H147.462L147.558 17.2896H148.998V17.6496H147.932L147.86 18.7632Z" fill="#263238"/>
<path d="M151.091 18.1584V18.24H150.74V18.144C150.74 17.8224 150.606 17.6304 150.308 17.6304C150.011 17.6304 149.871 17.8272 149.871 18.2112V19.008C149.914 18.889 149.994 18.7871 150.1 18.7178C150.206 18.6485 150.331 18.6156 150.457 18.624C150.937 18.624 151.129 18.96 151.129 19.4784V20.0256C151.129 20.5824 150.851 20.9424 150.299 20.9424C149.747 20.9424 149.468 20.5824 149.468 20.0256V18.1824C149.468 17.6112 149.727 17.2512 150.299 17.2512C150.87 17.2512 151.091 17.6064 151.091 18.1584ZM149.847 19.512V20.0544C149.847 20.3808 149.982 20.5776 150.275 20.5776C150.567 20.5776 150.707 20.3808 150.707 20.0544V19.512C150.707 19.1856 150.567 18.9888 150.275 18.9888C149.982 18.9888 149.847 19.2 149.847 19.512Z" fill="#263238"/>
<path d="M190.585 18.3168H189.562V20.8704H190.585V18.3168Z" fill="#263238"/>
<path d="M191.948 17.8032H190.926V20.8704H191.948V17.8032Z" fill="#263238"/>
<path d="M193.307 17.4432H192.284V20.8704H193.307V17.4432Z" fill="#263238"/>
<path d="M194.67 16.8096H193.647V20.8704H194.67V16.8096Z" fill="#263238"/>
<path d="M207.308 20.7984H201.178V17.0544H207.308V20.7984ZM201.519 20.4576H206.967V17.3952H201.519V20.4576Z" fill="#263238"/>
<path d="M205.268 17.7648H202.033V20.088H205.268V17.7648Z" fill="#263238"/>
<path d="M207.869 18.4848H207.097V19.368H207.869V18.4848Z" fill="#263238"/>
<path d="M198.932 19.9872C198.892 19.9857 198.852 19.9742 198.817 19.9536C197.569 19.2096 196.743 19.9008 196.71 19.9536C196.687 19.9734 196.661 19.9886 196.632 19.9981C196.604 20.0077 196.574 20.0115 196.544 20.0092C196.514 20.007 196.485 19.9988 196.458 19.9851C196.431 19.9715 196.407 19.9526 196.388 19.9296C196.346 19.8866 196.323 19.8289 196.323 19.7688C196.323 19.7087 196.346 19.651 196.388 19.608C196.431 19.5696 197.487 18.648 199.033 19.608C199.059 19.6233 199.081 19.6435 199.099 19.6676C199.117 19.6916 199.129 19.7189 199.137 19.7479C199.144 19.777 199.145 19.8071 199.14 19.8367C199.136 19.8662 199.125 19.8945 199.11 19.92C199.086 19.9429 199.059 19.9607 199.028 19.9723C198.997 19.9839 198.965 19.989 198.932 19.9872Z" fill="#263238"/>
<path d="M199.393 19.2C199.352 19.2002 199.313 19.1903 199.277 19.1712C197.473 18.096 196.263 19.1328 196.249 19.1424C196.226 19.1623 196.2 19.1775 196.172 19.1873C196.144 19.1971 196.114 19.2012 196.084 19.1994C196.054 19.1976 196.025 19.19 195.998 19.1769C195.971 19.1638 195.947 19.1456 195.927 19.1232C195.907 19.1008 195.892 19.0747 195.882 19.0465C195.872 19.0182 195.868 18.9883 195.87 18.9584C195.872 18.9286 195.879 18.8993 195.893 18.8724C195.906 18.8455 195.924 18.8214 195.946 18.8016C195.946 18.8016 197.425 17.5344 199.513 18.7776C199.538 18.7929 199.561 18.8131 199.579 18.8372C199.596 18.8612 199.609 18.8885 199.616 18.9175C199.623 18.9466 199.625 18.9767 199.62 19.0063C199.616 19.0358 199.605 19.0641 199.589 19.0896C199.569 19.1233 199.54 19.1512 199.505 19.1705C199.471 19.1899 199.432 19.2 199.393 19.2Z" fill="#263238"/>
<path d="M199.815 18.3264C199.773 18.3249 199.732 18.3134 199.695 18.2928C197.411 16.9344 195.894 18.2112 195.831 18.2928C195.809 18.3127 195.783 18.3278 195.754 18.3373C195.726 18.3469 195.695 18.3507 195.665 18.3484C195.636 18.3462 195.606 18.338 195.58 18.3243C195.553 18.3107 195.529 18.2918 195.51 18.2688C195.488 18.2478 195.471 18.2228 195.46 18.1952C195.448 18.1676 195.442 18.1379 195.442 18.108C195.442 18.0781 195.448 18.0484 195.46 18.0208C195.471 17.9932 195.488 17.9682 195.51 17.9472C195.51 17.9472 197.329 16.3872 199.911 17.9232C199.963 17.9542 200.001 18.0042 200.016 18.0625C200.031 18.1209 200.023 18.1829 199.993 18.2352C199.972 18.2625 199.945 18.2848 199.914 18.3006C199.884 18.3163 199.85 18.3252 199.815 18.3264Z" fill="#263238"/>
<path d="M198.26 20.3664C198.261 20.4805 198.228 20.5923 198.165 20.6877C198.102 20.7831 198.013 20.8576 197.908 20.902C197.803 20.9463 197.687 20.9584 197.574 20.9367C197.462 20.915 197.359 20.8605 197.278 20.7802C197.197 20.6998 197.142 20.5972 197.119 20.4853C197.097 20.3735 197.108 20.2574 197.151 20.1519C197.195 20.0464 197.269 19.9561 197.363 19.8926C197.458 19.8291 197.57 19.7952 197.684 19.7952C197.836 19.7952 197.982 19.8552 198.089 19.9622C198.197 20.0692 198.259 20.2145 198.26 20.3664Z" fill="#263238"/>
<path d="M210.687 52.8912H142.307V96.6528H210.687V52.8912Z" fill="white" stroke="#263238" stroke-linecap="round" stroke-linejoin="round"/>
<path d="M210.687 91.7808H142.307V96.6576H210.687V91.7808Z" fill="white" stroke="#263238" stroke-linecap="round" stroke-linejoin="round"/>
<path d="M210.687 93.5088H142.307V94.9296H210.687V93.5088Z" fill="white" stroke="#263238" stroke-linecap="round" stroke-linejoin="round"/>
<path d="M143.406 48.1728L143.511 42.0528H144.831L145.59 45.8928L146.396 42.0528H147.678L147.783 48.1728H146.9L146.799 44.0256L146.022 48.1728H145.22L144.404 43.992L144.318 48.1728H143.406Z" fill="#263238"/>
<path d="M149.439 48.1728V45.7728L148.244 42.0768H149.415L150.073 44.2272L150.683 42.0768H151.82L150.639 45.7728V48.1728H149.439Z" fill="#263238"/>
<path d="M155.886 48.2592C155.508 48.2786 155.133 48.1886 154.806 48C154.545 47.8321 154.35 47.5796 154.254 47.2848C154.144 46.9422 154.092 46.5837 154.1 46.224V44.0256C154.092 43.6546 154.145 43.2847 154.258 42.9312C154.355 42.6445 154.549 42.4003 154.806 42.24C155.135 42.0573 155.509 41.9708 155.886 41.9904C156.242 41.9725 156.598 42.0469 156.918 42.2064C157.161 42.3462 157.348 42.567 157.446 42.8304C157.555 43.1267 157.607 43.4411 157.599 43.7568V44.256H156.39V43.68C156.397 43.5473 156.397 43.4143 156.39 43.2816C156.38 43.1704 156.337 43.0647 156.265 42.9792C156.216 42.9372 156.16 42.9054 156.099 42.8856C156.038 42.8659 155.973 42.8585 155.91 42.864C155.845 42.8585 155.779 42.8663 155.717 42.8869C155.655 42.9075 155.598 42.9406 155.55 42.984C155.47 43.0702 155.419 43.1794 155.406 43.296C155.386 43.4375 155.376 43.5803 155.377 43.7232V46.5072C155.376 46.6569 155.388 46.8063 155.415 46.9536C155.435 47.0672 155.49 47.1716 155.574 47.2512C155.67 47.3236 155.789 47.3593 155.91 47.352C155.972 47.3585 156.035 47.3516 156.095 47.3317C156.154 47.3118 156.209 47.2795 156.255 47.2368C156.328 47.1456 156.372 47.0357 156.385 46.92C156.395 46.7826 156.395 46.6446 156.385 46.5072V45.912H157.594V46.4208C157.601 46.747 157.551 47.072 157.446 47.3808C157.35 47.6498 157.165 47.8782 156.922 48.0288C156.605 48.2016 156.246 48.2814 155.886 48.2592Z" fill="#263238"/>
<path d="M160.071 48.2592C159.7 48.2776 159.331 48.1928 159.006 48.0144C158.745 47.8545 158.547 47.6107 158.444 47.3232C158.325 46.9775 158.268 46.6135 158.276 46.248V43.9632C158.268 43.5977 158.325 43.2337 158.444 42.888C158.548 42.6044 158.746 42.3654 159.006 42.2112C159.333 42.0386 159.701 41.9574 160.071 41.976C160.446 41.9564 160.819 42.0377 161.151 42.2112C161.412 42.3678 161.611 42.6081 161.718 42.8928C161.841 43.2359 161.899 43.5988 161.891 43.9632V46.248C161.899 46.614 161.841 46.9784 161.718 47.3232C161.614 47.612 161.414 47.8562 161.151 48.0144C160.821 48.1938 160.447 48.2785 160.071 48.2592ZM160.071 47.3568C160.136 47.3636 160.201 47.3573 160.263 47.3384C160.324 47.3194 160.382 47.2881 160.431 47.2464C160.509 47.1662 160.561 47.064 160.58 46.9536C160.606 46.8223 160.619 46.6889 160.618 46.5552V43.68C160.619 43.5479 160.606 43.416 160.58 43.2864C160.559 43.1766 160.508 43.075 160.431 42.9936C160.329 42.9143 160.2 42.8765 160.071 42.888C159.95 42.8794 159.83 42.9171 159.735 42.9936C159.656 43.0734 159.602 43.1755 159.582 43.2864C159.556 43.416 159.543 43.5479 159.543 43.68V46.56C159.544 46.6935 159.555 46.8267 159.577 46.9584C159.593 47.0695 159.646 47.1723 159.726 47.2512C159.823 47.3301 159.947 47.368 160.071 47.3568Z" fill="#263238"/>
<path d="M164.444 48.2592C164.069 48.28 163.695 48.1969 163.364 48.0192C163.107 47.863 162.914 47.6193 162.822 47.3328C162.71 46.979 162.659 46.6092 162.668 46.2384V42.0528H163.897V46.4112C163.898 46.5606 163.909 46.7097 163.931 46.8576C163.948 46.9879 164.001 47.1109 164.084 47.2128C164.13 47.2615 164.186 47.2992 164.248 47.3233C164.311 47.3474 164.377 47.3572 164.444 47.352C164.511 47.3556 164.578 47.3451 164.641 47.3212C164.704 47.2972 164.761 47.2603 164.809 47.2128C164.892 47.1116 164.944 46.988 164.958 46.8576C164.977 46.7096 164.987 46.5605 164.986 46.4112V42.0528H166.22V46.2384C166.228 46.6091 166.176 46.9785 166.066 47.3328C165.969 47.6114 165.777 47.8473 165.524 48C165.194 48.1832 164.821 48.2729 164.444 48.2592Z" fill="#263238"/>
<path d="M167.089 48.1728V42.0528H168.678C169.036 42.0437 169.394 42.0907 169.738 42.192C170.015 42.2673 170.256 42.4372 170.42 42.672C170.589 42.9626 170.671 43.296 170.655 43.632C170.659 43.856 170.638 44.0797 170.593 44.2992C170.551 44.4729 170.475 44.6363 170.367 44.7792C170.24 44.9344 170.075 45.0535 169.887 45.1248L170.737 48.1104H169.46L168.754 45.336H168.318V48.1104L167.089 48.1728ZM168.337 44.6592H168.697C168.863 44.6677 169.028 44.633 169.177 44.5584C169.293 44.4939 169.381 44.3875 169.422 44.2608C169.472 44.1059 169.496 43.9437 169.494 43.7808C169.507 43.5544 169.454 43.329 169.34 43.1328C169.269 43.0513 169.178 42.9886 169.077 42.9501C168.976 42.9116 168.867 42.8985 168.759 42.912H168.337V44.6592Z" fill="#263238"/>
<path d="M173.06 48.2592C172.727 48.2733 172.396 48.2005 172.1 48.048C171.847 47.9072 171.647 47.6882 171.529 47.424C171.39 47.0838 171.315 46.7209 171.308 46.3536L172.383 46.1712C172.387 46.3829 172.413 46.5936 172.46 46.8C172.488 46.9426 172.557 47.0741 172.657 47.1792C172.747 47.2615 172.866 47.3061 172.988 47.304C173.051 47.3114 173.115 47.3015 173.172 47.2753C173.23 47.249 173.279 47.2075 173.314 47.1552C173.373 47.0479 173.403 46.9271 173.401 46.8048C173.408 46.5767 173.344 46.352 173.218 46.1616C173.08 45.9675 172.918 45.7903 172.738 45.6336L172.105 45.0816C171.884 44.8987 171.696 44.6796 171.548 44.4336C171.397 44.1608 171.322 43.8524 171.332 43.5408C171.319 43.3269 171.351 43.1125 171.427 42.9122C171.503 42.7118 171.621 42.5301 171.774 42.3792C172.113 42.0956 172.547 41.9515 172.988 41.976C173.248 41.9649 173.506 42.0159 173.742 42.1248C173.936 42.2138 174.103 42.355 174.222 42.5328C174.329 42.702 174.405 42.8889 174.447 43.0848C174.489 43.2794 174.516 43.4767 174.529 43.6752L173.458 43.8336C173.452 43.6728 173.436 43.5125 173.41 43.3536C173.399 43.2324 173.352 43.1172 173.276 43.0224C173.234 42.9797 173.183 42.9466 173.127 42.9252C173.071 42.9038 173.011 42.8946 172.951 42.8982C172.891 42.9018 172.832 42.9182 172.779 42.9462C172.726 42.9743 172.679 43.0133 172.642 43.0608C172.575 43.1687 172.538 43.2933 172.537 43.4208C172.531 43.6094 172.583 43.7954 172.686 43.9536C172.805 44.1123 172.94 44.2587 173.089 44.3904L173.708 44.9328C173.965 45.1517 174.188 45.4072 174.37 45.6912C174.565 46.0082 174.662 46.3755 174.649 46.7472C174.652 47.0191 174.584 47.2872 174.452 47.5248C174.323 47.7537 174.134 47.9429 173.905 48.072C173.644 48.2063 173.353 48.2707 173.06 48.2592Z" fill="#263238"/>
<path d="M175.191 48.1728V42.0528H177.86V42.912H176.42V44.5392H177.519V45.408H176.42V47.328H177.86V48.1728H175.191Z" fill="#263238"/>
<path d="M143.118 105.086V100.258H143.78V105.086H143.118Z" fill="#263238"/>
<path d="M144.562 105.086V100.258H145.018L146.391 103.464V100.258H146.953V105.086H146.521L145.134 101.789V105.086H144.562Z" fill="#263238"/>
<path d="M148.239 105.086V100.766H147.423V100.286H149.708V100.766H148.916V105.086H148.239Z" fill="#263238"/>
<path d="M150.174 105.086V100.258H151.134C151.407 100.249 151.679 100.293 151.935 100.387C152.141 100.458 152.312 100.604 152.415 100.795C152.526 101.027 152.579 101.282 152.569 101.539C152.572 101.711 152.551 101.882 152.507 102.048C152.475 102.19 152.411 102.323 152.319 102.437C152.227 102.543 152.108 102.623 151.974 102.667L152.655 105.067H152.007L151.374 102.802H150.851V105.067L150.174 105.086ZM150.846 102.336H151.1C151.263 102.345 151.426 102.322 151.58 102.269C151.697 102.225 151.791 102.137 151.844 102.024C151.906 101.872 151.934 101.708 151.926 101.544C151.944 101.329 151.89 101.115 151.772 100.934C151.689 100.861 151.591 100.806 151.485 100.774C151.379 100.742 151.268 100.733 151.158 100.747H150.86L150.846 102.336Z" fill="#263238"/>
<path d="M154.503 105.12C154.23 105.133 153.959 105.068 153.721 104.933C153.524 104.803 153.377 104.61 153.303 104.386C153.213 104.118 153.171 103.837 153.179 103.555V101.76C153.173 101.481 153.216 101.204 153.303 100.939C153.381 100.723 153.528 100.539 153.721 100.416C153.96 100.285 154.231 100.222 154.503 100.234C154.774 100.22 155.042 100.285 155.276 100.421C155.469 100.543 155.615 100.728 155.689 100.944C155.781 101.206 155.825 101.482 155.819 101.76V103.598C155.823 103.877 155.78 104.155 155.689 104.419C155.616 104.642 155.471 104.835 155.276 104.966C155.039 105.093 154.77 105.146 154.503 105.12ZM154.503 104.592C154.646 104.601 154.788 104.563 154.907 104.482C155.001 104.401 155.067 104.291 155.094 104.17C155.126 104.012 155.14 103.851 155.137 103.69V101.573C155.141 101.412 155.126 101.251 155.094 101.093C155.066 100.976 155 100.871 154.907 100.795C154.786 100.72 154.645 100.685 154.503 100.694C154.359 100.685 154.215 100.72 154.091 100.795C153.997 100.871 153.932 100.976 153.903 101.093C153.869 101.25 153.853 101.411 153.855 101.573V103.69C153.854 103.851 153.87 104.012 153.903 104.17C153.93 104.291 153.996 104.401 154.091 104.482C154.21 104.569 154.355 104.615 154.503 104.611V104.592Z" fill="#263238"/>
<path d="M156.5 105.086V100.258H157.551C157.843 100.244 158.134 100.3 158.401 100.421C158.601 100.523 158.759 100.693 158.847 100.901C158.943 101.162 158.988 101.439 158.982 101.717V103.493C158.988 103.786 158.942 104.079 158.847 104.357C158.767 104.579 158.613 104.768 158.41 104.89C158.164 105.024 157.884 105.087 157.604 105.072L156.5 105.086ZM157.172 104.606H157.556C157.742 104.625 157.929 104.573 158.079 104.462C158.192 104.352 158.259 104.203 158.266 104.045C158.292 103.825 158.303 103.604 158.3 103.382V101.813C158.305 101.608 158.288 101.404 158.252 101.203C158.243 101.136 158.22 101.071 158.185 101.013C158.149 100.955 158.102 100.905 158.046 100.867C157.889 100.784 157.713 100.746 157.537 100.757H157.172V104.606Z" fill="#263238"/>
<path d="M160.868 105.12C160.585 105.139 160.304 105.067 160.066 104.914C159.875 104.768 159.739 104.562 159.682 104.328C159.611 104.038 159.577 103.739 159.581 103.44V100.238H160.225V103.469C160.223 103.658 160.238 103.848 160.268 104.035C160.286 104.187 160.349 104.329 160.45 104.443C160.506 104.496 160.572 104.536 160.643 104.561C160.715 104.587 160.792 104.597 160.868 104.592C160.945 104.597 161.023 104.587 161.097 104.561C161.17 104.536 161.238 104.496 161.295 104.443C161.392 104.327 161.454 104.186 161.473 104.035C161.501 103.848 161.514 103.658 161.511 103.469V100.238H162.149V103.44C162.154 103.739 162.12 104.038 162.049 104.328C161.994 104.561 161.86 104.768 161.669 104.914C161.432 105.067 161.15 105.14 160.868 105.12Z" fill="#263238"/>
<path d="M164.07 105.12C163.79 105.136 163.512 105.062 163.278 104.909C163.085 104.764 162.947 104.56 162.884 104.328C162.806 104.065 162.769 103.791 162.774 103.517V101.813C162.767 101.524 162.805 101.236 162.884 100.958C162.946 100.731 163.085 100.533 163.278 100.397C163.508 100.27 163.766 100.201 164.03 100.196C164.293 100.19 164.553 100.247 164.79 100.363C164.969 100.475 165.104 100.644 165.174 100.843C165.256 101.084 165.295 101.338 165.289 101.592V101.971H164.66V101.63C164.662 101.47 164.652 101.31 164.631 101.15C164.623 101.03 164.572 100.916 164.487 100.829C164.373 100.743 164.231 100.704 164.089 100.718C163.939 100.704 163.79 100.747 163.671 100.838C163.579 100.932 163.518 101.053 163.498 101.184C163.472 101.357 163.459 101.532 163.46 101.707V103.627C163.454 103.82 163.475 104.012 163.522 104.198C163.546 104.321 163.617 104.429 163.719 104.501C163.83 104.568 163.959 104.6 164.089 104.592C164.159 104.598 164.231 104.59 164.298 104.569C164.366 104.547 164.428 104.513 164.482 104.467C164.566 104.374 164.619 104.256 164.631 104.131C164.651 103.972 164.661 103.812 164.66 103.651V103.291H165.298V103.651C165.301 103.914 165.265 104.176 165.193 104.429C165.132 104.641 165 104.826 164.818 104.952C164.593 105.086 164.331 105.144 164.07 105.12Z" fill="#263238"/>
<path d="M166.465 105.086V100.766H165.644V100.286H167.929V100.766H167.137V105.086H166.465Z" fill="#263238"/>
<path d="M168.428 105.086V100.258H169.091V105.086H168.428Z" fill="#263238"/>
<path d="M171.107 105.12C170.835 105.134 170.565 105.069 170.329 104.933C170.132 104.803 169.984 104.61 169.911 104.386C169.821 104.118 169.779 103.837 169.787 103.555V101.76C169.779 101.481 169.821 101.203 169.911 100.939C169.989 100.723 170.135 100.539 170.329 100.416C170.566 100.283 170.835 100.22 171.107 100.234C171.378 100.22 171.648 100.285 171.884 100.421C172.076 100.544 172.221 100.729 172.297 100.944C172.389 101.206 172.433 101.482 172.427 101.76V103.598C172.431 103.877 172.388 104.155 172.297 104.419C172.222 104.641 172.077 104.833 171.884 104.966C171.646 105.093 171.375 105.146 171.107 105.12ZM171.107 104.592C171.251 104.602 171.395 104.563 171.515 104.482C171.61 104.402 171.674 104.292 171.697 104.17C171.733 104.012 171.749 103.851 171.745 103.69V101.573C171.75 101.411 171.734 101.25 171.697 101.093C171.672 100.975 171.608 100.87 171.515 100.795C171.393 100.719 171.25 100.684 171.107 100.694C170.963 100.685 170.821 100.721 170.699 100.795C170.605 100.871 170.54 100.976 170.511 101.093C170.475 101.25 170.459 101.411 170.463 101.573V103.69C170.459 103.851 170.475 104.012 170.511 104.17C170.538 104.291 170.604 104.401 170.699 104.482C170.817 104.568 170.96 104.614 171.107 104.611V104.592Z" fill="#263238"/>
<path d="M173.089 105.086V100.258H173.545L174.918 103.464V100.258H175.479V105.086H175.047L173.66 101.789V105.086H173.089Z" fill="#263238"/>
<path d="M145.604 61.8192V57.2448H146.655C146.837 57.2425 147.018 57.2651 147.193 57.312C147.334 57.3525 147.463 57.4248 147.572 57.5232C147.678 57.6206 147.756 57.745 147.798 57.8832C147.853 58.047 147.879 58.2192 147.874 58.392C147.877 58.5548 147.852 58.7169 147.802 58.872C147.762 58.9972 147.687 59.1086 147.586 59.1936C147.48 59.2787 147.352 59.3319 147.217 59.3472C147.381 59.3775 147.535 59.4503 147.663 59.5584C147.779 59.6631 147.866 59.7951 147.918 59.9424C147.975 60.124 148.002 60.3136 147.999 60.504C148 60.6853 147.978 60.8661 147.932 61.0416C147.89 61.1927 147.816 61.3333 147.716 61.4544C147.617 61.5701 147.492 61.6606 147.351 61.7184C147.182 61.7816 147.003 61.8125 146.823 61.8096L145.604 61.8192ZM146.242 59.1552H146.622C146.766 59.1602 146.91 59.134 147.044 59.0784C147.144 59.0276 147.22 58.9397 147.255 58.8336C147.302 58.6912 147.323 58.5417 147.318 58.392C147.337 58.2259 147.303 58.058 147.222 57.912C147.187 57.863 147.143 57.8219 147.092 57.7913C147.041 57.7606 146.983 57.7413 146.924 57.7344C146.749 57.7065 146.573 57.6937 146.396 57.696H146.242V59.1552ZM146.242 61.3632H146.67C146.775 61.3774 146.882 61.3666 146.982 61.3315C147.082 61.2965 147.172 61.2383 147.246 61.1616C147.357 60.9648 147.407 60.7391 147.39 60.5136C147.393 60.3503 147.367 60.1878 147.313 60.0336C147.267 59.9108 147.181 59.8074 147.068 59.7408C146.931 59.6672 146.777 59.6324 146.622 59.64H146.242V61.3632Z" fill="#263238"/>
<path d="M149.741 61.8672C149.472 61.8858 149.205 61.8167 148.978 61.6704C148.796 61.5334 148.668 61.3361 148.618 61.1136C148.551 60.8404 148.519 60.5597 148.522 60.2784V57.2448H149.132V60.3072C149.131 60.4855 149.144 60.6636 149.17 60.84C149.189 60.9822 149.249 61.1158 149.343 61.224C149.395 61.2749 149.458 61.3141 149.527 61.339C149.595 61.3638 149.669 61.3737 149.741 61.368C149.815 61.3738 149.889 61.3639 149.958 61.3391C150.028 61.3143 150.091 61.2751 150.145 61.224C150.237 61.1152 150.295 60.9817 150.313 60.84C150.339 60.6636 150.352 60.4855 150.351 60.3072V57.2448H150.956V60.2784C150.96 60.5597 150.927 60.8404 150.86 61.1136C150.81 61.3361 150.682 61.5334 150.5 61.6704C150.276 61.8176 150.009 61.8868 149.741 61.8672Z" fill="#263238"/>
<path d="M152.703 61.8672C152.472 61.8765 152.244 61.8181 152.046 61.6992C151.869 61.5819 151.73 61.4149 151.647 61.2192C151.556 60.998 151.504 60.7624 151.494 60.5232L152.055 60.3696C152.068 60.5314 152.094 60.6919 152.132 60.8496C152.165 60.9876 152.233 61.1148 152.329 61.2192C152.377 61.2688 152.436 61.3073 152.5 61.3322C152.565 61.357 152.634 61.3676 152.703 61.3632C152.773 61.3689 152.843 61.3595 152.908 61.3354C152.974 61.3114 153.033 61.2734 153.082 61.224C153.172 61.1113 153.216 60.9693 153.207 60.8256C153.211 60.6551 153.163 60.4875 153.068 60.3456C152.961 60.2088 152.842 60.0818 152.713 59.9664L151.945 59.2848C151.803 59.1686 151.688 59.0228 151.609 58.8576C151.533 58.6737 151.497 58.4757 151.503 58.2768C151.494 58.1343 151.515 57.9914 151.565 57.8575C151.614 57.7236 151.692 57.6015 151.791 57.4992C151.897 57.403 152.02 57.3288 152.154 57.281C152.289 57.2332 152.431 57.2127 152.574 57.2208C152.737 57.2175 152.899 57.2418 153.054 57.2928C153.183 57.3369 153.299 57.4109 153.394 57.5088C153.495 57.6137 153.571 57.7401 153.615 57.8784C153.676 58.047 153.713 58.223 153.726 58.4016L153.183 58.5456C153.174 58.4061 153.152 58.2678 153.116 58.1328C153.087 58.0156 153.026 57.909 152.938 57.8256C152.836 57.7421 152.705 57.7009 152.574 57.7104C152.507 57.7065 152.439 57.716 152.376 57.7382C152.312 57.7605 152.254 57.795 152.204 57.84C152.157 57.8896 152.121 57.9486 152.099 58.0132C152.076 58.0778 152.068 58.1464 152.074 58.2144C152.071 58.3331 152.094 58.4512 152.142 58.56C152.201 58.6648 152.279 58.7576 152.372 58.8336L153.14 59.52C153.319 59.6744 153.473 59.8557 153.596 60.0576C153.735 60.2805 153.805 60.5392 153.798 60.8016C153.803 61.0047 153.753 61.2054 153.654 61.3824C153.565 61.5422 153.432 61.6724 153.27 61.7568C153.092 61.8384 152.898 61.8762 152.703 61.8672Z" fill="#263238"/>
<path d="M154.331 61.8192V57.2448H154.959V61.8192H154.331Z" fill="#263238"/>
<path d="M155.698 61.8192V57.2448H156.13L157.431 60.2832V57.2448H157.94V61.8192H157.537L156.221 58.6992V61.8192H155.698Z" fill="#263238"/>
<path d="M158.679 61.8192V57.2448H160.45V57.7248H159.318V59.2368H160.234V59.688H159.318V61.368H160.46V61.824L158.679 61.8192Z" fill="#263238"/>
<path d="M162.054 61.8672C161.823 61.8776 161.594 61.8191 161.396 61.6992C161.219 61.5819 161.08 61.4149 160.998 61.2192C160.902 60.9991 160.848 60.7631 160.839 60.5232L161.406 60.3696C161.413 60.5319 161.439 60.6929 161.483 60.8496C161.514 60.9872 161.58 61.1144 161.675 61.2192C161.723 61.2694 161.783 61.3083 161.848 61.3332C161.914 61.3581 161.984 61.3683 162.054 61.3632C162.122 61.3682 162.192 61.3584 162.256 61.3344C162.321 61.3104 162.379 61.2727 162.428 61.224C162.521 61.1129 162.568 60.9701 162.558 60.8256C162.562 60.6543 162.512 60.4861 162.414 60.3456C162.31 60.2064 162.191 60.0792 162.059 59.9664L161.291 59.2848C161.152 59.1671 161.039 59.0215 160.959 58.8576C160.881 58.6741 160.844 58.4761 160.849 58.2768C160.841 58.1339 160.862 57.9909 160.913 57.8569C160.963 57.723 161.041 57.6011 161.142 57.4992C161.247 57.403 161.37 57.3288 161.505 57.281C161.639 57.2332 161.782 57.2127 161.924 57.2208C162.087 57.2175 162.249 57.2418 162.404 57.2928C162.535 57.3357 162.654 57.4098 162.75 57.5088C162.848 57.6152 162.924 57.7411 162.971 57.8784C163.029 58.0476 163.066 58.2233 163.081 58.4016L162.539 58.5456C162.53 58.4061 162.507 58.2678 162.471 58.1328C162.441 58.0164 162.379 57.9104 162.294 57.8256C162.191 57.7429 162.061 57.7018 161.929 57.7104C161.862 57.7048 161.794 57.7135 161.73 57.7358C161.667 57.7581 161.608 57.7936 161.559 57.84C161.511 57.8892 161.475 57.948 161.452 58.0126C161.428 58.0772 161.419 58.146 161.425 58.2144C161.421 58.3337 161.445 58.4523 161.497 58.56C161.556 58.6648 161.634 58.7576 161.727 58.8336L162.5 59.5152C162.679 59.6696 162.833 59.8509 162.956 60.0528C163.091 60.2771 163.159 60.5351 163.153 60.7968C163.158 60.9992 163.11 61.1994 163.014 61.3776C162.923 61.537 162.788 61.6669 162.625 61.752C162.447 61.8371 162.251 61.8767 162.054 61.8672Z" fill="#263238"/>
<path d="M164.722 61.8672C164.491 61.877 164.263 61.8186 164.065 61.6992C163.887 61.5819 163.749 61.4149 163.666 61.2192C163.57 60.9991 163.517 60.763 163.508 60.5232L164.074 60.3696C164.084 60.5317 164.11 60.6924 164.151 60.8496C164.184 60.9865 164.25 61.1133 164.343 61.2192C164.392 61.2694 164.451 61.3083 164.517 61.3332C164.582 61.3581 164.652 61.3683 164.722 61.3632C164.791 61.3682 164.86 61.3584 164.925 61.3344C164.989 61.3104 165.048 61.2727 165.097 61.224C165.19 61.1129 165.236 60.9701 165.226 60.8256C165.231 60.6543 165.18 60.4861 165.082 60.3456C164.978 60.2064 164.859 60.0792 164.727 59.9664L163.959 59.2848C163.82 59.1671 163.707 59.0215 163.628 58.8576C163.552 58.6737 163.516 58.4757 163.522 58.2768C163.513 58.1343 163.534 57.9914 163.584 57.8575C163.633 57.7236 163.711 57.6015 163.81 57.4992C163.916 57.403 164.039 57.3288 164.173 57.281C164.308 57.2332 164.45 57.2127 164.593 57.2208C164.756 57.2175 164.918 57.2418 165.073 57.2928C165.202 57.3369 165.318 57.4109 165.413 57.5088C165.512 57.6152 165.587 57.7411 165.634 57.8784C165.695 58.047 165.732 58.223 165.745 58.4016L165.202 58.5456C165.193 58.4061 165.171 58.2678 165.135 58.1328C165.106 58.0156 165.045 57.909 164.957 57.8256C164.854 57.7429 164.724 57.7018 164.593 57.7104C164.525 57.7065 164.458 57.716 164.395 57.7382C164.331 57.7605 164.273 57.795 164.223 57.84C164.176 57.8896 164.14 57.9486 164.118 58.0132C164.095 58.0778 164.087 58.1464 164.093 58.2144C164.088 58.3333 164.111 58.4519 164.161 58.56C164.22 58.6648 164.298 58.7576 164.391 58.8336L165.164 59.5152C165.343 59.6696 165.497 59.8509 165.62 60.0528C165.757 60.2761 165.825 60.5348 165.817 60.7968C165.824 60.9994 165.776 61.2002 165.677 61.3776C165.586 61.537 165.451 61.6669 165.289 61.752C165.112 61.8363 164.918 61.8759 164.722 61.8672Z" fill="#263238"/>
<path d="M146.751 68.64C146.484 68.6576 146.219 68.5849 145.998 68.4336C145.816 68.2971 145.685 68.1049 145.623 67.8864C145.551 67.6368 145.516 67.3781 145.518 67.1184V65.5056C145.515 65.2332 145.55 64.9616 145.623 64.6992C145.682 64.4834 145.815 64.295 145.998 64.1664C146.217 64.0447 146.463 63.9781 146.714 63.9722C146.964 63.9664 147.213 64.0215 147.438 64.1328C147.605 64.24 147.733 64.3982 147.803 64.584C147.88 64.811 147.918 65.0498 147.913 65.2896V65.6544H147.308V65.3328C147.31 65.1819 147.3 65.0311 147.279 64.8816C147.272 64.7681 147.224 64.6609 147.145 64.5792C147.036 64.4978 146.901 64.4601 146.766 64.4736C146.625 64.4605 146.484 64.5017 146.372 64.5888C146.282 64.6755 146.224 64.7908 146.209 64.9152C146.183 65.0739 146.17 65.2344 146.171 65.3952V67.2096C146.166 67.3922 146.185 67.5746 146.228 67.752C146.254 67.866 146.321 67.9668 146.415 68.0352C146.521 68.0982 146.643 68.1282 146.766 68.1216C146.832 68.1291 146.899 68.1227 146.963 68.1029C147.026 68.0831 147.085 68.0502 147.135 68.0064C147.217 67.9195 147.267 67.8081 147.279 67.6896C147.3 67.5304 147.31 67.3701 147.308 67.2096V66.8688H147.913V67.2096C147.918 67.4585 147.882 67.7066 147.807 67.944C147.746 68.1381 147.623 68.3068 147.457 68.424C147.25 68.5683 147.003 68.6439 146.751 68.64Z" fill="#263238"/>
<path d="M149.679 68.64C149.42 68.6523 149.164 68.5889 148.94 68.4576C148.755 68.3354 148.616 68.1545 148.546 67.944C148.461 67.6889 148.42 67.4209 148.426 67.152V65.424C148.42 65.1613 148.461 64.8995 148.546 64.6512C148.624 64.4522 148.764 64.2837 148.945 64.1712C149.173 64.056 149.424 63.996 149.679 63.996C149.934 63.996 150.186 64.056 150.414 64.1712C150.593 64.2845 150.731 64.4529 150.807 64.6512C150.893 64.8995 150.934 65.1613 150.927 65.424V67.1664C150.933 67.4306 150.893 67.6939 150.807 67.944C150.735 68.1542 150.597 68.3358 150.414 68.4624C150.191 68.5919 149.936 68.6536 149.679 68.64ZM149.679 68.16C149.816 68.1703 149.951 68.133 150.063 68.0544C150.155 67.9811 150.216 67.877 150.236 67.7616C150.271 67.6171 150.287 67.4686 150.284 67.32V65.28C150.287 65.1329 150.271 64.9861 150.236 64.8432C150.214 64.7313 150.153 64.6309 150.063 64.56C149.945 64.497 149.813 64.464 149.679 64.464C149.545 64.464 149.413 64.497 149.295 64.56C149.204 64.6307 149.139 64.7307 149.113 64.8432C149.082 64.9867 149.068 65.1332 149.07 65.28V67.2864C149.068 67.4347 149.082 67.5829 149.113 67.728C149.138 67.8437 149.203 67.9471 149.295 68.0208C149.403 68.1114 149.539 68.1608 149.679 68.16Z" fill="#263238"/>
<path d="M151.542 68.592L151.628 64.0224H152.252L153.063 67.728L153.874 64.0224H154.493L154.58 68.592H154.066L154.013 65.2752L153.241 68.592H152.881L152.113 65.2752L152.06 68.592H151.542Z" fill="#263238"/>
<path d="M155.267 68.592L155.353 64.0224H155.982L156.788 67.728L157.599 64.0224H158.219L158.305 68.592H157.791L157.739 65.2752L156.98 68.592H156.62L155.852 65.2752L155.804 68.592H155.267Z" fill="#263238"/>
<path d="M160.186 68.64C159.917 68.6562 159.65 68.5873 159.423 68.4432C159.241 68.3062 159.113 68.1089 159.063 67.8864C158.993 67.612 158.961 67.3294 158.967 67.0464V64.0176H159.577V67.0752C159.574 67.2552 159.587 67.435 159.615 67.6128C159.632 67.7556 159.692 67.8897 159.788 67.9968C159.901 68.0871 160.041 68.1364 160.186 68.1364C160.331 68.1364 160.472 68.0871 160.585 67.9968C160.677 67.8881 160.736 67.7545 160.753 67.6128C160.783 67.4352 160.797 67.2553 160.796 67.0752V64.0176H161.401V67.0464C161.405 67.3297 161.371 67.6123 161.3 67.8864C161.248 68.1069 161.123 68.3033 160.945 68.4432C160.719 68.5876 160.454 68.6565 160.186 68.64Z" fill="#263238"/>
<path d="M162.068 68.592V64.0224H162.505L163.805 67.056V64.0224H164.333V68.592H163.925L162.61 65.472V68.592H162.068Z" fill="#263238"/>
<path d="M165.087 68.592V64.0224H165.711V68.592H165.087Z" fill="#263238"/>
<path d="M167.598 68.64C167.33 68.6576 167.065 68.5849 166.844 68.4336C166.664 68.2959 166.533 68.1041 166.47 67.8864C166.398 67.6368 166.362 67.3781 166.364 67.1184V65.5056C166.361 65.2332 166.396 64.9617 166.47 64.6992C166.531 64.4844 166.663 64.2966 166.844 64.1664C167.069 64.0244 167.332 63.9572 167.598 63.9744C167.835 63.9627 168.071 64.0176 168.279 64.1328C168.443 64.2427 168.568 64.4002 168.639 64.584C168.717 64.811 168.754 65.0498 168.75 65.2896V65.6544H168.145V65.3328C168.145 65.1821 168.137 65.0314 168.121 64.8816C168.109 64.7683 168.06 64.6622 167.982 64.5792C167.873 64.4978 167.738 64.4601 167.602 64.4736C167.461 64.4605 167.321 64.5017 167.209 64.5888C167.118 64.6755 167.061 64.7908 167.046 64.9152C167.02 65.0739 167.007 65.2344 167.007 65.3952V67.2096C167.002 67.3922 167.022 67.5746 167.065 67.752C167.091 67.866 167.157 67.9668 167.252 68.0352C167.358 68.0982 167.48 68.1282 167.602 68.1216C167.737 68.1342 167.872 68.0928 167.977 68.0064C168.055 67.9177 168.103 67.8071 168.116 67.6896C168.137 67.5305 168.146 67.3701 168.145 67.2096V66.8688H168.75V67.2096C168.754 67.4581 168.72 67.7058 168.649 67.944C168.586 68.137 168.463 68.3051 168.298 68.424C168.092 68.5657 167.848 68.641 167.598 68.64Z" fill="#263238"/>
<path d="M169.11 68.592L170.07 64.0224H170.689L171.649 68.592H171.044L170.838 67.44H169.94L169.719 68.592H169.11ZM170.012 66.984H170.775L170.391 64.9248L170.012 66.984Z" fill="#263238"/>
<path d="M172.455 68.592V64.4928H171.683V64.0128H173.847V64.4928H173.094V68.592H172.455Z" fill="#263238"/>
<path d="M174.322 68.592V64.0224H174.946V68.592H174.322Z" fill="#263238"/>
<path d="M176.857 68.64C176.596 68.6521 176.338 68.5888 176.113 68.4576C175.929 68.334 175.791 68.1536 175.719 67.944C175.636 67.6884 175.595 67.4208 175.599 67.152V65.424C175.594 65.161 175.636 64.8992 175.724 64.6512C175.798 64.452 175.937 64.2832 176.117 64.1712C176.343 64.045 176.599 63.9851 176.857 63.9984C177.112 63.9865 177.365 64.0482 177.586 64.176C177.766 64.2893 177.904 64.4577 177.98 64.656C178.066 64.9044 178.106 65.1661 178.1 65.4288V67.1712C178.106 67.4354 178.065 67.6987 177.98 67.9488C177.907 68.159 177.769 68.3406 177.586 68.4672C177.365 68.5957 177.112 68.6558 176.857 68.64ZM176.857 68.16C176.992 68.1704 177.126 68.133 177.236 68.0544C177.329 67.982 177.392 67.8777 177.413 67.7616C177.444 67.6165 177.459 67.4683 177.457 67.32V65.28C177.459 65.1332 177.444 64.9867 177.413 64.8432C177.39 64.7306 177.327 64.6301 177.236 64.56C177.123 64.4891 176.99 64.4555 176.857 64.464C176.72 64.4551 176.584 64.4886 176.468 64.56C176.377 64.6301 176.314 64.7306 176.29 64.8432C176.259 64.9867 176.245 65.1332 176.247 65.28V67.2864C176.245 67.4347 176.259 67.5829 176.29 67.728C176.314 67.8432 176.377 67.9467 176.468 68.0208C176.577 68.1121 176.715 68.1615 176.857 68.16Z" fill="#263238"/>
<path d="M178.729 68.592V64.0224H179.166L180.462 67.056V64.0224H180.98V68.592H180.572L179.257 65.472V68.592H178.729Z" fill="#263238"/>
<path d="M196.374 111.418H208.815" stroke="#263238" stroke-miterlimit="10"/>
<path d="M168.385 111.418H193.983" stroke="#263238" stroke-miterlimit="10"/>
<path d="M143.501 111.418H165.989" stroke="#263238" stroke-miterlimit="10"/>
<path d="M160.009 115.008H208.815" stroke="#263238" stroke-miterlimit="10"/>
<path d="M143.501 115.008H157.853" stroke="#263238" stroke-miterlimit="10"/>
<path d="M201.879 118.598H208.815" stroke="#263238" stroke-miterlimit="10"/>
<path d="M169.58 118.598H199.484" stroke="#263238" stroke-miterlimit="10"/>
<path d="M143.501 118.598H166.949" stroke="#263238" stroke-miterlimit="10"/>
<path d="M205.229 122.184H208.815" stroke="#263238" stroke-miterlimit="10"/>
<path d="M195.659 122.184H202.835" stroke="#263238" stroke-miterlimit="10"/>
<path d="M160.249 122.184H193.743" stroke="#263238" stroke-miterlimit="10"/>
<path d="M143.501 122.184H158.093" stroke="#263238" stroke-miterlimit="10"/>
<path d="M203.075 57.4512L192.788 61.2816L196.614 62.9568L190.393 71.0928L185.847 66.0672L169.82 81.8592L160.249 76.3536L145.076 89.9184H156.697L161.684 84.2496L170.775 88.7952L184.412 73.4832L192.308 76.8336L199.009 64.392L203.555 66.7824L203.075 57.4512Z" fill="#263238" stroke="#263238" stroke-linecap="round" stroke-linejoin="round"/>
<path d="M201.825 85.733C205.515 82.0439 205.515 76.0628 201.825 72.3738C198.136 68.6847 192.155 68.6847 188.466 72.3738C184.777 76.0628 184.777 82.0439 188.466 85.733C192.155 89.422 198.136 89.422 201.825 85.733Z" fill="white" stroke="#263238" stroke-linecap="round" stroke-linejoin="round"/>
<path d="M195.145 87.1872C199.638 87.1872 203.281 83.5446 203.281 79.0512C203.281 74.5578 199.638 70.9152 195.145 70.9152C190.651 70.9152 187.009 74.5578 187.009 79.0512C187.009 83.5446 190.651 87.1872 195.145 87.1872Z" fill="white" stroke="#263238" stroke-linecap="round" stroke-linejoin="round"/>
<path d="M148.283 79.152H145.892V89.9184H148.283V79.152Z" fill="#1C2560"/>
<path d="M152.588 83.0208H150.198V89.9136H152.588V83.0208Z" fill="#1C2560"/>
<path d="M156.899 83.256H154.508V89.9184H156.899V83.256Z" fill="#1C2560"/>
<path d="M161.204 79.152H158.813V89.9184H161.204V79.152Z" fill="#1C2560"/>
<path d="M165.51 81.4992H163.119V89.9184H165.51V81.4992Z" fill="#1C2560"/>
<path d="M169.815 82.5552H167.425V89.9184H169.815V82.5552Z" fill="#1C2560"/>
<path d="M174.121 79.152H171.73V89.9184H174.121V79.152Z" fill="#1C2560"/>
<path d="M178.431 75.984H176.041V89.9184H178.431V75.984Z" fill="#1C2560"/>
<path d="M182.737 72.7008H180.347V89.9184H182.737V72.7008Z" fill="#1C2560"/>
<path d="M191.857 132.907H163.988V135.696H191.857V132.907Z" fill="#263238" stroke="#263238" stroke-linecap="round" stroke-linejoin="round"/>
<path d="M200.468 137.846H163.988V140.635H200.468V137.846Z" fill="#263238" stroke="#263238" stroke-linecap="round" stroke-linejoin="round"/>
<path d="M191.857 154.378H163.988V157.166H191.857V154.378Z" fill="#263238" stroke="#263238" stroke-linecap="round" stroke-linejoin="round"/>
<path d="M200.468 159.317H163.988V162.106H200.468V159.317Z" fill="#263238" stroke="#263238" stroke-linecap="round" stroke-linejoin="round"/>
<path d="M156.961 128.246H145.489C144.23 128.246 143.209 129.267 143.209 130.526V142.142C143.209 143.402 144.23 144.422 145.489 144.422H156.961C158.22 144.422 159.241 143.402 159.241 142.142V130.526C159.241 129.267 158.22 128.246 156.961 128.246Z" fill="#D4D4D4"/>
<path d="M151.225 140.352C153.443 140.352 155.242 138.553 155.242 136.334C155.242 134.116 153.443 132.317 151.225 132.317C149.006 132.317 147.207 134.116 147.207 136.334C147.207 138.553 149.006 140.352 151.225 140.352Z" fill="#263238"/>
<path d="M153.553 136.421L150.059 134.405V138.442L153.553 136.421Z" fill="white"/>
<path d="M156.961 149.131H145.489C144.23 149.131 143.209 150.152 143.209 151.411V163.027C143.209 164.286 144.23 165.307 145.489 165.307H156.961C158.22 165.307 159.241 164.286 159.241 163.027V151.411C159.241 150.152 158.22 149.131 156.961 149.131Z" fill="#D4D4D4"/>
<path d="M154.87 158.904C155.801 156.89 154.924 154.502 152.91 153.571C150.896 152.639 148.508 153.517 147.577 155.531C146.646 157.545 147.523 159.932 149.537 160.864C151.551 161.795 153.939 160.918 154.87 158.904Z" fill="#263238"/>
<path d="M153.553 157.31L150.059 155.29V159.326L153.553 157.31Z" fill="white"/>
<path d="M144.068 146.717H209.06" stroke="#263238" stroke-miterlimit="10"/>
<path d="M206.564 28.8864H211.638" stroke="#263238" stroke-linecap="round" stroke-linejoin="round"/>
<path d="M206.564 31.2912H211.638" stroke="#263238" stroke-linecap="round" stroke-linejoin="round"/>
<path d="M206.564 33.6912H211.638" stroke="#263238" stroke-linecap="round" stroke-linejoin="round"/>
<path d="M204.529 27.288H142.705V35.2944H204.529V27.288Z" fill="white" stroke="#263238" stroke-linecap="round" stroke-linejoin="round"/>
<path d="M150.049 29.9712C150.05 29.5958 149.939 29.2286 149.731 28.916C149.523 28.6035 149.227 28.3597 148.881 28.2156C148.534 28.0716 148.152 28.0336 147.784 28.1066C147.416 28.1796 147.078 28.3603 146.812 28.6257C146.547 28.8912 146.366 29.2295 146.293 29.5977C146.22 29.9659 146.258 30.3475 146.402 30.6942C146.546 31.0408 146.79 31.3369 147.102 31.5449C147.415 31.7528 147.782 31.8633 148.158 31.8624C148.659 31.8624 149.14 31.6631 149.495 31.3085C149.85 30.9538 150.049 30.4728 150.049 29.9712Z" fill="white" stroke="#263238" stroke-linecap="round" stroke-linejoin="round"/>
<path d="M145.873 32.6256L144.476 34.3872" stroke="#263238" stroke-width="2" stroke-linecap="round" stroke-linejoin="round"/>
<path d="M146.895 31.3392L145.873 32.6256" stroke="#263238" stroke-linecap="round" stroke-linejoin="round"/>
<path d="M152.046 27.3408V35.3328" stroke="#263238" stroke-linecap="round" stroke-linejoin="round"/>
<path d="M35.7034 133.963C35.7079 133.952 35.7078 133.94 35.7033 133.929C35.6988 133.919 35.6902 133.91 35.6794 133.906C35.6686 133.901 35.6564 133.901 35.6456 133.906C35.6348 133.91 35.6263 133.919 35.6218 133.93C34.2777 137.145 33.2161 140.471 32.449 143.87C31.671 147.27 31.0861 150.71 30.697 154.176L30.4522 156.782C30.4138 157.219 30.3658 157.651 30.3322 158.088L30.2602 159.389C30.2266 160.262 30.169 161.131 30.145 162.005L30.169 164.626L30.1978 165.931C30.1978 166.368 30.2506 166.805 30.2794 167.237C30.3466 168.11 30.3994 168.979 30.4762 169.848C30.6442 171.586 30.9082 173.309 31.1722 175.027C31.1745 175.038 31.1805 175.048 31.1893 175.055C31.198 175.062 31.209 175.066 31.2202 175.066C31.2202 175.066 31.2682 175.066 31.2634 175.022C31.2634 174.154 31.225 173.285 31.2058 172.416C31.1866 171.547 31.105 170.683 31.1146 169.814C31.1242 168.946 31.1146 168.082 31.0858 167.218V165.917V164.621V162.029L31.153 159.432L31.1818 158.136C31.1818 157.704 31.2298 157.272 31.2538 156.84L31.4122 154.248C31.7076 150.796 32.1979 147.363 32.881 143.966C33.5321 140.557 34.4764 137.21 35.7034 133.963Z" fill="#263238"/>
<path d="M36.073 147.528C36.0768 147.517 36.076 147.504 36.0706 147.493C36.0652 147.482 36.0557 147.474 36.0442 147.47C36.0328 147.467 36.0203 147.467 36.0095 147.473C35.9987 147.478 35.9904 147.488 35.9866 147.499C35.2522 149.657 34.6369 151.854 34.1434 154.08C33.6519 156.315 33.2866 158.576 33.049 160.853C32.8186 163.123 32.569 165.398 32.5354 167.678C32.4778 169.964 32.5596 172.252 32.7802 174.528C32.7813 174.538 32.7857 174.547 32.7926 174.554C32.7996 174.561 32.8088 174.565 32.8186 174.566C32.8307 174.568 32.8428 174.565 32.8526 174.558C32.8624 174.55 32.8691 174.54 32.8714 174.528C33.1354 172.253 33.2938 169.987 33.4522 167.722C33.6106 165.456 33.6346 163.181 33.7834 160.915C33.9222 158.656 34.1882 156.406 34.5802 154.176C34.9575 151.935 35.4558 149.715 36.073 147.528Z" fill="#263238"/>
<path d="M43.5945 152.299C43.5858 152.292 43.5748 152.288 43.5633 152.288C43.5519 152.288 43.5408 152.292 43.5321 152.299C41.6503 153.508 39.9556 154.986 38.5017 156.686C37.7725 157.541 37.1159 158.454 36.5385 159.418L36.1353 160.181L35.8185 160.973C35.7106 161.23 35.6176 161.492 35.5401 161.76C35.4585 162.034 35.3673 162.302 35.2953 162.571C34.7201 164.742 34.3711 166.967 34.2537 169.21C34.1425 171.44 34.226 173.675 34.5033 175.891C34.506 175.901 34.5115 175.91 34.5192 175.917C34.5269 175.924 34.5364 175.928 34.5465 175.93C34.5585 175.93 34.57 175.925 34.5789 175.917C34.5878 175.909 34.5933 175.898 34.5945 175.886L35.1705 169.272C35.3321 167.083 35.6157 164.906 36.0201 162.749C36.0825 162.485 36.1593 162.226 36.2265 161.962C36.2887 161.697 36.3656 161.436 36.4569 161.179L36.7257 160.416L37.0713 159.696C37.5941 158.735 38.1962 157.82 38.8713 156.96C40.2162 155.208 41.807 153.659 43.5945 152.362C43.5987 152.358 43.6021 152.353 43.6044 152.347C43.6067 152.342 43.6078 152.336 43.6078 152.33C43.6078 152.325 43.6067 152.319 43.6044 152.313C43.6021 152.308 43.5987 152.303 43.5945 152.299Z" fill="#263238"/>
<path d="M39.9563 160.8C38.9787 161.513 38.1936 162.459 37.6715 163.55C37.1193 164.619 36.6894 165.746 36.3899 166.91C36.2987 167.198 36.2267 167.491 36.1643 167.784L35.9579 168.662C35.8491 169.253 35.7738 169.849 35.7323 170.448C35.7323 171.048 35.7083 171.648 35.7323 172.248C35.7753 172.847 35.8538 173.444 35.9675 174.034C35.9675 174.034 35.9675 174.067 36.0011 174.067C36.0132 174.07 36.026 174.068 36.0367 174.062C36.0475 174.056 36.0554 174.046 36.0587 174.034C36.1964 173.453 36.3022 172.865 36.3755 172.272C36.4667 171.691 36.5579 171.115 36.6299 170.534C36.7019 169.954 36.7883 169.382 36.8363 168.802C36.8843 168.221 36.9563 167.64 37.0811 167.074C37.2758 165.929 37.5978 164.81 38.0411 163.738C38.444 162.639 39.1021 161.652 39.9611 160.858C39.9654 160.854 39.9687 160.849 39.971 160.843C39.9733 160.838 39.9745 160.832 39.9745 160.826C39.9745 160.821 39.9733 160.815 39.971 160.809C39.9687 160.804 39.9654 160.799 39.9611 160.795C39.9594 160.797 39.9578 160.798 39.9563 160.8Z" fill="#263238"/>
<path d="M29.4055 167.424C29.1607 164.486 28.6759 161.578 28.2199 158.674C27.7639 155.77 27.2599 152.87 26.7223 149.981C26.1847 147.091 25.5943 144.221 24.9751 141.341C24.9713 141.33 24.9641 141.32 24.9547 141.313C24.9453 141.307 24.934 141.303 24.9223 141.302C24.916 141.304 24.9099 141.306 24.9045 141.309C24.8991 141.313 24.8945 141.318 24.8909 141.323C24.8873 141.328 24.8848 141.334 24.8836 141.341C24.8824 141.347 24.8825 141.354 24.8839 141.36C25.3879 144.24 25.8439 147.154 26.2711 150.062C26.6983 152.971 27.1255 155.87 27.4903 158.784C27.8551 161.698 28.1287 164.616 28.4983 167.525L29.5687 176.266C29.5714 176.276 29.5769 176.284 29.5846 176.291C29.5923 176.298 29.6018 176.302 29.6119 176.304C29.618 176.305 29.6241 176.304 29.63 176.302C29.6358 176.3 29.6411 176.297 29.6456 176.293C29.6502 176.289 29.6538 176.284 29.6563 176.279C29.6587 176.273 29.66 176.267 29.6599 176.261C29.6935 175.526 29.6983 174.787 29.7127 174.048C29.7271 173.309 29.6839 172.579 29.6695 171.84C29.6455 170.357 29.5207 168.893 29.4055 167.424Z" fill="#263238"/>
<path d="M27.6491 167.381C27.4907 166.219 27.2747 165.062 27.0539 163.91L26.6411 162.192C26.5067 161.621 26.3819 161.05 26.2139 160.488C25.6287 158.209 24.8779 155.976 23.9675 153.806L23.6171 153L23.2235 152.208C22.9739 151.68 22.6763 151.171 22.3883 150.658C21.8128 149.627 21.1007 148.68 20.2715 147.84C20.2675 147.836 20.2626 147.832 20.2573 147.83C20.2519 147.828 20.2462 147.827 20.2403 147.827C20.2345 147.827 20.2287 147.828 20.2234 147.83C20.218 147.832 20.2132 147.836 20.2091 147.84C20.2049 147.844 20.2016 147.849 20.1993 147.854C20.197 147.86 20.1958 147.865 20.1958 147.871C20.1958 147.877 20.197 147.883 20.1993 147.888C20.2016 147.894 20.2049 147.898 20.2091 147.902C20.9753 148.772 21.6211 149.741 22.1291 150.782C22.3835 151.306 22.6571 151.819 22.8731 152.357L23.2187 153.154L23.5259 153.97C24.3373 156.147 24.9902 158.38 25.4795 160.651C25.7483 161.779 25.9259 162.931 26.1467 164.069L26.4203 165.792C26.5211 166.363 26.6411 166.93 26.7227 167.506C26.9051 168.658 27.1163 169.8 27.3179 170.947C27.5195 172.094 27.7067 173.251 27.9467 174.403C27.9497 174.414 27.9559 174.423 27.9646 174.43C27.9732 174.437 27.9837 174.441 27.9947 174.442C28.0066 174.44 28.0176 174.435 28.0256 174.426C28.0336 174.417 28.038 174.406 28.0379 174.394C28.0379 173.222 28.0379 172.046 27.9563 170.875C27.8747 169.704 27.7691 168.547 27.6491 167.381Z" fill="#263238"/>
<path d="M25.2153 167.52C24.6729 165.979 24.0441 164.472 23.3577 162.994C22.6651 161.519 21.8845 160.088 21.0201 158.707C21.0114 158.7 21.0003 158.696 20.9889 158.696C20.9774 158.696 20.9663 158.7 20.9577 158.707C20.9534 158.711 20.9501 158.716 20.9478 158.721C20.9455 158.727 20.9443 158.733 20.9443 158.738C20.9443 158.744 20.9455 158.75 20.9478 158.755C20.9501 158.761 20.9534 158.766 20.9577 158.77C21.7056 160.205 22.366 161.685 22.9353 163.2C23.5353 164.702 24.0729 166.224 24.5193 167.774C24.9657 169.325 25.3065 170.894 25.7193 172.45C26.1321 174.005 26.5017 175.57 26.9817 177.139C26.9843 177.149 26.9899 177.158 26.9975 177.165C27.0052 177.172 27.0147 177.176 27.0249 177.178C27.0372 177.177 27.0488 177.171 27.0576 177.162C27.0664 177.154 27.0718 177.142 27.0729 177.13C27.0838 175.489 26.9229 173.851 26.5929 172.243C26.2622 170.634 25.8015 169.055 25.2153 167.52Z" fill="#263238"/>
<path d="M25.1145 172.661C24.8172 171.701 24.3822 170.789 23.8233 169.954C23.3041 169.092 22.6712 168.304 21.9417 167.611C21.5688 167.278 21.169 166.976 20.7465 166.709C20.3287 166.43 19.8705 166.218 19.3881 166.08C19.3805 166.074 19.3712 166.071 19.3617 166.071C19.3521 166.071 19.3428 166.074 19.3353 166.08C19.3278 166.089 19.3237 166.1 19.3237 166.111C19.3237 166.123 19.3278 166.134 19.3353 166.142C20.216 166.569 20.9951 167.18 21.6201 167.933C22.2481 168.65 22.7761 169.45 23.1897 170.309C23.6361 171.154 23.8665 172.085 24.2505 172.954C24.4233 173.4 24.5913 173.846 24.7929 174.293C24.9583 174.759 25.1555 175.212 25.3833 175.651C25.3868 175.658 25.3923 175.664 25.3991 175.669C25.4058 175.673 25.4137 175.675 25.4217 175.675C25.4277 175.676 25.4339 175.675 25.4397 175.673C25.4455 175.672 25.4508 175.668 25.4554 175.664C25.4599 175.66 25.4635 175.655 25.466 175.65C25.4684 175.644 25.4697 175.638 25.4697 175.632C25.4881 175.131 25.4705 174.628 25.4169 174.13C25.3401 173.64 25.2345 173.15 25.1145 172.661Z" fill="#263238"/>
<path d="M25.2968 145.541C23.8309 145.13 22.505 144.327 21.462 143.218C20.4191 142.109 19.6986 140.736 19.3784 139.248C18.26 134.064 21.8456 136.286 18.6344 128.16C15.4232 120.034 16.1672 118.152 17.3 115.805C18.4328 113.458 19.0232 114.202 20.012 117.288C21.0008 120.374 24.5576 125.184 25.94 134.189C27.3224 143.194 25.2968 145.541 25.2968 145.541Z" fill="#1C2560"/>
<path d="M34.7962 136.8C34.7962 136.8 31.5898 135.686 31.465 129.643C31.3402 123.6 33.8122 124.843 34.1818 117.307C34.5514 109.771 35.0458 104.477 36.3994 104.347C37.753 104.218 41.3386 108.048 42.5722 116.438C43.8058 124.829 40.9642 130.358 38.497 132.845C36.0298 135.331 34.7962 136.8 34.7962 136.8Z" fill="#1C2560"/>
<path d="M23.569 152.818C23.569 152.818 22.8298 148.378 21.3514 146.28C19.873 144.182 16.6618 142.33 14.5642 138.24C12.4666 134.15 10.1242 132.197 10.2442 137.995C10.3642 143.794 12.9802 146.774 16.1674 148.747C19.3546 150.72 23.569 152.818 23.569 152.818Z" fill="#1C2560"/>
<path d="M22.2154 160.469C22.2154 160.469 19.2538 154.79 14.9338 150.595C10.6138 146.4 7.16259 144.307 8.39619 146.4C9.62979 148.493 11.113 148.373 13.1962 152.074C15.2794 155.774 14.6794 158.486 17.641 160.584C20.6026 162.682 22.2154 160.469 22.2154 160.469Z" fill="#1C2560"/>
<path d="M21.8457 167.746C21.7209 167.376 21.5961 164.659 17.4009 162.442C13.2057 160.224 9.24088 161.083 9.75448 162.192C10.2681 163.301 12.8361 165.154 15.4281 166.267C18.0201 167.381 21.8457 167.746 21.8457 167.746Z" fill="#1C2560"/>
<path d="M34.5515 153.062C34.5515 153.062 32.6986 150.72 33.6874 145.786C34.6762 140.851 36.8939 142.08 39.3803 139.493C41.8667 136.906 41.3579 136.531 43.8251 133.819C46.2923 131.107 48.5099 129.624 49.4987 130.733C50.4875 131.842 49.0187 135.298 47.5259 137.275C46.0331 139.253 43.6859 140.232 42.5915 142.699C41.4971 145.166 41.9722 149.117 39.1354 150.965C36.2986 152.813 34.5515 153.062 34.5515 153.062Z" fill="#1C2560"/>
<path d="M40.7192 154.421C40.7192 154.421 45.14 149.362 48.3704 145.661C51.6008 141.96 52.8104 139.123 52.9352 141.59C53.06 144.058 54.044 146.03 51.452 149.242C48.86 152.453 40.7192 154.421 40.7192 154.421Z" fill="#1C2560"/>
<path d="M38.3771 162.562C38.3771 162.562 38.2523 160.589 45.2843 156.024C52.3163 151.459 55.2779 150.595 54.5387 152.448C53.7995 154.301 50.6987 156.149 47.3819 159.48C44.0651 162.811 38.3771 162.562 38.3771 162.562Z" fill="#1C2560"/>
<path d="M25.5899 145.013C25.5899 145.013 23.9435 136.162 22.2299 129.869C20.5163 123.576 19.3931 119.755 19.3931 119.755" stroke="#263238" stroke-linecap="round" stroke-linejoin="round"/>
<path d="M34.5132 136.872C34.5132 136.872 37.5132 127.272 38.4972 121.483C39.4812 115.694 38.3772 111.365 37.8828 108.773" stroke="#263238" stroke-linecap="round" stroke-linejoin="round"/>
<path d="M23.1801 152.64C21.8528 150.356 20.3321 148.189 18.6345 146.165C15.9225 142.958 13.8345 141.23 12.5913 138.144" stroke="#263238" stroke-linecap="round" stroke-linejoin="round"/>
<path d="M34.5513 153.062C34.5513 153.062 35.5401 147.144 37.8825 144.058C40.2249 140.971 44.9145 136.162 46.7625 133.08" stroke="#263238" stroke-linecap="round" stroke-linejoin="round"/>
<path d="M21.5531 167.611C21.5531 167.611 17.4011 164.909 14.4443 163.426" stroke="#263238" stroke-linecap="round" stroke-linejoin="round"/>
<path d="M45.3225 192.48C45.0489 184.997 36.7305 180 36.7305 180H23.9817C23.9817 180 15.6633 184.992 15.3801 192.48C15.0969 199.968 24.8073 227.419 24.8073 227.419H35.8953C35.8953 227.419 45.6201 199.963 45.3225 192.48Z" fill="#263238" stroke="#263238" stroke-linecap="round" stroke-linejoin="round"/>
<path d="M38.3722 172.642H22.105L23.9818 180H36.4954L38.3722 172.642Z" fill="#263238" stroke="#263238" stroke-linecap="round" stroke-linejoin="round"/>
<path d="M102.86 131.789C102.86 131.789 98.6501 136.253 98.6501 137.654C98.6501 139.056 99.1589 142.378 98.9045 143.65C98.6501 144.922 88.1909 152.962 88.1909 152.962L91.3781 160.997C91.3781 160.997 99.9221 147.48 102.476 143.909C105.029 140.338 107.833 136.637 108.087 134.722C108.341 132.806 104.007 131.04 102.86 131.789Z" fill="#D4D4D4" stroke="#263238" stroke-miterlimit="10"/>
<path d="M103.561 164.904L115.959 160.018C115.959 160.018 124.033 150.898 130.215 144.216C136.397 137.534 144.135 139.061 144.135 143.87C144.135 148.68 141.903 155.87 139.844 158.99C137.785 162.11 133.657 170.155 133.657 170.155C133.657 170.155 148.09 173.592 152.041 175.824C155.991 178.056 171.86 189.317 180.02 195.197C185.386 199.037 188.501 200.602 189.361 200.602C189.591 200.602 190.004 200.563 190.493 200.506C192.457 200.275 194.813 198.206 196.503 197.146C198.821 195.706 202.369 193.714 204.433 193.498C207.697 193.152 206.497 197.962 204.092 201.398C201.687 204.835 197.372 205.867 195.845 207.067C194.319 208.267 191.045 208.958 189.831 209.131C188.617 209.304 177.807 204.835 173.165 202.944C168.524 201.053 159.773 200.621 154.484 194.304C152.731 192.17 150.759 190.226 148.599 188.506C148.599 188.506 119.909 189.706 114.754 190.224C109.599 190.742 97.7478 191.083 92.7654 191.083C87.783 191.083 85.2438 189.11 85.2438 189.11C85.2438 189.11 83.3238 186.442 86.2374 182.15C89.151 177.859 103.561 164.904 103.561 164.904Z" fill="#6E6E6E" stroke="#263238" stroke-miterlimit="10"/>
<path d="M204.092 201.422C206.492 197.986 207.696 193.176 204.432 193.522C202.368 193.738 198.821 195.734 196.503 197.17C194.818 198.206 192.456 200.275 190.493 200.53C190.013 200.587 189.591 200.626 189.36 200.626C188.636 200.626 186.284 199.512 182.324 196.829C181.767 199.142 180.154 202.066 175.834 204.082C181.052 206.208 188.823 209.323 189.831 209.179C191.036 209.006 194.3 208.32 195.845 207.115C197.391 205.91 201.687 204.859 204.092 201.422Z" fill="#D4D4D4" stroke="#263238" stroke-miterlimit="10"/>
<path d="M204.092 201.422C206.492 197.986 207.697 193.176 204.433 193.522C202.369 193.738 198.821 195.734 196.503 197.17C194.818 198.206 192.457 200.275 190.493 200.53C190.013 200.587 189.591 200.626 189.361 200.626C189.12 200.606 188.884 200.551 188.66 200.462C189.245 201.854 189.764 204.835 185.78 207.984C187.853 208.738 189.428 209.237 189.845 209.179C191.05 209.006 194.314 208.32 195.86 207.115C197.405 205.91 201.687 204.859 204.092 201.422Z" fill="white" stroke="#263238" stroke-miterlimit="10"/>
<path d="M114.908 166.147C114.539 165.887 114.156 165.647 113.761 165.427" stroke="#263238" stroke-miterlimit="10"/>
<path d="M133.652 170.155L118.1 169.243C117.458 168.379 116.715 167.594 115.887 166.906" stroke="#263238" stroke-miterlimit="10"/>
<path d="M105.908 172.944C106.585 172.335 107.363 171.847 108.207 171.504" stroke="#263238" stroke-miterlimit="10"/>
<path d="M101.439 177.922C102.381 176.625 103.41 175.395 104.521 174.24" stroke="#263238" stroke-miterlimit="10"/>
<path d="M103.176 173.237C103.176 173.237 99.706 176.357 98.8564 180.35" stroke="#263238" stroke-miterlimit="10"/>
<path d="M103.561 164.904C103.537 165.372 103.444 165.835 103.287 166.277C103.009 167.107 101.223 173.995 96.3991 179.914C93.2703 183.64 89.4905 186.768 85.2439 189.144C79.4309 184.631 74.1203 179.505 69.4039 173.856C61.2727 164.213 56.4439 154.987 56.7271 144.24C57.0103 133.493 60.4519 126.749 60.4519 126.749L60.1735 118.483C60.7255 117.106 63.6199 115.181 67.4743 117.658C71.3287 120.134 74.3623 125.923 74.3623 125.923L73.8103 129.226C73.8103 129.226 75.4615 130.33 76.4263 130.882C77.3911 131.434 80.9719 134.597 84.1399 138.59C87.3079 142.584 90.6151 154.574 91.1671 157.603C91.7191 160.632 96.2647 161.179 96.2647 161.179L100.945 163.666L103.561 164.904Z" fill="#1C2560" stroke="#263238" stroke-miterlimit="10"/>
<path d="M74.3621 125.923L73.8101 129.226C73.8101 129.226 65.2709 126.47 60.4517 126.749L60.1733 118.483C60.7253 117.106 63.6197 115.181 67.4741 117.658C71.3285 120.134 74.3621 125.923 74.3621 125.923Z" fill="#D4D4D4" stroke="#263238" stroke-miterlimit="10"/>
<path d="M79.1864 103.651C79.1864 103.651 81.5288 109.752 80.924 111.331C80.5745 112.249 80.2796 113.187 80.0408 114.139C80.0408 114.139 83.612 118.022 82.9208 119.054C82.2296 120.086 80.3864 120.562 80.3864 120.562C80.3864 120.562 79.9064 127.022 79.508 128.083C79.1096 129.144 77.8712 130.253 75.3176 129.523C72.764 128.794 69.0248 126.432 67.6376 125.299C66.2504 124.166 65.396 116.021 65.396 116.021L68.276 115.109C68.276 115.109 67.58 111.562 67.9304 110.909C68.2808 110.256 72.2504 110.722 71.5688 108.283C70.8872 105.845 69.4712 104.846 70.268 103.963C71.0648 103.08 79.1864 103.651 79.1864 103.651Z" fill="#D4D4D4" stroke="#263238" stroke-miterlimit="10"/>
<path d="M79.8582 122.88C79.8582 122.88 75.7926 123.235 75.2358 119.702" stroke="#263238" stroke-miterlimit="10"/>
<path d="M76.3781 119.41L73.7573 120.49" stroke="#263238" stroke-miterlimit="10"/>
<path d="M78.082 114.302C77.9572 115.018 77.602 115.55 77.3092 115.498C77.0164 115.445 76.8724 114.826 76.9972 114.11C77.122 113.395 77.4772 112.867 77.77 112.92C78.0628 112.973 78.2068 113.592 78.082 114.302Z" fill="#263238"/>
<path d="M75.9604 112.291C75.9604 112.291 77.8276 110.568 79.4596 112.003" stroke="#263238" stroke-miterlimit="10"/>
<path d="M82.292 103.2C82.1144 104.702 79.1864 103.68 79.1864 103.68L73.1528 105.475C73.1528 105.475 73.2776 107.981 73.22 109.642C73.1624 111.302 69.7112 112.421 69.7112 112.421L69.2312 119.995L60.1112 119.621L58.8008 116.558C58.8008 116.558 53.0408 111.173 53.6696 105.835C54.0536 102.566 56.5112 99.3792 60.4664 97.6752C61.8441 97.0901 63.2991 96.7069 64.7864 96.5376C66.3822 96.3556 67.9945 96.3718 69.5864 96.5856C78.764 97.7808 82.4696 101.678 82.292 103.2Z" fill="#263238" stroke="#263238" stroke-miterlimit="10"/>
<path d="M64.7479 112.882L61.3063 114.802C61.1623 114.538 58.0999 108.898 60.4903 97.6656C61.868 97.0805 63.323 96.6973 64.8103 96.528C63.4183 101.909 63.3703 105.869 63.6439 108.341C63.9511 111.36 64.7431 112.867 64.7479 112.882Z" fill="white" stroke="#263238" stroke-miterlimit="10"/>
<path d="M65.8771 121.818C68.7816 120.678 70.2119 117.399 69.0719 114.494C67.9319 111.59 64.6532 110.16 61.7488 111.3C58.8443 112.44 57.4139 115.718 58.5539 118.623C59.6939 121.527 62.9726 122.958 65.8771 121.818Z" fill="white" stroke="#263238" stroke-miterlimit="10"/>
<path d="M65.9573 143.554C67.7579 148.924 70.0158 154.13 72.7061 159.115C77.1173 167.242 83.7461 176.059 86.2085 175.507C88.6709 174.955 102.596 150.989 103.561 148.925C104.525 146.861 106.042 143.827 106.042 143.827C106.042 143.827 109.21 141.485 109.484 140.52C109.757 139.555 109.119 134.981 109.119 134.981C109.119 134.981 110.799 132.773 110.252 131.808C109.704 130.843 108.778 131.146 107.818 131.698C106.858 132.25 104.761 133.79 104.761 133.79C105.028 132.715 105.048 131.592 104.818 130.507C104.405 128.995 103.148 129.504 103.008 130.469C102.869 131.434 102.874 132.389 102.461 133.349C101.872 134.505 101.447 135.737 101.199 137.011C100.925 138.662 100.181 143.131 100.181 143.131C100.181 143.131 92.5541 151.646 90.4853 153.72C89.4629 154.738 87.2981 156.398 87.2981 156.398L81.6629 145.195C81.6629 145.195 78.7829 135.005 75.7397 132.235C74.2665 130.9 72.4243 130.04 70.4543 129.769C68.4843 129.499 66.4785 129.83 64.6997 130.718" fill="#1C2560"/>
<path d="M65.9573 143.554C67.7579 148.924 70.0158 154.13 72.7061 159.115C77.1173 167.242 83.7461 176.059 86.2085 175.507C88.6709 174.955 102.596 150.989 103.561 148.925C104.525 146.861 106.042 143.827 106.042 143.827C106.042 143.827 109.21 141.485 109.484 140.52C109.757 139.555 109.119 134.981 109.119 134.981C109.119 134.981 110.799 132.773 110.252 131.808C109.704 130.843 108.778 131.146 107.818 131.698C106.858 132.25 104.761 133.79 104.761 133.79C105.028 132.715 105.048 131.592 104.818 130.507C104.405 128.995 103.148 129.504 103.009 130.469C102.869 131.434 102.874 132.389 102.461 133.349C101.872 134.505 101.447 135.737 101.199 137.011C100.925 138.662 100.181 143.131 100.181 143.131C100.181 143.131 92.5541 151.646 90.4853 153.72C89.4629 154.738 87.2981 156.398 87.2981 156.398L81.6629 145.195C81.6629 145.195 78.7829 135.005 75.7397 132.235C74.2665 130.9 72.4243 130.04 70.4543 129.769C68.4843 129.499 66.4785 129.83 64.6997 130.718" stroke="#263238" stroke-miterlimit="10"/>
<path d="M104.842 137.28C104.75 137.262 104.662 137.226 104.584 137.174C104.506 137.122 104.439 137.055 104.387 136.977C104.336 136.899 104.3 136.811 104.282 136.719C104.265 136.627 104.266 136.532 104.286 136.44L107.679 120.576C107.718 120.398 107.825 120.241 107.978 120.14C108.13 120.039 108.315 120.001 108.495 120.034C108.587 120.051 108.675 120.087 108.753 120.139C108.831 120.191 108.898 120.258 108.95 120.337C109.002 120.415 109.038 120.503 109.055 120.595C109.073 120.687 109.071 120.782 109.052 120.874L105.654 136.714C105.621 136.896 105.517 137.058 105.365 137.164C105.213 137.271 105.025 137.312 104.842 137.28Z" fill="#263238" stroke="#263238" stroke-miterlimit="10"/>
<path d="M109.484 140.52C109.758 139.56 109.119 134.981 109.119 134.981C109.119 134.981 110.799 132.773 110.252 131.808C109.705 130.843 108.778 131.146 107.818 131.698C106.858 132.25 104.761 133.79 104.761 133.79C105.029 132.715 105.048 131.592 104.818 130.507C104.406 128.995 103.148 129.504 103.009 130.469C102.87 131.434 102.874 132.389 102.462 133.349C101.872 134.505 101.447 135.737 101.199 137.011C100.926 138.662 100.182 143.131 100.182 143.131C100.182 143.131 98.8952 144.571 97.2344 146.405L102.74 150.461C103.162 149.702 103.45 149.165 103.561 148.925C104.521 146.856 106.042 143.827 106.042 143.827C106.042 143.827 109.21 141.485 109.484 140.52Z" fill="#D4D4D4" stroke="#263238" stroke-miterlimit="10"/>
<path d="M104.761 133.79C104.761 133.79 103.177 135.038 102.721 135.998" stroke="#263238" stroke-miterlimit="10"/>
<path d="M134.818 146.712C134.818 146.712 133.829 151.915 135.437 155.88C137.045 159.845 144.605 174.211 145.1 176.813C145.594 179.414 143.861 183.754 145.224 185.362C146.588 186.97 153.154 187.469 159.346 187.099C165.538 186.73 169.133 185.981 169.877 183.379C170.621 180.778 171.116 179.414 169.258 179.414C167.4 179.414 165.538 179.664 163.061 179.17C160.584 178.675 155.136 175.574 154.392 175.08C153.648 174.586 153.029 173.098 153.029 173.098C153.029 173.098 151.296 168.019 149.559 156.125C147.821 144.23 149.079 139.157 143.492 137.405C137.904 135.653 131.439 142.819 130.215 144.202" fill="#6E6E6E"/>
<path d="M134.818 146.712C134.818 146.712 133.829 151.915 135.437 155.88C137.045 159.845 144.605 174.211 145.1 176.813C145.594 179.414 143.861 183.754 145.224 185.362C146.588 186.97 153.154 187.469 159.346 187.099C165.538 186.73 169.133 185.981 169.877 183.379C170.621 180.778 171.116 179.414 169.258 179.414C167.4 179.414 165.538 179.664 163.061 179.17C160.584 178.675 155.136 175.574 154.392 175.08C153.648 174.586 153.029 173.098 153.029 173.098C153.029 173.098 151.296 168.019 149.559 156.125C147.821 144.23 149.079 139.157 143.492 137.405C137.904 135.653 131.439 142.819 130.215 144.202" stroke="#263238" stroke-miterlimit="10"/>
<path d="M169.877 183.36C170.621 180.758 171.116 179.395 169.258 179.395C167.4 179.395 165.538 179.645 163.061 179.15C160.584 178.656 155.136 175.555 154.392 175.061C153.648 174.566 153.029 173.078 153.029 173.078C152.341 170.85 151.776 168.586 151.335 166.296C146.972 164.784 143.655 167.654 142.013 169.574C143.607 172.906 144.893 175.771 145.1 176.774C145.58 179.376 143.861 183.715 145.224 185.323C146.588 186.931 153.154 187.43 159.346 187.061C165.538 186.691 169.133 185.981 169.877 183.36Z" fill="#D4D4D4" stroke="#263238" stroke-miterlimit="10"/>
<path d="M169.258 179.414C167.4 179.414 165.538 179.664 163.061 179.17C160.584 178.675 155.136 175.574 154.392 175.08C153.648 174.586 153.029 173.098 153.029 173.098C153.029 173.098 152.88 172.666 152.631 171.758C148.224 171.49 145.781 173.395 144.504 175.075C144.752 175.636 144.951 176.218 145.1 176.813C145.58 179.414 143.861 183.754 145.224 185.362C146.588 186.97 153.154 187.469 159.346 187.099C165.538 186.73 169.133 185.981 169.877 183.379C170.621 180.778 171.116 179.414 169.258 179.414Z" fill="white" stroke="#263238" stroke-miterlimit="10"/>
<path d="M109.359 208.886H61.1045V211.752H109.359V208.886Z" fill="#919191" stroke="#263238" stroke-miterlimit="10"/>
<path d="M103.148 194.074L118.767 225.091C118.882 225.321 118.937 225.577 118.926 225.835C118.914 226.092 118.837 226.342 118.702 226.561C118.567 226.78 118.378 226.962 118.154 227.087C117.929 227.213 117.676 227.279 117.418 227.28C117.148 227.28 116.884 227.207 116.651 227.069C116.419 226.932 116.228 226.734 116.098 226.498L98.8472 195.029L103.148 194.074Z" fill="#919191" stroke="#263238" stroke-miterlimit="10"/>
<path d="M68.1797 185.798L53.9765 225.36C53.8833 225.6 53.8533 225.86 53.8893 226.116C53.9253 226.371 54.0261 226.612 54.1821 226.817C54.3381 227.023 54.544 227.184 54.7803 227.287C55.0166 227.39 55.2753 227.43 55.5317 227.405C55.8013 227.379 56.0591 227.281 56.2778 227.122C56.4966 226.962 56.6683 226.747 56.7749 226.498L72.5285 186.326L68.1797 185.798Z" fill="#919191" stroke="#263238" stroke-miterlimit="10"/>
<path d="M64.2102 138.418C64.2102 138.418 57.5238 129.341 54.6582 129.816C51.7926 130.291 48.8982 150.6 52.2582 164.218C55.6182 177.835 67.3206 191.909 83.5398 196.224C102.413 201.24 118.517 192.384 118.657 190.733C118.796 189.082 101.237 182.371 64.2102 138.418Z" fill="#D4D4D4"/>
<path opacity="0.29" d="M83.5396 196.224C102.413 201.24 118.517 192.384 118.656 190.733C118.714 190.037 115.719 188.477 109.536 183.754C78.562 184.853 60.5284 172.594 52.4644 165.086C56.1172 178.426 67.666 192 83.5396 196.224Z" fill="black"/>
<path d="M64.2102 138.418C64.2102 138.418 57.5238 129.341 54.6582 129.816C51.7926 130.291 48.8982 150.6 52.2582 164.218C55.6182 177.835 67.3206 191.909 83.5398 196.224C102.413 201.24 118.517 192.384 118.657 190.733C118.796 189.082 101.237 182.371 64.2102 138.418Z" stroke="#263238" stroke-miterlimit="10"/>
<path d="M204.433 207.36C204.433 207.36 198.913 205.392 186.039 204.48C173.166 203.568 160.959 204.96 160.479 206.155C160.114 207.067 161.986 219.019 162.879 224.587C163.006 225.376 163.409 226.093 164.017 226.612C164.625 227.13 165.397 227.414 166.196 227.414H201.308C202.111 227.414 202.887 227.127 203.497 226.604C204.106 226.081 204.508 225.357 204.63 224.563L206.761 210.682C206.891 209.943 206.728 209.182 206.305 208.561C205.883 207.941 205.235 207.51 204.5 207.36H204.433Z" fill="#D4D4D4"/>
<path opacity="0.29" d="M203.823 226.282C186.797 226.32 177.735 217.838 173.448 210.408C171.778 207.528 169.056 205.781 166.248 204.758C162.85 205.138 160.661 205.661 160.488 206.155C160.124 207.067 161.996 219.019 162.888 224.587C163.015 225.376 163.418 226.093 164.026 226.612C164.634 227.13 165.407 227.414 166.205 227.414H201.317C201.791 227.413 202.259 227.311 202.691 227.116C203.123 226.921 203.509 226.636 203.823 226.282Z" fill="black"/>
<path d="M204.433 207.36C204.433 207.36 198.913 205.392 186.039 204.48C173.166 203.568 160.959 204.96 160.479 206.155C160.114 207.067 161.986 219.019 162.879 224.587C163.006 225.376 163.409 226.093 164.017 226.612C164.625 227.13 165.397 227.414 166.196 227.414H201.308C202.111 227.414 202.887 227.127 203.497 226.604C204.106 226.081 204.508 225.357 204.63 224.563L206.761 210.682C206.891 209.943 206.728 209.182 206.305 208.561C205.883 207.941 205.235 207.51 204.5 207.36H204.433Z" stroke="#263238" stroke-miterlimit="10"/>
<path d="M220.518 227.414H230.118" stroke="#263238" stroke-miterlimit="10"/>
<path d="M9.19287 227.414H216.514" stroke="#263238" stroke-miterlimit="10"/>
</svg>
