<svg width="241" height="240" viewBox="0 0 241 240" fill="none" xmlns="http://www.w3.org/2000/svg">
<g clip-path="url(#clip0_171_2794)">
<path opacity="0.5" d="M191.858 110.742C191.834 74.0271 197.354 64.3071 177.458 33.2895C157.562 2.27188 108.79 -4.59692 71.9064 18.4095C35.0232 41.4159 25.1064 71.0031 25.1064 71.0031C25.1064 71.0031 11.724 105.563 30.5304 140.363C47.7288 172.197 81.5976 190.283 110.974 205.163H186.089C190.655 201.315 194.537 196.722 197.57 191.579C212.868 165.837 191.887 147.457 191.858 110.742Z" fill="#E9E9E9"/>
<path fill-rule="evenodd" clip-rule="evenodd" d="M116.939 60.976C113.054 63.3091 109.236 64.4363 107.444 63.9762C102.95 62.8223 102.537 46.4456 106.014 39.9894C109.491 33.5332 127.365 30.7192 128.266 43.5109C128.579 47.9506 126.708 51.9126 123.943 55.1456L128.9 78.1643H114.5L116.939 60.976Z" fill="#B28B67"/>
<path fill-rule="evenodd" clip-rule="evenodd" d="M123.5 40.5071C115.191 40.5664 109.409 40.2176 106.1 39.3116C106.251 36.506 109.179 33.3343 116.9 33.3343C125.491 33.3343 130.1 38.3227 130.1 44.0935C130.1 49.3658 126.693 55.7868 124.1 56.0482C123.428 55.9017 122.854 55.0953 122.284 53.9842C123.352 53.4666 124.1 52.2465 124.1 50.6686C124.1 49.1518 122.757 47.6799 121.1 47.6799C120.496 47.6799 119.933 47.8757 119.462 48.1982C118.374 46.4515 117.009 45.147 115.1 45.289L116.3 41.7026L123.5 41.1048V40.5071Z" fill="#1B1D1E"/>
<path fill-rule="evenodd" clip-rule="evenodd" d="M134.9 231.782C109.385 231.782 88.7001 212.112 88.7001 187.848C88.7001 163.585 109.385 143.915 134.9 143.915C160.416 143.915 181.1 163.585 181.1 187.848C181.1 212.112 160.416 231.782 134.9 231.782Z" fill="#C5CFD6"/>
<path fill-rule="evenodd" clip-rule="evenodd" d="M63.0735 185.505C60.8419 193.293 55.2822 208.053 47.5946 225.003L40.2894 222.88C46.6804 183.875 51.9993 158.052 55.046 150.192C57.059 144.999 72.2881 145.608 70.5361 156.057C69.8014 160.438 66.8946 172.171 63.0735 185.505ZM93.0998 157.879C105.013 160.338 129.714 169.03 136.767 171.807C141.2 173.553 138.342 179.473 134.561 178.955C133.92 178.867 131.654 178.615 128.274 178.238C117.415 177.028 95.0531 174.536 78.093 172.104C69.1626 170.823 73.9665 154.159 83.2389 155.922C86.3584 156.516 89.6764 157.172 93.0998 157.879Z" fill="#B28B67"/>
<path fill-rule="evenodd" clip-rule="evenodd" d="M54.5788 145.791C55.7967 141.831 111.163 127.776 111.163 127.776H115.7V131.988L77.5477 151.337C77.5984 151.961 77.5673 152.621 77.4443 153.317C77.7198 167.66 71.5576 178.376 65.4566 188.985C61.4669 195.923 57.5033 202.815 55.3833 210.647L41.3663 208.564C41.7746 207.523 42.4203 202.833 43.3031 196.419C45.5289 180.248 49.2623 153.125 54.5 145.949C54.5182 145.924 54.5368 145.899 54.5558 145.875C54.5625 145.847 54.5702 145.819 54.5788 145.791Z" fill="#2F3676"/>
<path fill-rule="evenodd" clip-rule="evenodd" d="M112.53 162.828C116.021 162.131 119.236 161.51 121.986 161.029C139.754 157.925 144.936 148.45 141.872 127.776H109.135C103.787 129.307 75.9955 140.917 61.576 147.093C52.0324 151.18 55.0408 165.914 60.4454 169.749C60.4747 169.984 60.572 170.144 60.7452 170.215C81.2357 178.676 98.7092 178.045 109.93 177.639C114.629 177.469 118.232 177.339 120.5 177.933L124.054 166.765L112.53 162.828Z" fill="#5C63AB"/>
<path fill-rule="evenodd" clip-rule="evenodd" d="M132.973 172.104C133.063 170.937 134.049 169.994 135.212 170.147C136.365 170.298 137.689 170.536 138.412 170.887C139.871 171.596 142.432 173.44 142.432 173.44C141.607 175.126 127.597 203.741 127.597 203.741C127.597 203.741 123.099 203.018 124.033 200.321C124.966 197.625 125.538 195.819 125.538 195.819L126.117 179.087C126.136 178.524 126.618 178.088 127.182 178.123L129.416 178.263C129.416 178.263 131.672 176.443 132.393 174.97C132.731 174.281 132.895 173.132 132.973 172.104Z" fill="#E4E4E4"/>
<path fill-rule="evenodd" clip-rule="evenodd" d="M48.6312 221.526C49.7177 221.096 50.9917 221.566 51.364 222.674C51.7334 223.773 52.0999 225.066 52.0999 225.868C52.0999 227.485 51.5591 230.586 51.5591 230.586C49.6764 230.586 17.718 230.586 17.718 230.586C17.718 230.586 16.3989 226.242 19.241 225.896C22.083 225.549 23.9629 225.27 23.9629 225.27L39.318 218.45C39.8319 218.222 40.4329 218.462 40.6479 218.982L41.5019 221.046C41.5019 221.046 44.1329 222.269 45.7778 222.269C46.5517 222.269 47.667 221.908 48.6312 221.526Z" fill="#E4E4E4"/>
<path fill-rule="evenodd" clip-rule="evenodd" d="M182.879 147.622C180.53 144.427 166.387 110.066 166.387 110.066L155.822 111.975C155.822 111.975 174.203 148.344 175.512 150.435C177.213 153.15 175.952 157.752 175.098 160.873C174.965 161.356 174.843 161.803 174.743 162.202C176.784 162.713 177.512 161.533 178.28 160.289C179.148 158.885 180.066 157.398 182.983 158.173C184.109 158.473 185.196 158.871 186.257 159.259C189.923 160.6 193.291 161.832 196.996 158.545C197.584 158.024 198.036 156.371 196.081 155.486C191.21 153.281 184.028 149.184 182.879 147.622ZM60.628 129.903L79.7673 115.892L83.9947 126.314L65.0434 134.15C59.6826 140.426 56.6851 143.043 56.0511 142C55.5165 141.12 55.9348 140.297 56.32 139.538C56.6202 138.948 56.9003 138.396 56.6943 137.888C56.2239 136.729 52.624 136.852 49.2126 137.114C45.8013 137.376 46.7958 135.863 47.6185 135.116C51.1012 133.038 55.4377 131.3 60.628 129.903Z" fill="#B28B67"/>
<path fill-rule="evenodd" clip-rule="evenodd" d="M114.342 66.2344L120.759 68.8561C120.691 70.5258 120.698 72.901 120.705 75.6222C120.729 84.1631 120.763 96.1123 118.548 100.353C110.874 115.045 95.1181 122.698 77.5694 131.222C75.2172 132.365 72.8327 133.523 70.4312 134.716L65.6029 124.896C66.1622 124.501 66.7166 124.104 67.2661 123.705C66.5075 123.44 65.875 122.842 65.5984 122.024C65.1223 120.616 65.8819 119.091 67.295 118.616C70.1668 117.652 72.8453 117.246 75.3078 117.422C93.2906 102.327 105.396 84.6546 114.342 66.2344Z" fill="#161E4D"/>
<path fill-rule="evenodd" clip-rule="evenodd" d="M143.3 133.102C143.3 133.102 115.006 136.198 98.7583 133.102C97.4164 132.846 97.4753 127.083 98.0976 125.509C107.789 100.999 114.164 83.0562 114.164 66.0319C116.831 67.4199 123.5 66.4479 123.5 66.4479C135.448 83.992 140.941 104.122 143.3 133.102Z" fill="#DDE3E8"/>
<path fill-rule="evenodd" clip-rule="evenodd" d="M179.184 133.398C162.511 85.9228 128.315 65.0142 128.315 65.0142H127.381H125.074H121.491C122.264 75.197 118.632 90.015 114.419 107.205C107.682 134.696 99.4571 168.254 105.386 198.618C112.675 200.24 121.24 199.133 130.513 197.934H130.513C143.895 196.204 158.751 194.284 173.37 200.102C172.807 187.938 165.678 174.473 158.581 161.069C154.082 152.572 149.597 144.1 146.804 135.998C147.445 135.396 147.778 134.493 147.614 133.562L147.304 131.815C147.092 130.614 146.116 129.739 144.963 129.602C144.762 128.705 144.588 127.814 144.445 126.929C143.712 122.411 144.18 117.946 144.642 113.532V113.532L144.642 113.532C144.896 111.108 145.149 108.699 145.2 106.305C153.236 113.437 162.963 125.871 171.171 147.424L182.503 144.102C182.07 142.499 181.616 140.921 181.143 139.37C182.454 138.65 184.001 135.23 182.896 134.66C181.729 134.057 180.49 133.638 179.184 133.398Z" fill="#161E4D"/>
<path fill-rule="evenodd" clip-rule="evenodd" d="M125.837 65.6119L128.932 75.0952L122.698 82.2044L128.332 87.7911L114.703 111.04L131.37 87.8375L125.837 82.2044L131.37 75.9219L125.837 65.6119Z" fill="black" fill-opacity="0.1"/>
<path fill-rule="evenodd" clip-rule="evenodd" d="M118.7 120.006C117.375 120.006 116.3 118.935 116.3 117.615C116.3 116.294 117.375 115.224 118.7 115.224C120.026 115.224 121.1 116.294 121.1 117.615C121.1 118.935 120.026 120.006 118.7 120.006ZM115.7 133.754C114.375 133.754 113.3 132.683 113.3 131.363C113.3 130.042 114.375 128.972 115.7 128.972C117.026 128.972 118.1 130.042 118.1 131.363C118.1 132.683 117.026 133.754 115.7 133.754ZM112.7 145.111C112.7 146.431 113.775 147.501 115.1 147.501C116.426 147.501 117.5 146.431 117.5 145.111C117.5 143.79 116.426 142.72 115.1 142.72C113.775 142.72 112.7 143.79 112.7 145.111Z" fill="black" fill-opacity="0.4"/>
</g>
<defs>
<clipPath id="clip0_171_2794">
<rect width="240" height="240" fill="white" transform="translate(0.5)"/>
</clipPath>
</defs>
</svg>
