<svg width="241" height="241" viewBox="0 0 241 241" fill="none" xmlns="http://www.w3.org/2000/svg">
<g clip-path="url(#clip0_171_2888)">
<path opacity="0.5" d="M220.782 93.3232C218.266 81.0208 213.85 69.0112 208.599 57.9712C199.546 38.9248 184.714 23.1088 165.74 13.72C119.18 -9.32003 85.5801 0.279966 67.3401 19C49.1001 37.72 54.3801 69.88 34.7001 83.8C15.0201 97.72 1.10007 103.96 0.140073 129.4C-0.819927 154.84 11.6601 174.04 31.8201 180.28C51.9801 186.52 82.2201 206.68 142.7 195.16C203.18 183.64 218.06 151.48 221.9 128.44C223.82 116.848 223.158 104.954 220.782 93.3232Z" fill="#E9E9E9"/>
<path fill-rule="evenodd" clip-rule="evenodd" d="M127.735 62.4711C124.038 64.6991 120.406 65.7756 118.702 65.3361C114.426 64.2341 114.033 48.5948 117.341 42.4293C120.649 36.2638 137.654 33.5765 138.511 45.7923C138.809 50.032 137.028 53.8157 134.398 56.9032L139.114 78.8854H125.415L127.735 62.4711Z" fill="#915B3C"/>
<path fill-rule="evenodd" clip-rule="evenodd" d="M135.451 59.653C137.17 52.0034 142.069 46.7889 141.321 43.3698C140.572 39.9508 137.333 39.1175 137.333 39.1175C137.333 39.1175 135.657 32.339 126.525 33.3512C117.392 34.3633 111.818 38.156 114.225 46.5015C116.438 46.5015 119.109 45.7012 122.803 47.0723C124.561 47.7248 125.318 51.1195 125.318 51.1195H126.987C126.987 51.1195 129.417 47.091 131.779 48.1587C134.141 49.2265 132.853 53.346 132.853 53.346L133.675 59.653H135.451Z" fill="#191847"/>
<path fill-rule="evenodd" clip-rule="evenodd" d="M177.36 150.238C182.404 150.238 186.493 154.327 186.493 159.371V211.887C186.493 216.931 182.404 221.02 177.36 221.02H111.715C106.671 221.02 102.582 216.931 102.582 211.887V159.371C102.582 154.327 106.671 150.238 111.715 150.238H177.36ZM168.226 166.221C169.487 166.221 170.51 167.243 170.51 168.504V202.754C170.51 204.015 169.487 205.037 168.226 205.037H120.848C119.587 205.037 118.565 204.015 118.565 202.754V168.504C118.565 167.243 119.587 166.221 120.848 166.221H168.226Z" fill="#C5CFD6"/>
<path fill-rule="evenodd" clip-rule="evenodd" d="M45.9797 218.166C57.2339 204.423 64.8488 194.234 68.8243 187.601C75.6314 176.242 81.2027 166.134 82.9608 162.274C87.1534 153.067 73.3089 148.755 70.1756 153.05C65.4332 159.55 55.3051 180.002 39.7914 214.408L45.9797 218.166Z" fill="#B28B67"/>
<path fill-rule="evenodd" clip-rule="evenodd" d="M69.0416 214.17L89.9864 161.447C94.4661 151.836 72.8329 145.519 69.5407 149.991C62.0664 160.146 44.3015 200.204 42.0747 203.23L69.0416 214.17Z" fill="#2F3676"/>
<path fill-rule="evenodd" clip-rule="evenodd" d="M124.825 203.597C120.745 197.645 105.905 177.623 97.8216 169.338C95.4989 166.958 93.2324 164.673 91.0888 162.544C84.7173 156.215 72.0292 166.852 78.389 172.617C94.2275 186.973 117.337 206.354 119.268 208.082C121.974 210.504 127.389 207.337 124.825 203.597Z" fill="#915B3C"/>
<path fill-rule="evenodd" clip-rule="evenodd" d="M122.182 201.147C122.577 200.608 123.343 200.48 123.854 200.911C124.787 201.695 126.129 202.904 126.614 203.743C127.386 205.081 128.421 207.903 128.421 207.903C126.87 208.799 100.539 224.001 100.539 224.001C100.539 224.001 97.3781 221.035 99.5543 219.397C101.73 217.758 103.146 216.633 103.146 216.633L112.77 203.374C112.959 203.114 113.325 203.061 113.58 203.257L115.58 204.797C115.58 204.797 118.331 204.557 119.687 203.774C120.512 203.298 121.519 202.05 122.182 201.147Z" fill="#E4E4E4"/>
<path fill-rule="evenodd" clip-rule="evenodd" d="M49.2386 215.474C49.8504 215.205 50.5774 215.477 50.8052 216.106C51.2209 217.252 51.7786 218.97 51.7786 219.939C51.7786 221.483 51.2641 224.445 51.2641 224.445C49.4729 224.445 19.0687 224.445 19.0687 224.445C19.0687 224.445 17.8138 220.296 20.5176 219.965C23.2215 219.634 25.0099 219.368 25.0099 219.368L39.974 212.697C40.2677 212.566 40.6116 212.703 40.7341 213.001L41.696 215.334C41.696 215.334 44.1991 216.502 45.764 216.502C46.7167 216.502 48.2134 215.925 49.2386 215.474Z" fill="#E4E4E4"/>
<path fill-rule="evenodd" clip-rule="evenodd" d="M97.5231 164.081C97.5231 164.081 123.635 159.826 132.504 158.263C149.356 155.291 154.271 146.223 151.365 126.436L120.315 126.436C114.151 128.216 68.8077 148.452 68.8077 148.452C63.3689 151.152 64.3818 159.113 65.3759 161.736C65.4367 161.896 92.8822 208.869 92.8822 208.869L118.283 192.688L97.4754 165.987C97.4754 165.987 96.6512 164.327 97.5231 164.081Z" fill="#5C63AB"/>
<path fill-rule="evenodd" clip-rule="evenodd" d="M77.0779 132.334L95.2861 118.964L99.3112 128.914L81.2803 136.391C76.1808 142.381 73.3293 144.878 72.7258 143.882C72.2169 143.042 72.6147 142.256 72.9811 141.532C73.2665 140.968 73.5329 140.442 73.3368 139.957C72.8889 138.85 69.4634 138.966 66.2175 139.216C62.9715 139.466 63.9175 138.021 64.7002 137.308C68.0135 135.325 72.1395 133.667 77.0779 132.334ZM172.566 155.894C170.893 152.5 165.196 119.425 165.196 119.425L153.268 119.472C153.268 119.472 164.316 155.137 165.196 157.319C166.34 160.154 164.397 164.273 163.08 167.066C162.876 167.498 162.687 167.898 162.527 168.257C164.355 169.075 165.233 168.087 166.159 167.044C167.205 165.867 168.311 164.621 170.916 165.833C171.922 166.301 172.875 166.854 173.805 167.395C177.019 169.263 179.971 170.979 183.987 168.501C184.624 168.108 185.322 166.629 183.636 165.473C179.436 162.593 173.384 157.553 172.566 155.894Z" fill="#915B3C"/>
<path fill-rule="evenodd" clip-rule="evenodd" d="M131.297 69.371L126.361 68.5244C108.047 84.3449 100.525 114.738 78.0768 130.839L83.4799 137.536C122.424 132.714 132.076 95.6418 131.297 69.371Z" fill="#11163A"/>
<path fill-rule="evenodd" clip-rule="evenodd" d="M152.814 131.401C152.814 131.401 123.127 131.401 109.14 131.401C107.144 131.401 107.52 128.519 107.808 127.065C111.138 110.283 124.135 92.1921 124.135 68.3028L136.733 66.3273C147.153 83.0857 150.756 103.719 152.814 131.401Z" fill="#DDE3E9"/>
<path fill-rule="evenodd" clip-rule="evenodd" d="M157.725 143.388C159.688 148.102 161.613 152.216 163.426 155.375H172.793C173.801 122.792 161.465 97.7205 151.141 82.6031C153.433 82.4393 155.502 81.4801 156.81 79.1201C161.414 70.8118 159.752 66.2374 154.831 64.7338C152.125 63.9069 149.58 64.4713 146.534 65.1469C144.041 65.6997 141.212 66.3269 137.685 66.3273C137.684 66.3273 137.683 66.3273 137.682 66.3273C137.34 66.3273 137.029 66.3502 136.746 66.394L132.566 66.6326C132.566 66.6326 115.594 124.155 123.204 143.388H157.725Z" fill="#161E4D"/>
<path fill-rule="evenodd" clip-rule="evenodd" d="M157.725 143.388C155.149 137.203 152.509 129.983 149.967 122.527C149.021 130.738 147.446 138.985 144.823 143.388H157.725Z" fill="black" fill-opacity="0.1"/>
</g>
<defs>
<clipPath id="clip0_171_2888">
<rect width="240" height="240" fill="white" transform="translate(0.5 0.519958)"/>
</clipPath>
</defs>
</svg>
