<svg width="24" height="24" viewBox="0 0 24 24" fill="none" xmlns="http://www.w3.org/2000/svg">
<g clip-path="url(#clip0_10_1665)">
<path d="M15.2266 2C15.3477 2.04297 15.4727 2.07813 15.5859 2.13281C16.0781 2.36719 16.3399 2.76563 16.4297 3.29688C16.875 5.87891 17.3203 8.46094 17.7695 11.043C17.9453 12.0547 17.2969 12.832 16.2656 12.832C13.5977 12.8359 10.9258 12.832 8.25782 12.832C8.0586 12.832 7.85157 12.8398 7.65626 12.8047C6.87501 12.6523 6.3672 11.918 6.50391 11.1211C6.91798 8.71094 7.33985 6.30469 7.75782 3.89453C7.80079 3.65625 7.83595 3.41797 7.88673 3.18359C8.01563 2.57812 8.38673 2.20312 8.98048 2.03906C9.01173 2.03125 9.03907 2.01563 9.06641 2C11.1211 2 13.1758 2 15.2266 2Z" fill="#1C2560"/>
<path d="M8.44532 22C8.08204 21.8711 7.82813 21.6445 7.78517 21.2383C7.73438 20.7383 8.1211 20.3359 8.65626 20.332C9.46095 20.3281 10.2656 20.332 11.0703 20.332C11.1406 20.332 11.2109 20.332 11.3008 20.332C11.3008 19.6406 11.3008 18.9609 11.3008 18.2539C11.2305 18.2539 11.1563 18.2539 11.082 18.2539C9.4961 18.2539 7.91407 18.2344 6.32813 18.2617C5.56251 18.2734 4.66407 17.5781 4.66407 16.6172C4.66407 15.8047 4.66407 14.9883 4.66407 14.1758C4.66407 13.6016 4.36719 13.2891 3.78907 13.25C3.33204 13.2188 2.97266 12.8203 3.00001 12.375C3.03126 11.8985 3.41797 11.5625 3.91016 11.582C5.21876 11.6406 6.21485 12.6211 6.32423 13.9649C6.32813 14.0234 6.33204 14.082 6.33985 14.1563C6.39063 14.1289 6.4297 14.1133 6.46095 14.0899C6.85548 13.8164 7.29298 13.6719 7.77345 13.6719C10.6875 13.6719 13.6055 13.6719 16.5195 13.6719C17.0039 13.6719 17.4375 13.8164 17.832 14.0938C17.8633 14.1133 17.8945 14.1328 17.9453 14.168C17.961 13.9922 17.9727 13.8399 17.9922 13.6875C18.1602 12.5195 19.2344 11.5899 20.418 11.582C20.8321 11.5781 21.1524 11.8242 21.2617 12.2266C21.2696 12.2578 21.2852 12.2852 21.2969 12.3125C21.2969 12.3789 21.2969 12.4414 21.2969 12.5078C21.2813 12.5586 21.2656 12.6055 21.25 12.6563C21.1446 12.9922 20.8516 13.2266 20.5039 13.25C19.8985 13.293 19.6211 13.5938 19.6211 14.2031C19.6211 15.0039 19.6211 15.8047 19.6211 16.6016C19.6211 17.582 18.7149 18.2734 17.9492 18.2578C16.3711 18.2266 14.793 18.25 13.2188 18.25C13.1406 18.25 13.0664 18.25 12.9766 18.25C12.9766 18.9492 12.9766 19.625 12.9766 20.3281C13.0625 20.3281 13.1367 20.3281 13.2149 20.3281C14.0195 20.3281 14.8242 20.3242 15.6289 20.3281C16.2656 20.332 16.668 20.918 16.4375 21.4805C16.3242 21.7578 16.1016 21.8945 15.8399 21.9961C13.3828 22 10.9141 22 8.44532 22Z" fill="#1C2560"/>
</g>
<defs>
<clipPath id="clip0_10_1665">
<rect width="18.3086" height="20" fill="white" transform="translate(3 2)"/>
</clipPath>
</defs>
</svg>
